<svg id="svg" version="1.1" xmlns="http://www.w3.org/2000/svg" xmlns:xlink="http://www.w3.org/1999/xlink" width="400" height="400" viewBox="0, 0, 400,400"><g id="svgg"><path id="path0" d="M303.846 109.230 C 303.955 109.408,303.735 109.505,303.326 109.461 C 302.903 109.416,302.645 109.536,302.689 109.758 C 302.729 109.964,302.574 110.059,302.344 109.971 C 302.114 109.883,301.705 110.031,301.435 110.301 C 301.166 110.571,300.836 110.804,300.703 110.819 C 300.082 110.892,299.713 111.169,299.879 111.437 C 299.979 111.600,299.875 111.708,299.646 111.676 C 298.797 111.560,298.498 111.709,298.295 112.348 C 298.169 112.746,298.004 112.871,297.878 112.666 C 297.731 112.430,297.396 112.470,296.757 112.801 C 296.256 113.061,295.777 113.282,295.692 113.292 C 295.288 113.338,294.514 113.711,293.462 114.366 C 292.827 114.761,292.303 114.979,292.298 114.850 C 292.293 114.721,292.119 114.837,291.913 115.107 C 291.540 115.597,291.354 115.692,290.769 115.692 C 290.600 115.692,290.462 115.916,290.462 116.190 C 290.462 116.536,290.274 116.638,289.846 116.526 C 289.508 116.438,289.231 116.488,289.231 116.638 C 289.231 116.788,288.886 116.998,288.464 117.104 C 288.030 117.213,287.784 117.438,287.899 117.624 C 288.025 117.828,287.910 117.877,287.589 117.754 C 287.307 117.646,287.077 117.692,287.077 117.856 C 287.077 118.020,286.731 118.154,286.308 118.154 C 285.748 118.154,285.538 118.319,285.538 118.760 C 285.538 119.178,285.392 119.309,285.065 119.184 C 284.560 118.990,281.846 119.904,281.846 120.268 C 281.846 120.387,281.537 120.508,281.158 120.536 C 280.780 120.565,280.422 120.734,280.362 120.913 C 280.303 121.092,279.972 121.389,279.628 121.573 C 279.127 121.841,279.051 121.825,279.247 121.492 C 279.381 121.264,279.190 121.341,278.822 121.663 C 278.455 121.985,278.149 122.124,278.143 121.971 C 278.137 121.818,277.934 122.038,277.692 122.462 C 277.300 123.147,277.251 123.164,277.237 122.615 C 277.225 122.159,277.154 122.106,276.961 122.411 C 276.818 122.637,276.647 122.788,276.581 122.748 C 276.337 122.597,274.154 123.518,274.154 123.772 C 274.154 123.918,274.015 123.951,273.846 123.846 C 273.677 123.742,273.537 123.768,273.536 123.905 C 273.532 124.357,272.045 124.895,271.884 124.503 C 271.791 124.277,271.732 124.296,271.717 124.557 C 271.703 124.778,271.554 124.874,271.385 124.769 C 271.215 124.665,271.077 124.719,271.077 124.891 C 271.077 125.063,270.594 125.294,270.003 125.404 C 269.412 125.515,269.000 125.722,269.088 125.864 C 269.176 126.007,268.967 126.273,268.624 126.457 C 268.184 126.693,268.000 126.694,268.000 126.462 C 268.000 126.243,267.818 126.229,267.462 126.420 C 266.879 126.732,266.720 126.769,265.967 126.769 C 265.695 126.769,265.539 126.942,265.619 127.154 C 265.718 127.413,265.420 127.546,264.703 127.563 C 264.118 127.576,263.532 127.761,263.401 127.974 C 263.270 128.186,263.074 128.348,262.966 128.334 C 262.117 128.220,261.883 128.354,262.067 128.846 C 262.238 129.303,262.196 129.325,261.787 128.994 C 261.381 128.663,261.276 128.711,261.115 129.301 C 260.961 129.861,260.867 129.912,260.640 129.559 C 260.311 129.049,257.684 129.642,258.001 130.155 C 258.199 130.476,256.688 131.560,256.418 131.290 C 256.321 131.192,255.529 131.395,254.659 131.741 C 251.445 133.020,251.565 132.986,251.972 132.496 C 252.280 132.124,252.236 132.076,251.713 132.213 C 251.367 132.304,251.154 132.491,251.239 132.629 C 251.325 132.767,251.233 132.981,251.034 133.103 C 250.822 133.234,250.756 133.193,250.874 133.003 C 250.984 132.825,250.877 132.604,250.637 132.512 C 250.024 132.277,248.000 132.880,248.000 133.297 C 248.000 133.486,247.907 133.548,247.794 133.435 C 247.681 133.322,247.369 133.425,247.102 133.663 C 246.834 133.901,246.021 134.255,245.294 134.448 C 244.390 134.689,243.864 135.039,243.629 135.554 C 243.440 135.969,243.161 136.308,243.009 136.308 C 242.857 136.308,242.832 136.148,242.952 135.952 C 243.089 135.732,243.037 135.681,242.816 135.817 C 242.566 135.972,242.552 136.210,242.770 136.617 C 243.032 137.106,242.983 137.177,242.455 137.076 C 242.110 137.009,241.911 137.087,242.011 137.249 C 242.111 137.411,241.977 137.760,241.712 138.024 C 241.121 138.615,241.121 139.258,241.711 140.462 C 241.960 140.969,242.083 141.108,241.985 140.769 C 241.856 140.322,242.051 140.428,242.700 141.154 C 243.191 141.704,243.838 142.154,244.137 142.154 C 244.502 142.154,244.621 142.311,244.498 142.631 C 244.378 142.943,244.438 143.033,244.671 142.889 C 244.918 142.736,244.959 142.847,244.805 143.248 C 244.683 143.567,244.678 143.733,244.793 143.617 C 245.119 143.291,246.198 143.987,245.961 144.371 C 245.834 144.576,245.892 144.623,246.106 144.491 C 246.302 144.370,246.462 144.426,246.462 144.615 C 246.462 144.805,246.600 144.874,246.769 144.769 C 246.938 144.665,247.077 144.810,247.077 145.092 C 247.077 145.450,247.236 145.543,247.606 145.401 C 247.897 145.290,248.047 145.286,247.939 145.394 C 247.742 145.591,248.754 146.769,249.120 146.769 C 249.228 146.769,249.470 146.974,249.658 147.225 C 249.846 147.476,250.308 147.726,250.684 147.781 C 251.061 147.836,251.476 148.000,251.607 148.144 C 251.739 148.288,251.673 148.307,251.462 148.185 C 251.250 148.063,251.077 148.087,251.077 148.238 C 251.077 148.755,251.482 148.918,251.902 148.569 C 252.238 148.291,252.279 148.332,252.109 148.775 C 251.934 149.232,252.016 149.298,252.580 149.151 C 253.115 149.011,253.330 149.144,253.564 149.759 C 253.729 150.193,253.945 150.465,254.045 150.365 C 254.145 150.265,254.429 150.386,254.677 150.633 C 254.924 150.880,255.239 151.013,255.377 150.928 C 255.515 150.842,255.707 150.980,255.804 151.233 C 255.901 151.485,256.323 151.692,256.741 151.692 C 257.160 151.692,257.588 151.831,257.692 152.000 C 257.797 152.169,258.090 152.308,258.344 152.308 C 258.615 152.308,258.715 152.161,258.586 151.952 C 258.460 151.749,258.501 151.680,258.680 151.791 C 259.117 152.061,258.981 153.402,258.526 153.308 C 258.321 153.265,258.154 153.477,258.154 153.778 C 258.154 154.079,257.851 154.529,257.481 154.778 C 256.264 155.596,253.167 158.902,253.510 159.016 C 254.013 159.184,253.918 159.620,253.231 160.308 C 252.892 160.646,252.615 160.849,252.615 160.758 C 252.615 160.668,252.334 160.744,251.990 160.928 C 251.646 161.112,251.403 161.430,251.450 161.633 C 251.544 162.044,250.295 163.424,250.051 163.179 C 249.867 162.996,249.071 164.358,249.165 164.692 C 249.201 164.819,249.046 164.923,248.821 164.923 C 248.596 164.923,248.215 165.304,247.975 165.769 C 247.735 166.235,247.054 167.147,246.462 167.796 C 245.869 168.446,245.256 169.207,245.099 169.489 C 244.942 169.770,244.596 170.183,244.330 170.407 C 243.935 170.740,243.931 170.778,244.308 170.615 C 244.562 170.505,244.464 170.685,244.090 171.015 C 243.716 171.346,243.482 171.687,243.569 171.774 C 243.656 171.862,243.299 172.238,242.774 172.612 C 241.960 173.191,241.879 173.363,242.218 173.781 C 242.437 174.051,242.470 174.185,242.293 174.079 C 241.812 173.792,241.234 174.260,241.079 175.064 C 240.906 175.967,240.615 176.274,240.615 175.556 C 240.615 175.094,240.523 175.122,240.026 175.735 C 239.703 176.135,239.502 176.527,239.582 176.606 C 239.661 176.686,239.855 176.548,240.012 176.299 C 240.169 176.050,240.298 175.985,240.298 176.154 C 240.298 176.647,239.814 177.271,239.510 177.170 C 239.357 177.119,238.919 177.388,238.538 177.769 C 238.158 178.150,237.950 178.466,238.077 178.472 C 238.204 178.477,238.031 178.720,237.692 179.010 C 237.354 179.301,237.077 179.746,237.077 180.000 C 237.077 180.254,236.904 180.427,236.692 180.385 C 236.481 180.342,236.308 180.515,236.308 180.769 C 236.308 181.023,236.109 181.231,235.867 181.231 C 235.624 181.231,235.338 181.508,235.231 181.846 C 235.123 182.185,234.911 182.462,234.758 182.462 C 234.606 182.462,234.561 182.669,234.658 182.923 C 234.755 183.177,234.679 183.385,234.488 183.385 C 234.297 183.385,233.983 183.731,233.790 184.154 C 233.597 184.577,233.289 184.925,233.104 184.926 C 232.920 184.928,232.492 185.283,232.154 185.715 C 231.815 186.147,231.305 186.760,231.019 187.077 C 230.652 187.485,230.607 187.697,230.865 187.803 C 231.066 187.884,230.919 187.962,230.538 187.976 C 230.158 187.989,229.881 188.173,229.923 188.385 C 229.965 188.596,229.817 188.731,229.593 188.685 C 229.368 188.638,229.273 188.743,229.381 188.918 C 229.489 189.092,229.326 189.326,229.020 189.436 C 228.233 189.719,227.469 190.562,227.612 190.989 C 227.678 191.188,227.932 191.273,228.177 191.179 C 228.496 191.057,228.566 191.156,228.423 191.528 C 228.247 191.985,228.169 191.993,227.771 191.595 C 227.314 191.138,225.870 192.072,226.077 192.692 C 226.119 192.819,226.050 192.907,225.923 192.887 C 225.315 192.791,225.229 192.966,225.670 193.407 C 225.936 193.673,226.154 194.029,226.154 194.198 C 226.154 194.367,225.935 194.287,225.668 194.019 C 225.169 193.521,224.460 193.653,224.787 194.183 C 224.887 194.344,224.804 194.439,224.603 194.392 C 224.401 194.346,223.978 194.758,223.663 195.308 C 223.347 195.858,223.233 196.308,223.409 196.308 C 223.585 196.308,223.634 196.461,223.518 196.648 C 223.368 196.891,223.240 196.879,223.073 196.609 C 222.760 196.102,222.065 196.555,222.283 197.124 C 222.377 197.370,222.352 197.519,222.227 197.457 C 222.102 197.394,221.654 197.686,221.231 198.105 C 220.808 198.524,220.635 198.767,220.846 198.646 C 221.058 198.524,221.231 198.548,221.231 198.699 C 221.231 198.850,220.889 199.156,220.472 199.379 C 220.055 199.602,219.770 199.877,219.840 199.990 C 219.910 200.103,219.698 200.390,219.368 200.627 C 219.039 200.865,218.769 201.236,218.769 201.453 C 218.769 201.669,218.623 201.846,218.443 201.846 C 218.264 201.846,218.187 201.958,218.271 202.095 C 218.356 202.231,218.100 202.587,217.702 202.886 C 217.305 203.184,216.812 203.834,216.606 204.330 C 216.401 204.825,216.103 205.231,215.945 205.231 C 215.786 205.231,215.736 205.360,215.833 205.517 C 215.930 205.675,215.867 205.892,215.692 206.000 C 215.518 206.108,215.467 206.347,215.581 206.530 C 215.699 206.721,215.645 206.777,215.457 206.660 C 215.275 206.548,214.853 206.803,214.519 207.228 C 214.185 207.653,213.681 208.000,213.399 208.000 C 213.117 208.000,212.951 208.104,213.029 208.231 C 213.247 208.582,210.033 208.506,209.774 208.154 C 209.634 207.963,209.546 207.993,209.543 208.231 C 209.536 208.803,209.005 208.697,208.287 207.979 C 207.782 207.474,207.561 207.418,207.210 207.709 C 206.872 207.990,206.769 207.990,206.769 207.712 C 206.769 207.512,206.609 207.447,206.414 207.568 C 206.202 207.699,206.142 207.653,206.265 207.453 C 206.510 207.058,206.123 206.779,205.064 206.587 C 204.640 206.510,204.007 206.160,203.657 205.810 C 203.278 205.432,202.780 205.237,202.429 205.328 C 202.051 205.427,201.725 205.271,201.524 204.895 C 201.351 204.572,200.945 204.308,200.623 204.308 C 200.300 204.308,199.949 204.167,199.843 203.995 C 199.737 203.823,199.530 203.756,199.385 203.846 C 199.239 203.936,199.019 203.848,198.897 203.650 C 198.758 203.425,198.808 203.372,199.029 203.509 C 199.225 203.630,199.385 203.597,199.385 203.436 C 199.385 203.145,198.591 202.678,198.000 202.621 C 197.831 202.604,197.220 202.154,196.642 201.620 C 196.064 201.086,195.511 200.663,195.411 200.681 C 194.987 200.756,194.172 200.220,194.328 199.968 C 194.421 199.816,194.351 199.692,194.172 199.692 C 193.993 199.692,193.560 199.406,193.210 199.056 C 192.723 198.570,192.476 198.502,192.157 198.766 C 191.825 199.042,191.774 198.985,191.906 198.479 C 192.035 197.988,191.926 197.846,191.421 197.846 C 191.062 197.846,190.804 197.679,190.846 197.476 C 190.888 197.272,190.756 197.099,190.552 197.091 C 190.347 197.083,189.956 196.800,189.683 196.462 C 189.409 196.123,189.275 196.054,189.384 196.308 C 189.493 196.562,189.229 196.354,188.796 195.846 C 188.362 195.338,187.879 194.923,187.722 194.923 C 187.565 194.923,187.166 194.612,186.836 194.231 C 186.506 193.850,186.167 193.538,186.084 193.538 C 186.000 193.538,185.412 193.047,184.775 192.447 C 184.139 191.847,183.557 191.417,183.483 191.492 C 183.408 191.566,183.008 191.288,182.594 190.874 C 182.180 190.460,181.713 190.200,181.557 190.296 C 181.401 190.393,181.173 190.309,181.051 190.111 C 180.912 189.886,180.961 189.834,181.183 189.971 C 181.915 190.423,181.503 189.936,180.571 189.247 C 180.040 188.854,179.702 188.689,179.820 188.881 C 179.939 189.074,179.890 189.231,179.710 189.231 C 179.531 189.231,179.385 189.019,179.385 188.760 C 179.385 188.500,179.142 188.196,178.846 188.082 C 178.550 187.969,178.070 187.592,177.779 187.246 C 177.489 186.899,177.247 186.750,177.241 186.915 C 177.235 187.079,177.015 186.906,176.752 186.530 C 176.488 186.154,176.080 185.846,175.844 185.846 C 175.608 185.846,175.304 185.660,175.169 185.433 C 174.786 184.791,173.364 183.972,173.080 184.230 C 172.939 184.357,172.920 184.295,173.036 184.092 C 173.299 183.634,172.393 183.077,171.385 183.077 C 171.215 183.077,171.112 182.904,171.154 182.692 C 171.262 182.152,168.988 182.136,167.923 182.669 C 167.158 183.052,166.935 183.408,167.040 184.077 C 167.061 184.204,166.973 184.291,166.846 184.271 C 166.233 184.174,165.829 184.339,166.000 184.615 C 166.105 184.785,166.035 184.923,165.846 184.923 C 165.657 184.923,165.601 185.083,165.722 185.278 C 165.847 185.482,165.807 185.551,165.627 185.439 C 165.199 185.175,164.364 186.183,164.471 186.837 C 164.519 187.128,164.467 187.353,164.356 187.339 C 163.768 187.260,163.369 187.418,163.523 187.668 C 163.619 187.823,163.480 188.168,163.214 188.434 C 162.940 188.708,162.831 189.087,162.963 189.305 C 163.114 189.557,163.007 189.540,162.657 189.256 C 162.361 189.015,162.149 188.946,162.185 189.102 C 162.306 189.616,161.788 190.462,161.352 190.462 C 160.819 190.462,160.795 191.123,161.308 191.676 C 161.595 191.986,161.598 192.037,161.317 191.879 C 161.110 191.762,160.487 191.903,159.932 192.191 C 159.377 192.479,159.096 192.773,159.308 192.844 C 159.519 192.916,159.690 193.205,159.688 193.487 C 159.684 193.908,159.633 193.922,159.408 193.565 C 159.173 193.195,159.063 193.201,158.658 193.606 C 158.397 193.867,158.280 194.188,158.399 194.320 C 158.518 194.452,158.461 194.472,158.272 194.364 C 158.083 194.257,157.668 194.466,157.349 194.829 C 156.955 195.279,156.917 195.417,157.231 195.263 C 157.485 195.137,157.227 195.448,156.658 195.953 C 156.089 196.458,155.716 197.020,155.828 197.201 C 155.959 197.413,155.832 197.460,155.478 197.332 C 155.173 197.222,155.016 197.237,155.131 197.364 C 155.245 197.491,154.899 198.037,154.361 198.578 C 152.446 200.505,152.032 201.137,152.414 201.548 C 152.692 201.847,152.611 201.892,152.046 201.755 C 151.649 201.659,151.390 201.646,151.471 201.727 C 151.606 201.862,150.990 202.597,149.043 204.625 C 148.432 205.261,148.367 205.480,148.686 205.824 C 148.912 206.067,148.929 206.161,148.724 206.047 C 148.531 205.938,147.838 206.353,147.186 206.967 C 146.534 207.582,146.270 207.893,146.601 207.658 C 147.197 207.234,147.197 207.237,146.601 208.069 C 146.270 208.530,145.748 208.993,145.439 209.097 C 145.129 209.202,144.950 209.473,145.039 209.704 C 145.145 209.981,145.041 210.062,144.730 209.943 C 144.398 209.815,144.291 209.929,144.362 210.336 C 144.421 210.679,144.276 210.918,144.000 210.930 C 143.746 210.942,143.577 211.128,143.623 211.345 C 143.670 211.561,143.575 211.656,143.413 211.556 C 143.156 211.397,142.648 211.874,142.612 212.308 C 142.577 212.729,141.858 213.680,141.637 213.597 C 141.498 213.545,141.295 213.822,141.185 214.213 C 141.074 214.603,140.971 214.812,140.954 214.677 C 140.907 214.299,139.348 215.894,137.106 218.615 C 135.991 219.969,134.766 221.414,134.385 221.826 C 133.811 222.446,133.797 222.500,134.308 222.139 C 134.905 221.716,134.907 221.722,134.384 222.338 C 134.087 222.687,133.949 223.096,134.076 223.246 C 134.204 223.396,134.039 223.315,133.710 223.067 C 133.382 222.819,133.207 222.773,133.322 222.965 C 133.437 223.157,133.327 223.485,133.077 223.692 C 132.827 223.900,132.697 224.191,132.789 224.339 C 132.880 224.487,132.717 224.517,132.427 224.406 C 132.069 224.268,131.971 224.319,132.122 224.563 C 132.256 224.781,132.148 224.923,131.846 224.923 C 131.572 224.923,131.434 225.062,131.538 225.231 C 131.643 225.400,131.574 225.538,131.385 225.538 C 131.195 225.538,131.120 225.667,131.217 225.824 C 131.314 225.981,131.121 226.196,130.787 226.302 C 129.977 226.559,128.559 228.275,128.815 228.689 C 128.930 228.876,128.874 228.929,128.684 228.812 C 128.379 228.623,127.919 229.048,127.812 229.615 C 127.789 229.742,127.735 229.915,127.692 230.000 C 127.650 230.085,127.598 230.281,127.577 230.436 C 127.497 231.019,127.077 231.155,127.077 230.598 C 127.077 230.072,127.031 230.082,126.598 230.701 C 126.334 231.078,126.217 231.545,126.337 231.740 C 126.473 231.960,126.421 232.011,126.201 231.876 C 126.006 231.755,125.846 231.811,125.846 232.000 C 125.846 232.189,125.704 232.256,125.531 232.149 C 125.357 232.042,125.254 232.076,125.300 232.225 C 125.347 232.374,124.991 232.862,124.511 233.309 C 124.030 233.756,123.729 234.271,123.841 234.453 C 123.954 234.635,123.932 234.747,123.792 234.702 C 123.330 234.552,121.538 236.399,121.538 237.025 C 121.538 237.364,121.453 237.555,121.348 237.451 C 121.067 237.170,120.308 238.028,120.308 238.626 C 120.308 238.959,120.143 239.080,119.846 238.966 C 119.590 238.867,119.385 238.957,119.385 239.166 C 119.385 239.374,119.102 239.721,118.757 239.936 C 118.412 240.152,118.207 240.452,118.301 240.604 C 118.395 240.757,118.162 241.098,117.783 241.364 C 117.404 241.629,117.228 241.855,117.393 241.866 C 117.558 241.876,117.375 242.013,116.987 242.168 C 116.396 242.405,116.334 242.552,116.609 243.065 C 116.871 243.555,116.850 243.645,116.501 243.511 C 115.999 243.319,115.006 244.559,115.291 245.021 C 115.398 245.193,115.323 245.229,115.119 245.103 C 114.921 244.981,114.852 244.730,114.966 244.547 C 115.094 244.339,115.028 244.302,114.790 244.449 C 114.580 244.579,114.480 244.960,114.568 245.296 C 114.656 245.632,114.649 245.829,114.554 245.734 C 114.260 245.439,113.231 246.148,113.231 246.644 C 113.231 246.902,113.102 247.034,112.944 246.936 C 112.787 246.839,112.577 246.889,112.479 247.049 C 112.381 247.208,112.544 247.402,112.842 247.479 C 113.353 247.613,113.353 247.623,112.834 247.657 C 112.276 247.693,110.637 249.249,109.231 251.078 C 108.522 251.999,107.624 253.044,106.190 254.615 C 105.881 254.954,105.539 255.482,105.431 255.789 C 105.323 256.096,105.096 256.261,104.925 256.155 C 104.755 256.050,104.615 256.180,104.615 256.443 C 104.615 256.707,104.469 256.923,104.290 256.923 C 104.110 256.923,104.040 257.046,104.132 257.196 C 104.225 257.346,104.031 257.539,103.700 257.626 C 103.277 257.736,103.138 257.981,103.230 258.457 C 103.338 259.019,103.285 259.069,102.911 258.759 C 102.548 258.458,102.462 258.484,102.462 258.895 C 102.462 259.175,102.250 259.485,101.992 259.584 C 101.606 259.732,101.592 259.850,101.915 260.249 C 102.219 260.624,102.220 260.681,101.923 260.502 C 101.694 260.365,101.537 260.434,101.534 260.674 C 101.530 260.967,101.448 260.951,101.231 260.615 C 100.976 260.221,100.932 260.232,100.928 260.692 C 100.925 260.988,100.707 261.231,100.443 261.231 C 100.180 261.231,100.031 261.340,100.114 261.473 C 100.196 261.607,99.797 262.172,99.228 262.729 C 98.618 263.325,98.263 263.926,98.365 264.191 C 98.459 264.438,98.397 264.600,98.225 264.551 C 97.790 264.426,96.623 265.817,96.793 266.258 C 96.869 266.457,96.618 266.757,96.235 266.925 C 95.852 267.093,95.538 267.409,95.538 267.627 C 95.538 267.844,95.399 268.121,95.228 268.242 C 94.743 268.585,93.128 271.174,93.128 271.609 C 93.128 271.824,93.017 272.000,92.881 272.000 C 92.746 272.000,92.723 272.230,92.831 272.512 C 92.954 272.833,92.905 272.948,92.700 272.821 C 92.340 272.599,92.000 273.258,92.000 274.179 C 92.000 274.504,91.885 274.769,91.744 274.769 C 91.465 274.769,91.442 274.871,91.261 276.923 C 91.194 277.685,91.251 278.446,91.389 278.615 C 91.527 278.785,91.620 278.992,91.595 279.077 C 91.482 279.461,92.602 280.660,92.901 280.475 C 93.085 280.362,93.320 280.489,93.423 280.759 C 93.549 281.087,93.816 281.184,94.229 281.053 C 94.639 280.923,94.776 280.972,94.636 281.198 C 94.500 281.418,94.752 281.538,95.348 281.538 C 95.856 281.538,96.348 281.663,96.443 281.816 C 96.537 281.968,97.027 282.064,97.532 282.029 C 98.037 281.994,98.499 282.112,98.558 282.290 C 98.629 282.504,100.720 282.615,104.641 282.615 C 107.927 282.615,110.689 282.713,110.779 282.832 C 110.868 282.951,111.664 283.089,112.546 283.139 C 113.429 283.190,114.152 283.335,114.153 283.462 C 114.155 283.857,116.248 283.714,116.401 283.308 C 116.502 283.038,116.680 283.099,116.995 283.508 C 117.345 283.964,117.499 284.004,117.693 283.691 C 117.857 283.426,117.821 283.364,117.586 283.509 C 116.994 283.875,117.188 283.211,117.848 282.614 C 118.188 282.306,118.564 282.154,118.685 282.275 C 118.806 282.396,118.755 282.591,118.571 282.709 C 117.912 283.131,117.783 284.246,118.372 284.431 C 119.282 284.717,123.385 284.582,123.385 284.266 C 123.385 284.105,123.558 284.002,123.769 284.037 C 124.396 284.140,125.846 283.649,125.846 283.333 C 125.846 283.172,125.969 283.116,126.119 283.209 C 126.269 283.302,126.581 283.137,126.811 282.843 C 127.200 282.347,127.185 282.342,126.615 282.769 C 126.046 283.197,126.031 283.191,126.419 282.696 C 126.650 282.401,126.951 282.230,127.087 282.314 C 127.360 282.482,127.905 281.986,128.615 280.923 C 128.869 280.543,129.285 280.017,129.538 279.754 C 129.792 279.490,130.000 279.150,130.000 278.997 C 130.000 278.845,130.256 278.532,130.569 278.303 C 130.904 278.059,131.043 277.732,130.906 277.511 C 130.767 277.285,130.802 277.215,130.996 277.334 C 131.413 277.593,132.405 276.082,132.188 275.517 C 132.097 275.279,132.121 275.115,132.242 275.153 C 132.561 275.252,134.154 273.795,134.154 273.403 C 134.154 273.221,134.444 272.890,134.799 272.668 C 135.154 272.446,135.366 272.187,135.271 272.091 C 135.175 271.996,135.370 271.570,135.704 271.146 C 136.126 270.610,136.217 270.261,136.003 270.003 C 135.787 269.744,135.871 269.472,136.278 269.104 C 136.684 268.736,136.927 268.681,137.076 268.921 C 137.222 269.157,137.435 269.090,137.745 268.711 C 137.995 268.404,138.099 268.348,137.975 268.586 C 137.824 268.877,137.872 268.944,138.121 268.789 C 138.407 268.613,138.400 268.448,138.092 268.069 C 137.747 267.644,137.772 267.607,138.274 267.796 C 138.772 267.982,138.799 267.945,138.462 267.538 C 138.134 267.144,138.144 267.092,138.519 267.236 C 138.794 267.342,139.116 267.134,139.341 266.705 C 139.545 266.317,139.639 266.249,139.552 266.554 C 139.459 266.875,139.520 267.029,139.696 266.921 C 139.863 266.818,140.000 266.596,140.000 266.429 C 140.000 266.261,140.381 265.768,140.846 265.333 C 141.312 264.897,141.659 264.422,141.617 264.276 C 141.576 264.131,141.888 263.785,142.310 263.509 C 142.732 263.232,143.077 262.894,143.077 262.758 C 143.077 262.621,143.467 262.117,143.943 261.639 C 144.419 261.161,145.331 259.869,145.968 258.769 C 147.337 256.409,149.439 254.135,150.040 254.365 C 150.276 254.456,150.462 254.334,150.462 254.088 C 150.462 253.847,150.950 253.259,151.548 252.783 C 152.146 252.306,152.566 251.848,152.482 251.764 C 152.179 251.461,152.957 250.446,153.323 250.666 C 153.539 250.795,153.514 250.668,153.264 250.360 C 152.890 249.899,152.900 249.856,153.339 250.025 C 153.649 250.144,153.913 250.029,154.030 249.724 C 154.134 249.453,154.436 249.231,154.700 249.231 C 154.964 249.231,155.097 249.148,154.996 249.047 C 154.895 248.947,155.288 248.428,155.868 247.896 C 156.876 246.971,157.317 246.182,156.568 246.645 C 156.353 246.778,156.296 246.729,156.424 246.523 C 156.540 246.335,156.838 246.259,157.087 246.354 C 157.335 246.449,157.538 246.372,157.538 246.182 C 157.538 245.991,158.186 245.215,158.978 244.456 C 159.770 243.698,160.313 243.077,160.185 243.077 C 160.057 243.077,160.386 242.712,160.916 242.266 C 161.446 241.820,161.810 241.273,161.725 241.051 C 161.627 240.795,161.733 240.709,162.016 240.818 C 162.295 240.925,162.462 240.798,162.462 240.476 C 162.462 240.194,162.601 240.050,162.771 240.155 C 162.942 240.261,163.171 240.112,163.281 239.826 C 163.391 239.539,163.979 238.825,164.587 238.240 C 165.195 237.655,165.485 237.281,165.231 237.410 C 164.924 237.566,164.966 237.420,165.355 236.976 C 165.678 236.608,166.063 236.308,166.211 236.308 C 166.676 236.308,168.460 234.082,168.498 233.454 C 168.541 232.755,169.152 232.297,169.741 232.523 C 169.973 232.612,170.154 232.479,170.154 232.220 C 170.154 231.966,170.377 231.672,170.650 231.568 C 170.957 231.450,171.088 231.152,170.993 230.789 C 170.897 230.421,170.973 230.251,171.198 230.338 C 171.395 230.413,171.829 230.255,172.163 229.986 C 172.746 229.515,172.736 229.504,171.897 229.684 C 171.393 229.792,171.100 229.751,171.202 229.586 C 171.299 229.429,171.847 229.212,172.421 229.105 C 173.174 228.964,173.700 228.569,174.313 227.685 C 174.779 227.012,175.295 226.462,175.459 226.462 C 175.624 226.462,175.681 226.261,175.587 226.016 C 175.470 225.710,175.564 225.627,175.885 225.750 C 176.200 225.871,176.321 225.771,176.254 225.447 C 176.199 225.181,176.292 224.939,176.462 224.909 C 176.631 224.880,177.157 224.579,177.632 224.241 C 178.457 223.653,178.521 223.650,179.093 224.169 C 179.439 224.481,179.692 224.560,179.692 224.355 C 179.692 223.915,180.508 223.885,180.774 224.315 C 180.881 224.489,180.855 224.611,180.715 224.587 C 180.045 224.470,180.092 224.689,180.923 225.538 C 181.419 226.046,181.964 226.462,182.133 226.462 C 182.302 226.462,182.583 226.729,182.758 227.055 C 182.933 227.382,183.387 227.697,183.769 227.755 C 184.150 227.813,184.433 228.012,184.398 228.197 C 184.363 228.382,184.705 228.864,185.158 229.267 C 185.611 229.670,185.847 229.786,185.683 229.524 C 185.496 229.226,185.572 229.250,185.885 229.588 C 186.160 229.885,186.472 230.041,186.577 229.936 C 186.683 229.830,186.769 229.974,186.769 230.256 C 186.769 230.717,187.117 230.909,187.769 230.806 C 187.896 230.786,187.965 230.942,187.923 231.154 C 187.881 231.365,188.030 231.500,188.254 231.454 C 188.478 231.407,188.578 231.504,188.476 231.669 C 188.374 231.834,188.606 232.137,188.991 232.343 C 189.377 232.548,189.876 232.936,190.100 233.204 C 190.418 233.585,190.457 233.591,190.278 233.231 C 190.011 232.695,191.094 233.514,192.308 234.768 C 192.731 235.205,193.008 235.413,192.923 235.231 C 192.838 235.048,193.146 235.320,193.607 235.834 C 194.068 236.348,194.449 236.672,194.453 236.552 C 194.458 236.433,194.781 236.641,195.172 237.014 C 195.562 237.387,196.201 237.900,196.591 238.154 C 196.981 238.408,197.791 238.998,198.390 239.466 C 198.989 239.933,199.549 240.246,199.635 240.160 C 199.721 240.074,199.986 240.282,200.224 240.622 C 200.463 240.963,200.778 241.166,200.926 241.075 C 201.073 240.984,201.465 241.200,201.795 241.555 C 202.186 241.975,202.469 242.083,202.604 241.864 C 202.852 241.464,203.387 241.729,203.380 242.249 C 203.377 242.469,203.256 242.431,203.077 242.154 C 202.822 241.759,202.778 241.771,202.774 242.231 C 202.771 242.527,202.942 242.772,203.154 242.775 C 203.365 242.777,203.865 243.124,204.263 243.544 C 204.662 243.964,205.181 244.308,205.417 244.308 C 205.653 244.308,205.846 244.463,205.846 244.653 C 205.846 244.889,205.994 244.876,206.315 244.610 C 206.711 244.281,206.750 244.307,206.570 244.776 C 206.423 245.158,206.469 245.262,206.717 245.109 C 206.915 244.987,207.077 245.037,207.077 245.220 C 207.077 245.605,208.569 246.286,209.185 246.183 C 209.437 246.140,209.511 246.258,209.372 246.482 C 209.207 246.749,209.405 246.814,210.078 246.715 C 210.713 246.621,210.968 246.694,210.874 246.941 C 210.674 247.461,211.477 247.594,214.591 247.561 C 216.476 247.540,217.376 247.412,217.463 247.150 C 217.533 246.941,217.796 246.769,218.048 246.769 C 218.299 246.769,218.714 246.560,218.970 246.305 C 219.225 246.049,219.562 245.919,219.717 246.015 C 219.873 246.111,220.000 245.888,220.000 245.519 C 220.000 244.986,220.087 244.920,220.421 245.197 C 220.937 245.625,221.723 244.855,221.364 244.274 C 221.222 244.045,221.266 243.985,221.478 244.117 C 221.848 244.345,225.231 241.347,225.231 240.791 C 225.231 240.606,225.513 240.279,225.858 240.064 C 226.203 239.848,226.412 239.554,226.323 239.409 C 226.234 239.265,226.373 238.970,226.633 238.755 C 226.892 238.539,227.036 238.184,226.953 237.966 C 226.861 237.728,226.966 237.633,227.215 237.729 C 227.443 237.816,227.735 237.719,227.863 237.512 C 228.010 237.273,227.967 237.215,227.743 237.353 C 227.516 237.494,227.456 237.402,227.575 237.093 C 227.676 236.830,227.951 236.615,228.187 236.615 C 228.574 236.615,228.750 236.238,228.652 235.615 C 228.632 235.488,228.788 235.419,229.000 235.462 C 229.212 235.504,229.350 235.365,229.308 235.154 C 229.265 234.942,229.386 234.769,229.576 234.769 C 229.828 234.769,229.826 234.654,229.568 234.344 C 229.295 234.015,229.325 233.876,229.700 233.732 C 230.028 233.606,230.116 233.669,229.971 233.927 C 229.802 234.225,229.843 234.227,230.157 233.936 C 230.486 233.631,230.487 233.478,230.159 233.083 C 229.818 232.672,229.838 232.632,230.295 232.807 C 230.954 233.060,231.434 232.389,231.204 231.538 C 231.068 231.039,231.098 231.010,231.360 231.385 C 231.597 231.723,231.684 231.739,231.688 231.443 C 231.690 231.222,231.815 231.116,231.965 231.209 C 232.115 231.302,232.418 231.161,232.638 230.896 C 232.947 230.523,232.953 230.363,232.665 230.185 C 232.395 230.018,232.463 229.801,232.916 229.391 C 233.258 229.081,233.538 228.931,233.538 229.058 C 233.538 229.185,234.023 228.709,234.615 228.000 C 235.850 226.522,236.004 226.102,235.000 226.952 C 234.619 227.275,235.104 226.754,236.077 225.796 C 237.050 224.837,237.846 223.841,237.846 223.582 C 237.846 223.324,238.154 222.896,238.530 222.633 C 238.906 222.369,239.079 222.153,238.915 222.152 C 238.750 222.151,239.031 221.795,239.538 221.361 C 240.046 220.926,240.254 220.679,240.000 220.811 C 239.746 220.943,240.277 220.312,241.179 219.409 C 242.302 218.285,242.773 217.588,242.672 217.201 C 242.591 216.891,242.614 216.648,242.724 216.662 C 243.342 216.743,243.692 216.563,243.692 216.165 C 243.692 215.917,243.969 215.566,244.308 215.385 C 244.646 215.203,244.923 214.852,244.923 214.605 C 244.923 214.357,245.076 214.154,245.264 214.154 C 245.451 214.154,245.522 213.939,245.421 213.676 C 245.320 213.414,245.356 213.272,245.501 213.361 C 245.837 213.569,246.839 212.480,246.565 212.206 C 246.452 212.093,246.521 212.000,246.718 212.000 C 246.915 212.000,247.077 211.807,247.077 211.571 C 247.077 211.336,247.293 211.060,247.558 210.958 C 247.823 210.857,247.951 210.631,247.843 210.456 C 247.735 210.281,247.821 210.177,248.035 210.223 C 248.248 210.270,248.645 209.852,248.917 209.296 C 249.189 208.739,249.498 208.370,249.604 208.476 C 249.822 208.693,250.632 207.367,250.519 206.977 C 250.479 206.838,250.573 206.802,250.728 206.898 C 251.087 207.119,252.087 205.620,251.843 205.226 C 251.741 205.060,251.872 205.012,252.141 205.115 C 252.507 205.255,252.573 205.162,252.416 204.727 C 252.303 204.412,252.313 204.247,252.439 204.360 C 252.565 204.473,253.060 204.128,253.538 203.592 C 254.139 202.920,254.297 202.548,254.050 202.391 C 253.790 202.225,253.800 202.162,254.090 202.159 C 254.642 202.152,255.575 201.210,255.820 200.412 C 255.932 200.046,256.498 199.386,257.077 198.944 C 257.736 198.441,258.064 197.971,257.955 197.686 C 257.859 197.436,257.943 197.231,258.143 197.231 C 258.525 197.231,259.385 196.488,259.385 196.158 C 259.385 196.051,259.212 196.063,259.000 196.185 C 258.777 196.314,258.723 196.289,258.872 196.126 C 259.013 195.972,259.221 195.844,259.333 195.841 C 259.741 195.832,260.308 195.341,260.308 194.997 C 260.308 194.744,260.204 194.749,259.938 195.015 C 259.735 195.218,259.355 195.380,259.092 195.375 C 258.388 195.360,259.643 194.462,260.367 194.462 C 260.673 194.462,260.923 194.284,260.923 194.068 C 260.923 193.851,261.187 193.484,261.510 193.251 C 261.847 193.008,262.021 192.628,261.919 192.360 C 261.788 192.020,261.879 191.947,262.254 192.091 C 262.538 192.199,262.769 192.154,262.769 191.990 C 262.769 191.467,262.870 191.240,263.286 190.824 C 263.509 190.601,263.692 190.220,263.692 189.978 C 263.692 189.736,263.839 189.538,264.018 189.538 C 264.197 189.538,264.245 189.698,264.124 189.894 C 263.992 190.109,264.040 190.166,264.247 190.038 C 264.435 189.922,264.520 189.649,264.437 189.432 C 264.354 189.215,264.602 188.770,264.989 188.442 L 265.692 187.846 265.077 188.615 L 264.462 189.385 265.148 188.804 C 265.525 188.485,265.928 187.725,266.042 187.117 C 266.216 186.189,266.288 186.109,266.488 186.621 C 266.700 187.165,266.728 187.171,266.748 186.674 C 266.762 186.313,266.905 186.199,267.154 186.349 C 267.399 186.496,267.381 186.385,267.102 186.042 C 266.862 185.746,266.792 185.528,266.948 185.558 C 267.579 185.677,268.026 185.521,267.852 185.241 C 267.751 185.077,267.937 184.776,268.265 184.571 C 268.593 184.366,268.798 184.033,268.721 183.831 C 268.643 183.629,268.793 183.382,269.054 183.282 C 269.360 183.165,269.455 182.905,269.322 182.550 C 269.141 182.067,269.179 182.052,269.635 182.422 C 270.079 182.784,270.154 182.777,270.154 182.378 C 270.154 182.122,270.362 181.832,270.615 181.735 C 270.869 181.637,271.077 181.409,271.077 181.228 C 271.077 181.046,271.354 180.600,271.692 180.237 C 272.031 179.874,272.308 179.395,272.308 179.173 C 272.308 178.951,272.469 178.769,272.667 178.769 C 272.864 178.769,272.945 178.688,272.846 178.590 C 272.747 178.491,272.897 178.159,273.179 177.852 C 274.774 176.115,275.077 175.729,275.077 175.436 C 275.077 175.258,275.385 174.896,275.761 174.633 C 276.137 174.369,276.310 174.152,276.145 174.149 C 275.981 174.147,276.054 174.010,276.308 173.846 C 276.615 173.647,276.641 173.546,276.385 173.543 C 276.173 173.541,276.000 173.404,276.000 173.240 C 276.000 173.077,276.208 173.022,276.462 173.119 C 276.758 173.233,276.923 173.113,276.923 172.784 C 276.923 172.475,277.064 172.359,277.278 172.491 C 277.498 172.626,277.550 172.575,277.416 172.358 C 277.189 171.991,277.594 171.001,277.951 171.049 C 278.062 171.065,278.119 171.014,278.077 170.936 C 278.035 170.859,278.277 170.572,278.615 170.298 C 278.954 170.024,279.023 169.890,278.769 170.000 C 278.515 170.110,278.576 169.982,278.905 169.715 C 279.233 169.449,279.352 169.231,279.169 169.231 C 278.603 169.231,278.512 168.483,279.020 168.008 C 279.446 167.611,279.479 167.619,279.303 168.077 C 279.193 168.362,279.258 168.691,279.446 168.807 C 279.653 168.935,279.701 168.878,279.568 168.663 C 279.447 168.468,279.518 168.308,279.725 168.308 C 279.933 168.308,280.015 168.220,279.908 168.113 C 279.800 168.005,279.977 167.581,280.301 167.170 C 280.624 166.759,280.814 166.189,280.723 165.903 C 280.621 165.583,280.657 165.514,280.817 165.723 C 281.404 166.488,282.515 166.858,282.413 166.254 C 282.361 165.945,282.454 165.692,282.620 165.692 C 282.787 165.692,282.883 166.006,282.834 166.390 C 282.777 166.834,282.944 167.162,283.295 167.294 C 283.598 167.407,284.017 167.717,284.225 167.981 C 284.560 168.406,284.639 168.408,284.913 168.000 C 285.082 167.746,285.239 167.677,285.262 167.846 C 285.284 168.015,285.320 168.315,285.343 168.512 C 285.398 168.988,287.129 170.465,287.421 170.285 C 287.547 170.207,287.750 170.306,287.872 170.504 C 288.025 170.750,287.958 170.782,287.663 170.604 C 287.295 170.382,287.293 170.421,287.653 170.864 C 287.885 171.150,288.203 171.385,288.358 171.385 C 288.514 171.385,288.809 171.523,289.013 171.692 C 290.204 172.679,290.588 173.043,290.168 172.786 C 289.755 172.534,289.757 172.566,290.180 173.032 C 290.448 173.327,290.968 173.592,291.334 173.619 C 291.750 173.651,292.000 173.876,292.000 174.219 C 292.000 174.522,292.104 174.737,292.231 174.697 C 292.358 174.658,292.848 175.016,293.321 175.494 C 293.794 175.972,294.376 176.288,294.613 176.197 C 294.857 176.104,295.119 176.264,295.215 176.565 C 295.426 177.231,297.124 178.267,297.365 177.877 C 297.463 177.720,297.400 177.520,297.225 177.434 C 297.050 177.348,297.084 177.316,297.300 177.363 C 297.516 177.410,297.655 177.661,297.610 177.920 C 297.534 178.354,297.766 178.473,299.692 178.989 C 301.296 179.419,303.702 178.609,303.206 177.806 C 303.130 177.683,303.381 177.538,303.765 177.484 C 304.437 177.388,304.463 177.267,304.501 174.043 C 304.522 172.205,304.453 170.842,304.347 171.014 C 304.241 171.185,304.138 170.128,304.118 168.663 C 304.021 161.420,304.033 151.678,304.141 150.308 C 304.371 147.396,304.648 142.918,304.760 140.308 C 304.822 138.869,305.033 135.962,305.229 133.846 C 305.425 131.731,305.612 129.377,305.644 128.615 C 305.676 127.854,305.804 127.072,305.927 126.877 C 306.051 126.683,306.130 125.955,306.102 125.261 C 306.075 124.567,306.144 123.908,306.255 123.797 C 306.365 123.686,306.284 123.383,306.074 123.123 C 305.762 122.737,305.770 122.698,306.122 122.910 C 306.464 123.116,306.509 122.999,306.340 122.328 C 306.212 121.818,306.245 121.559,306.424 121.669 C 306.586 121.769,306.826 121.400,306.958 120.849 C 307.089 120.297,307.221 119.742,307.252 119.615 C 307.283 119.488,307.336 119.350,307.370 119.308 C 307.449 119.209,307.671 118.213,307.832 117.231 C 307.901 116.808,307.977 116.462,308.001 116.462 C 308.025 116.462,308.090 115.666,308.145 114.693 C 308.209 113.570,308.134 112.994,307.938 113.115 C 307.765 113.222,307.784 113.020,307.980 112.653 C 308.229 112.188,308.232 112.000,307.993 112.000 C 307.807 112.000,307.736 111.870,307.835 111.711 C 308.075 111.322,306.760 110.123,306.363 110.369 C 306.166 110.490,306.132 110.346,306.272 109.983 C 306.394 109.664,306.399 109.498,306.284 109.614 C 306.168 109.730,305.783 109.622,305.430 109.374 C 304.703 108.865,303.556 108.761,303.846 109.230 M299.048 121.308 C 299.191 121.688,299.205 122.069,299.080 122.154 C 298.769 122.364,298.537 123.252,298.316 125.077 C 298.214 125.923,298.073 126.823,298.002 127.077 C 297.932 127.331,297.797 128.715,297.701 130.154 C 297.606 131.592,297.458 133.738,297.373 134.923 C 296.182 151.423,296.058 153.988,296.127 160.846 C 296.189 167.039,296.129 168.308,295.775 168.308 C 295.540 168.308,295.434 168.169,295.539 167.999 C 295.644 167.830,295.388 167.561,294.971 167.403 C 294.555 167.245,294.114 166.953,293.991 166.755 C 293.827 166.489,293.692 166.504,293.471 166.813 C 293.239 167.138,293.209 167.118,293.335 166.721 C 293.515 166.155,292.545 165.096,292.180 165.461 C 292.053 165.588,291.995 165.485,292.051 165.231 C 292.108 164.977,291.981 164.804,291.769 164.846 C 291.558 164.888,291.419 164.750,291.462 164.538 C 291.504 164.327,291.370 164.187,291.163 164.228 C 290.957 164.268,290.638 164.022,290.455 163.681 C 290.273 163.339,289.970 163.154,289.783 163.270 C 289.586 163.392,289.530 163.340,289.650 163.146 C 289.842 162.834,289.355 162.323,288.856 162.312 C 288.735 162.310,288.382 162.091,288.073 161.826 C 287.764 161.562,287.274 161.254,286.984 161.143 C 286.693 161.031,286.492 160.770,286.536 160.561 C 286.579 160.352,286.445 160.176,286.237 160.168 C 286.028 160.160,285.638 159.840,285.369 159.456 C 285.101 159.073,284.752 158.839,284.594 158.936 C 284.437 159.034,284.308 158.988,284.308 158.834 C 284.308 158.516,281.046 158.544,280.724 158.865 C 280.608 158.982,280.778 159.079,281.103 159.082 C 281.569 159.085,281.602 159.144,281.257 159.362 C 281.018 159.513,280.564 159.588,280.249 159.527 C 279.934 159.466,279.757 159.548,279.856 159.708 C 279.955 159.869,279.900 160.000,279.733 160.000 C 279.346 160.000,278.462 161.757,278.462 162.527 C 278.462 162.849,278.600 163.028,278.769 162.923 C 279.294 162.599,279.108 163.236,278.480 163.909 C 278.152 164.262,277.967 164.634,278.070 164.736 C 278.172 164.839,278.047 164.923,277.791 164.923 C 277.535 164.923,277.062 165.232,276.740 165.610 C 276.160 166.290,276.160 166.293,276.769 165.850 C 277.231 165.515,277.192 165.631,276.615 166.316 C 276.192 166.818,275.741 167.276,275.613 167.333 C 275.485 167.390,275.457 167.560,275.549 167.710 C 275.642 167.859,275.354 168.073,274.910 168.185 C 274.304 168.337,274.141 168.535,274.258 168.980 C 274.392 169.492,274.345 169.518,273.918 169.171 C 273.495 168.828,273.452 168.845,273.619 169.292 C 273.751 169.644,273.685 169.765,273.418 169.663 C 273.200 169.579,272.844 169.724,272.627 169.986 C 272.410 170.248,272.318 170.462,272.422 170.462 C 272.526 170.462,272.314 170.803,271.952 171.220 C 271.589 171.638,271.171 171.904,271.023 171.813 C 270.875 171.721,270.779 171.761,270.810 171.900 C 270.840 172.040,270.714 172.500,270.529 172.923 C 270.344 173.346,270.184 173.496,270.173 173.256 C 270.153 172.807,269.722 173.062,269.654 173.564 C 269.633 173.719,269.598 173.985,269.577 174.154 C 269.556 174.323,269.392 174.462,269.213 174.462 C 269.033 174.462,268.985 174.288,269.104 174.077 C 269.224 173.865,269.024 173.998,268.661 174.372 C 268.297 174.745,268.000 175.112,268.000 175.187 C 268.000 175.307,267.209 176.204,265.219 178.340 C 264.887 178.696,264.615 179.087,264.615 179.208 C 264.615 179.329,264.442 179.611,264.231 179.834 C 263.549 180.552,262.907 181.380,262.909 181.538 C 262.915 181.883,261.932 183.060,261.772 182.901 C 261.678 182.806,261.621 182.980,261.646 183.287 C 261.672 183.595,261.519 183.812,261.308 183.769 C 260.967 183.701,260.769 184.301,260.894 185.023 C 260.918 185.162,260.794 185.187,260.618 185.079 C 260.442 184.970,260.389 184.717,260.502 184.517 C 260.652 184.250,260.608 184.244,260.337 184.493 C 260.134 184.679,259.946 185.129,259.919 185.493 C 259.891 185.856,259.752 186.154,259.609 186.154 C 259.465 186.154,259.447 186.314,259.568 186.509 C 259.705 186.731,259.652 186.781,259.427 186.642 C 259.229 186.519,259.158 186.256,259.269 186.056 C 259.380 185.856,259.253 185.900,258.987 186.154 C 258.720 186.408,258.459 186.819,258.405 187.069 C 258.351 187.318,258.031 187.672,257.692 187.856 C 257.354 188.040,257.095 188.419,257.118 188.698 C 257.140 188.978,257.023 189.177,256.858 189.142 C 256.693 189.106,256.398 189.348,256.202 189.680 C 256.006 190.012,255.527 190.547,255.138 190.869 C 254.748 191.191,254.503 191.529,254.594 191.619 C 254.684 191.710,254.462 192.040,254.101 192.353 C 253.740 192.667,253.569 192.926,253.722 192.930 C 253.875 192.934,253.654 193.223,253.231 193.572 C 252.808 193.921,252.669 194.116,252.923 194.004 C 253.177 193.893,252.969 194.173,252.462 194.627 C 251.954 195.081,251.746 195.341,252.000 195.205 C 252.397 194.994,252.402 195.032,252.042 195.476 C 251.811 195.760,251.500 195.917,251.350 195.825 C 251.118 195.681,250.945 196.295,251.028 196.964 C 251.042 197.071,250.835 197.140,250.569 197.118 C 250.303 197.095,249.928 197.351,249.735 197.685 C 249.542 198.020,249.177 198.480,248.923 198.708 C 248.669 198.936,248.625 199.041,248.825 198.941 C 249.025 198.841,249.277 198.903,249.386 199.080 C 249.495 199.256,249.470 199.380,249.331 199.356 C 248.734 199.252,248.284 199.405,248.440 199.657 C 248.533 199.807,248.333 200.002,247.997 200.090 C 247.640 200.183,247.385 200.510,247.385 200.874 C 247.385 201.227,247.118 201.582,246.769 201.692 C 246.185 201.878,246.004 202.234,246.143 202.923 C 246.177 203.092,246.102 203.128,245.977 203.003 C 245.728 202.753,244.923 203.301,244.923 203.720 C 244.923 203.864,245.165 203.894,245.462 203.787 C 245.758 203.681,245.909 203.696,245.797 203.820 C 245.686 203.944,245.340 204.086,245.028 204.135 C 244.699 204.187,244.499 204.432,244.551 204.722 C 244.604 205.020,244.480 205.164,244.243 205.080 C 244.025 205.003,243.580 205.305,243.255 205.751 C 242.930 206.198,242.817 206.469,243.003 206.353 C 243.190 206.238,243.443 206.319,243.567 206.533 C 243.690 206.748,243.681 206.824,243.547 206.703 C 243.141 206.336,242.154 207.057,242.154 207.721 C 242.154 208.064,242.015 208.258,241.846 208.154 C 241.677 208.049,241.538 208.180,241.538 208.443 C 241.538 208.707,241.323 208.923,241.059 208.923 C 240.795 208.923,240.665 209.062,240.769 209.231 C 240.874 209.400,240.778 209.541,240.557 209.543 C 240.251 209.547,240.244 209.605,240.526 209.785 C 240.793 209.954,240.718 210.134,240.263 210.418 C 239.914 210.636,239.720 210.666,239.832 210.484 C 240.153 209.965,239.813 210.098,239.345 210.674 C 239.058 211.028,239.046 211.121,239.308 210.964 C 239.519 210.837,239.692 210.850,239.692 210.992 C 239.692 211.135,239.270 211.501,238.754 211.806 C 238.015 212.243,237.889 212.450,238.164 212.781 C 238.355 213.012,238.448 213.450,238.369 213.754 C 238.255 214.195,238.218 214.168,238.190 213.625 C 238.165 213.158,238.011 212.997,237.702 213.116 C 237.454 213.211,237.276 213.380,237.308 213.491 C 237.340 213.602,236.851 214.231,236.221 214.889 C 235.592 215.547,235.077 216.274,235.077 216.505 C 235.077 216.735,234.930 216.923,234.751 216.923 C 234.572 216.923,234.524 217.083,234.645 217.278 C 234.781 217.499,234.729 217.550,234.507 217.413 C 234.300 217.285,234.062 217.427,233.941 217.750 C 233.827 218.057,233.481 218.489,233.174 218.710 C 232.867 218.931,232.615 219.312,232.615 219.556 C 232.615 219.800,232.480 220.000,232.316 220.000 C 231.929 220.000,231.040 221.707,231.294 221.961 C 231.400 222.067,231.187 222.154,230.821 222.154 C 230.422 222.154,230.154 222.347,230.154 222.634 C 230.154 222.932,230.299 223.028,230.538 222.888 C 230.750 222.765,230.659 222.965,230.335 223.334 C 230.012 223.702,229.670 223.926,229.575 223.831 C 229.480 223.736,229.606 223.530,229.855 223.373 C 230.104 223.215,230.151 223.084,229.958 223.082 C 229.559 223.076,228.513 224.559,228.513 225.131 C 228.513 225.340,228.407 225.446,228.279 225.367 C 228.150 225.287,227.955 225.503,227.846 225.846 C 227.728 226.219,227.502 226.383,227.286 226.253 C 227.086 226.134,227.120 226.278,227.360 226.574 C 227.600 226.870,227.669 227.087,227.514 227.058 C 226.898 226.941,226.462 227.094,226.462 227.428 C 226.462 227.620,226.219 227.977,225.923 228.220 C 225.571 228.508,225.544 228.592,225.846 228.462 C 226.100 228.352,225.927 228.561,225.462 228.926 C 224.996 229.291,224.615 229.786,224.615 230.026 C 224.615 230.265,224.462 230.462,224.275 230.462 C 224.087 230.462,224.014 230.669,224.111 230.923 C 224.221 231.209,224.110 231.385,223.818 231.385 C 223.560 231.385,223.434 231.523,223.538 231.692 C 223.643 231.862,223.565 232.000,223.365 232.000 C 223.109 232.000,223.126 232.153,223.424 232.521 C 223.740 232.910,223.746 232.981,223.447 232.801 C 222.969 232.514,221.724 233.672,221.402 234.703 C 221.281 235.089,220.882 235.698,220.514 236.056 C 220.147 236.413,220.019 236.608,220.231 236.489 C 220.877 236.124,220.659 236.791,219.928 237.414 C 219.248 237.994,219.246 237.994,219.698 237.385 C 220.120 236.815,220.114 236.800,219.615 237.192 C 219.319 237.424,219.077 237.746,219.077 237.907 C 219.077 238.069,218.634 238.641,218.093 239.178 C 217.552 239.714,217.231 239.954,217.380 239.709 C 217.528 239.464,217.212 239.575,216.677 239.956 C 215.469 240.816,211.813 240.863,211.153 240.027 C 210.815 239.598,210.793 239.611,210.976 240.130 C 211.181 240.714,211.176 240.714,210.564 240.130 C 210.223 239.805,210.014 239.411,210.099 239.255 C 210.187 239.095,210.003 239.069,209.675 239.195 C 209.356 239.317,209.184 239.329,209.292 239.221 C 209.560 238.953,208.297 237.538,207.791 237.538 C 207.567 237.538,207.385 237.392,207.385 237.213 C 207.385 237.033,207.225 236.986,207.029 237.106 C 206.823 237.234,206.757 237.192,206.873 237.004 C 206.982 236.827,206.710 236.445,206.267 236.156 C 205.825 235.866,205.549 235.768,205.655 235.939 C 205.771 236.128,205.594 236.184,205.205 236.082 C 204.723 235.956,204.665 235.852,204.971 235.662 C 205.471 235.354,204.992 234.776,204.117 234.630 C 203.799 234.577,203.573 234.379,203.615 234.190 C 203.658 234.001,203.534 233.846,203.342 233.846 C 203.149 233.846,202.792 233.604,202.550 233.308 C 202.307 233.012,202.182 232.919,202.271 233.103 C 202.361 233.286,202.246 233.436,202.016 233.436 C 201.786 233.436,201.663 233.265,201.743 233.056 C 201.823 232.847,201.524 232.420,201.078 232.107 C 200.632 231.794,199.830 231.158,199.296 230.692 C 198.762 230.227,198.139 229.846,197.913 229.846 C 197.687 229.846,197.588 229.708,197.692 229.538 C 197.797 229.369,197.658 229.231,197.385 229.231 C 197.111 229.231,196.975 229.088,197.083 228.913 C 197.204 228.717,197.003 228.642,196.563 228.717 C 196.055 228.804,195.638 228.583,195.130 227.958 C 194.737 227.474,194.552 227.077,194.720 227.077 C 194.888 227.077,195.095 227.250,195.181 227.462 C 195.266 227.673,195.347 227.699,195.360 227.519 C 195.394 227.062,193.590 225.778,193.228 226.002 C 193.054 226.109,193.015 225.964,193.134 225.655 C 193.288 225.253,193.216 225.170,192.838 225.316 C 192.498 225.446,192.390 225.374,192.499 225.089 C 192.593 224.846,192.392 224.586,192.022 224.469 C 191.672 224.357,191.385 224.137,191.385 223.979 C 191.385 223.821,191.192 223.692,190.956 223.692 C 190.720 223.692,190.444 223.476,190.343 223.211 C 190.239 222.942,190.001 222.827,189.801 222.951 C 189.594 223.079,189.526 223.038,189.639 222.856 C 189.747 222.681,189.471 222.279,189.027 221.962 C 188.583 221.644,187.937 221.073,187.593 220.692 C 187.248 220.312,186.817 220.000,186.636 220.000 C 186.454 220.000,185.689 219.314,184.936 218.476 C 183.944 217.372,183.463 217.038,183.192 217.263 C 182.912 217.495,182.860 217.411,182.987 216.928 C 183.080 216.572,183.034 216.304,182.885 216.331 C 182.167 216.463,181.795 216.269,181.957 215.846 C 182.117 215.431,181.649 215.221,180.846 215.348 C 180.719 215.368,180.615 215.085,180.615 214.718 C 180.615 214.351,180.524 214.142,180.413 214.254 C 180.302 214.365,180.025 214.302,179.798 214.114 C 179.570 213.925,179.385 213.874,179.385 214.000 C 179.385 214.126,179.194 214.071,178.961 213.877 C 178.475 213.474,177.308 213.813,176.542 214.579 C 176.280 214.841,175.878 215.095,175.648 215.143 C 175.419 215.191,175.092 215.464,174.923 215.748 C 174.754 216.033,174.132 216.592,173.541 216.990 C 172.949 217.388,172.419 217.956,172.362 218.252 C 172.258 218.790,170.916 220.308,170.544 220.308 C 170.435 220.308,170.753 219.858,171.250 219.308 L 172.154 218.308 171.165 219.201 C 170.621 219.692,170.235 220.189,170.307 220.306 C 170.379 220.422,170.024 220.823,169.518 221.197 C 169.012 221.571,168.671 221.994,168.759 222.137 C 168.847 222.280,168.704 222.480,168.440 222.581 C 168.172 222.684,168.058 222.922,168.182 223.122 C 168.311 223.331,168.269 223.397,168.082 223.282 C 167.745 223.073,167.022 223.749,167.103 224.198 C 167.218 224.840,167.002 225.986,166.865 225.462 C 166.647 224.629,164.615 226.116,164.615 227.109 C 164.615 227.260,164.454 227.385,164.256 227.385 C 164.059 227.385,163.989 227.476,164.101 227.588 C 164.213 227.700,163.996 227.945,163.620 228.132 C 163.243 228.320,162.767 228.811,162.562 229.222 C 162.357 229.634,161.869 230.217,161.479 230.517 C 161.089 230.818,160.859 231.066,160.969 231.070 C 161.078 231.074,160.223 232.060,159.067 233.262 C 157.665 234.721,157.028 235.608,157.151 235.928 C 157.259 236.210,157.207 236.329,157.024 236.216 C 156.853 236.111,156.248 236.503,155.681 237.089 C 155.113 237.675,154.780 238.155,154.940 238.155 C 155.100 238.156,154.815 238.512,154.308 238.947 C 153.800 239.381,153.592 239.641,153.846 239.524 C 154.100 239.407,153.717 239.852,152.996 240.513 C 151.932 241.488,151.757 241.790,152.073 242.115 C 152.389 242.440,152.319 242.496,151.692 242.411 C 151.104 242.332,150.944 242.433,151.012 242.839 C 151.142 243.621,150.235 244.836,149.356 245.057 C 148.935 245.162,148.679 245.393,148.788 245.568 C 148.896 245.744,148.694 245.964,148.339 246.057 C 147.983 246.150,147.692 246.401,147.692 246.616 C 147.692 246.831,147.342 247.236,146.913 247.517 C 146.485 247.797,146.203 248.139,146.288 248.276 C 146.373 248.413,145.970 248.918,145.393 249.399 C 144.428 250.204,144.175 251.021,145.021 250.598 C 145.221 250.498,145.144 250.613,144.851 250.854 C 144.557 251.095,144.388 251.362,144.474 251.448 C 144.560 251.535,143.970 252.135,143.162 252.781 C 140.856 254.627,139.433 256.082,139.057 256.979 C 138.814 257.562,138.562 257.749,138.202 257.614 C 137.759 257.448,137.747 257.491,138.115 257.942 C 138.347 258.228,138.485 258.472,138.422 258.485 C 138.359 258.498,138.044 258.558,137.721 258.619 C 137.398 258.679,136.844 259.034,136.490 259.407 C 136.136 259.780,136.018 259.989,136.227 259.873 C 137.060 259.409,136.228 260.492,135.292 261.091 C 134.675 261.485,134.316 261.961,134.329 262.367 C 134.341 262.737,134.197 262.956,133.993 262.878 C 133.485 262.683,132.846 263.561,132.846 264.457 C 132.846 265.302,132.202 266.008,131.709 265.703 C 131.524 265.588,131.464 265.695,131.566 265.960 C 131.683 266.266,131.507 266.445,131.024 266.514 C 130.480 266.591,130.311 266.807,130.323 267.410 C 130.331 267.851,130.166 268.205,129.952 268.205 C 129.739 268.205,129.655 268.055,129.765 267.872 C 129.875 267.688,129.730 267.728,129.444 267.961 C 129.157 268.193,128.923 268.643,128.923 268.961 C 128.923 269.278,128.756 269.504,128.552 269.462 C 128.197 269.388,128.123 269.557,128.038 270.648 C 128.016 270.934,127.821 271.074,127.577 270.981 C 127.335 270.887,126.985 271.135,126.756 271.563 C 126.537 271.973,126.234 272.308,126.084 272.308 C 125.933 272.308,125.890 272.438,125.988 272.596 C 126.086 272.755,125.977 272.998,125.746 273.135 C 125.514 273.272,124.930 274.008,124.447 274.769 C 123.965 275.531,123.286 276.408,122.939 276.719 C 122.592 277.030,122.481 277.195,122.692 277.085 C 122.904 276.976,123.077 277.033,123.077 277.213 C 123.077 277.392,122.904 277.550,122.692 277.563 C 122.481 277.577,121.892 277.621,121.385 277.661 C 120.877 277.700,120.018 277.636,119.475 277.517 C 118.842 277.379,118.438 277.427,118.346 277.651 C 118.267 277.843,118.191 277.762,118.178 277.470 C 118.150 276.864,116.620 276.344,115.298 276.493 C 114.827 276.545,114.514 276.471,114.603 276.328 C 114.828 275.964,113.304 275.723,109.569 275.529 C 107.809 275.438,106.277 275.307,106.163 275.237 C 106.050 275.167,104.592 275.084,102.923 275.053 C 100.614 275.010,99.994 274.914,100.329 274.651 C 100.571 274.461,100.811 274.098,100.863 273.845 C 100.915 273.592,101.152 273.234,101.391 273.051 C 101.733 272.788,101.745 272.631,101.451 272.313 C 101.157 271.996,101.159 271.956,101.462 272.127 C 101.673 272.246,101.846 272.189,101.846 272.000 C 101.846 271.811,101.977 271.737,102.138 271.836 C 102.298 271.935,102.377 271.744,102.313 271.411 C 102.231 270.988,102.328 270.855,102.632 270.972 C 102.899 271.074,103.181 270.858,103.357 270.416 C 103.516 270.018,104.277 269.000,105.049 268.154 C 105.821 267.308,106.454 266.507,106.457 266.375 C 106.459 266.243,106.942 265.713,107.530 265.197 C 108.118 264.681,108.568 264.149,108.530 264.016 C 108.492 263.883,108.808 263.468,109.231 263.094 C 109.654 262.720,109.792 262.503,109.538 262.612 C 109.285 262.720,109.889 262.056,110.881 261.136 C 112.409 259.719,113.019 258.156,111.576 259.353 C 111.285 259.595,111.179 259.570,111.179 259.260 C 111.179 258.984,111.492 258.859,112.084 258.900 C 112.762 258.947,113.068 258.787,113.308 258.260 C 113.484 257.874,113.740 257.627,113.876 257.711 C 114.137 257.872,114.946 256.624,114.835 256.231 C 114.799 256.104,114.943 256.000,115.156 256.000 C 115.368 256.000,115.722 255.593,115.942 255.096 C 116.162 254.599,116.577 254.147,116.863 254.092 C 117.149 254.037,117.384 253.753,117.384 253.461 C 117.384 253.169,117.499 252.939,117.639 252.949 C 118.220 252.994,119.991 250.795,119.814 250.249 C 119.690 249.863,119.720 249.812,119.914 250.080 C 120.127 250.375,120.368 250.283,120.920 249.696 C 121.319 249.271,121.548 248.923,121.428 248.923 C 121.308 248.923,121.695 248.497,122.289 247.975 C 122.882 247.454,123.355 246.935,123.340 246.821 C 123.264 246.268,123.415 245.846,123.689 245.846 C 124.146 245.846,125.231 244.839,125.231 244.414 C 125.231 244.209,125.648 243.745,126.157 243.382 C 126.667 243.019,127.014 242.609,126.928 242.470 C 126.843 242.332,126.988 242.136,127.252 242.034 C 127.516 241.933,127.645 241.711,127.540 241.541 C 127.434 241.370,127.547 241.231,127.790 241.231 C 128.033 241.231,128.405 241.023,128.615 240.769 C 128.880 240.450,128.892 240.308,128.653 240.308 C 128.463 240.308,128.308 240.469,128.308 240.667 C 128.308 240.864,128.235 240.953,128.147 240.865 C 127.751 240.469,128.383 239.770,128.991 239.929 C 129.429 240.043,129.564 239.983,129.415 239.741 C 129.294 239.545,129.349 239.385,129.538 239.385 C 129.728 239.385,129.795 239.243,129.688 239.069 C 129.580 238.896,129.625 238.792,129.786 238.839 C 129.948 238.885,130.443 238.535,130.886 238.061 C 131.710 237.180,131.935 236.737,131.385 237.077 C 131.215 237.182,131.077 237.120,131.077 236.941 C 131.077 236.645,131.496 236.490,132.066 236.575 C 132.187 236.593,132.199 236.367,132.094 236.073 C 131.988 235.779,132.014 235.640,132.152 235.765 C 132.289 235.890,132.706 235.580,133.077 235.077 C 133.448 234.574,133.834 234.245,133.935 234.345 C 134.036 234.446,134.615 233.752,135.223 232.803 C 135.830 231.854,136.409 231.077,136.509 231.077 C 136.609 231.077,136.501 231.319,136.268 231.615 C 135.886 232.103,135.897 232.114,136.385 231.732 C 136.681 231.499,136.923 231.119,136.923 230.885 C 136.923 230.652,137.070 230.462,137.249 230.462 C 137.428 230.462,137.489 230.323,137.385 230.154 C 137.280 229.985,137.356 229.846,137.553 229.846 C 137.759 229.846,137.830 229.631,137.718 229.341 C 137.549 228.900,137.591 228.890,138.052 229.264 C 138.407 229.552,138.504 229.566,138.347 229.306 C 138.209 229.075,138.305 228.846,138.584 228.739 C 138.842 228.640,139.138 228.292,139.241 227.967 C 139.344 227.642,139.561 227.457,139.722 227.557 C 139.884 227.657,140.169 227.299,140.356 226.763 C 140.605 226.048,140.767 225.898,140.959 226.201 C 141.167 226.529,141.222 226.532,141.226 226.216 C 141.229 225.996,141.591 225.483,142.032 225.074 C 142.472 224.666,142.853 223.991,142.878 223.574 C 142.912 223.006,143.139 222.772,143.782 222.644 C 144.374 222.525,144.776 222.160,145.078 221.467 C 145.318 220.914,145.520 220.590,145.526 220.746 C 145.542 221.118,147.077 219.676,147.077 219.289 C 147.077 219.127,147.430 218.666,147.862 218.266 C 148.296 217.864,148.468 217.538,148.247 217.536 C 148.026 217.535,148.262 217.259,148.769 216.923 C 149.277 216.587,149.554 216.302,149.385 216.290 C 149.215 216.278,149.403 216.138,149.802 215.978 C 150.382 215.746,150.489 215.535,150.335 214.921 C 150.219 214.459,150.274 214.154,150.474 214.154 C 150.656 214.154,150.718 214.327,150.611 214.538 C 150.504 214.750,150.613 214.683,150.854 214.389 C 151.095 214.096,151.404 213.957,151.541 214.082 C 151.679 214.206,151.694 214.140,151.577 213.934 C 151.365 213.565,151.962 212.834,153.104 212.065 C 153.428 211.848,153.485 211.770,153.231 211.894 C 152.835 212.086,152.829 212.045,153.189 211.601 C 153.419 211.316,153.734 211.162,153.889 211.257 C 154.043 211.352,154.149 211.316,154.125 211.177 C 154.022 210.581,154.174 210.130,154.426 210.286 C 154.575 210.378,154.865 210.049,155.070 209.555 C 155.334 208.918,155.590 208.710,155.952 208.839 C 156.232 208.939,156.359 208.909,156.235 208.771 C 156.110 208.633,156.420 208.127,156.924 207.645 C 157.428 207.163,157.738 206.765,157.613 206.759 C 157.487 206.754,157.594 206.581,157.850 206.375 C 158.106 206.169,158.487 205.611,158.697 205.136 C 158.908 204.662,159.202 204.349,159.351 204.441 C 159.715 204.666,160.363 203.857,160.074 203.538 C 159.949 203.399,160.011 203.380,160.212 203.495 C 160.423 203.616,160.813 203.361,161.135 202.891 C 161.441 202.444,162.062 201.714,162.514 201.270 C 163.756 200.047,165.564 197.213,165.337 196.845 C 165.218 196.653,165.283 196.611,165.496 196.743 C 165.694 196.865,165.758 197.129,165.638 197.329 C 165.514 197.536,165.644 197.511,165.941 197.270 C 166.227 197.038,166.462 196.690,166.462 196.498 C 166.462 196.305,166.744 195.972,167.089 195.756 C 167.434 195.541,167.643 195.246,167.553 195.101 C 167.464 194.956,167.875 194.468,168.466 194.017 C 169.325 193.362,169.483 193.087,169.251 192.653 C 168.989 192.164,169.122 192.112,170.557 192.132 C 171.882 192.150,172.183 192.259,172.323 192.769 C 172.432 193.166,172.735 193.371,173.174 193.347 C 173.638 193.322,173.829 193.467,173.774 193.802 C 173.729 194.073,173.831 194.309,174.000 194.327 C 174.808 194.412,176.016 195.111,175.842 195.392 C 175.734 195.565,175.761 195.682,175.900 195.651 C 176.384 195.543,177.226 196.066,177.044 196.361 C 176.944 196.524,177.152 196.733,177.508 196.826 C 177.863 196.919,178.154 197.140,178.154 197.318 C 178.154 197.496,178.245 197.550,178.357 197.438 C 178.469 197.326,178.755 197.513,178.993 197.853 C 179.232 198.193,179.556 198.392,179.713 198.295 C 179.871 198.197,180.000 198.272,180.000 198.462 C 180.000 198.651,180.160 198.707,180.355 198.586 C 180.562 198.459,180.627 198.501,180.512 198.687 C 180.404 198.863,180.547 199.196,180.832 199.427 C 181.276 199.787,181.316 199.781,181.113 199.385 C 180.984 199.131,181.095 199.192,181.362 199.520 C 181.628 199.849,181.849 199.987,181.853 199.828 C 181.857 199.669,182.146 199.885,182.495 200.308 C 182.844 200.731,183.039 200.869,182.928 200.615 C 182.816 200.362,183.051 200.535,183.451 201.000 C 183.850 201.465,184.345 201.846,184.550 201.846 C 184.755 201.846,184.923 201.980,184.923 202.144 C 184.923 202.308,185.132 202.362,185.388 202.264 C 185.693 202.147,185.801 202.230,185.702 202.504 C 185.612 202.757,186.056 203.229,186.820 203.692 C 187.517 204.115,188.295 204.664,188.548 204.911 C 188.802 205.159,189.222 205.392,189.482 205.431 C 189.741 205.469,190.069 205.705,190.210 205.957 C 190.350 206.208,190.880 206.505,191.386 206.616 C 191.894 206.727,192.308 207.019,192.308 207.265 C 192.308 207.511,192.550 207.801,192.846 207.910 C 193.142 208.020,193.454 208.194,193.538 208.299 C 193.964 208.824,196.144 209.857,196.522 209.712 C 196.760 209.620,196.879 209.668,196.787 209.817 C 196.601 210.119,197.483 210.592,198.061 210.500 C 198.264 210.468,198.570 210.705,198.742 211.026 C 198.914 211.348,199.487 211.697,200.015 211.803 C 200.543 211.909,201.344 212.253,201.795 212.569 C 202.246 212.885,202.985 213.125,203.438 213.101 C 203.890 213.078,204.211 213.139,204.150 213.237 C 204.089 213.335,204.322 213.592,204.667 213.807 C 205.037 214.038,205.209 214.060,205.086 213.861 C 204.971 213.675,205.347 213.787,205.921 214.110 C 207.218 214.838,208.151 215.038,211.077 215.214 C 212.570 215.304,213.167 215.257,212.769 215.080 C 212.322 214.881,212.527 214.833,213.522 214.904 C 214.964 215.008,216.615 214.592,216.615 214.124 C 216.615 213.971,216.719 213.881,216.846 213.923 C 216.973 213.965,217.107 213.891,217.143 213.758 C 217.273 213.282,218.119 212.615,218.593 212.615 C 218.859 212.615,219.077 212.408,219.077 212.154 C 219.077 211.900,219.232 211.692,219.420 211.692 C 219.619 211.692,219.703 211.374,219.620 210.938 C 219.541 210.524,219.559 210.205,219.661 210.230 C 220.458 210.427,221.546 209.473,221.680 208.462 C 221.702 208.292,221.887 208.188,222.091 208.231 C 222.295 208.273,222.462 208.115,222.462 207.879 C 222.462 207.643,222.667 207.372,222.918 207.275 C 223.169 207.179,223.300 206.908,223.210 206.673 C 223.116 206.428,223.386 206.022,223.841 205.724 C 224.277 205.438,224.553 205.071,224.453 204.910 C 224.353 204.748,224.426 204.615,224.615 204.615 C 224.805 204.615,224.872 204.473,224.765 204.300 C 224.657 204.127,224.753 204.023,224.977 204.069 C 225.201 204.116,225.350 203.981,225.308 203.769 C 225.265 203.558,225.373 203.385,225.546 203.385 C 225.867 203.385,226.606 201.894,226.506 201.447 C 226.476 201.312,226.631 201.243,226.850 201.293 C 227.070 201.343,227.245 201.246,227.240 201.077 C 227.235 200.908,227.117 200.807,226.977 200.854 C 226.838 200.900,226.813 200.794,226.921 200.618 C 227.030 200.442,227.233 200.368,227.371 200.453 C 227.509 200.539,227.794 200.402,228.003 200.150 C 228.308 199.783,228.300 199.685,227.961 199.656 C 227.728 199.636,227.954 199.524,228.462 199.408 C 228.969 199.292,229.352 199.036,229.311 198.839 C 229.271 198.643,229.721 198.097,230.311 197.626 C 230.902 197.155,231.388 196.631,231.393 196.462 C 231.398 196.292,231.809 195.754,232.308 195.265 C 232.806 194.776,233.127 194.235,233.021 194.063 C 232.915 193.892,232.963 193.835,233.128 193.937 C 233.456 194.139,234.225 193.369,234.556 192.505 C 234.671 192.206,234.904 192.047,235.075 192.153 C 235.349 192.322,235.430 192.140,235.365 191.500 C 235.355 191.394,235.666 191.147,236.058 190.952 C 236.449 190.757,236.769 190.448,236.769 190.267 C 236.769 190.085,237.219 189.557,237.769 189.094 C 238.319 188.632,238.769 188.053,238.769 187.809 C 238.769 187.565,238.977 187.286,239.231 187.188 C 239.485 187.091,239.692 186.834,239.692 186.618 C 239.692 186.402,240.043 185.995,240.471 185.714 C 240.903 185.431,241.156 185.052,241.039 184.862 C 240.912 184.656,240.968 184.607,241.182 184.739 C 241.393 184.870,241.680 184.641,241.894 184.171 C 242.091 183.739,242.365 183.385,242.501 183.385 C 242.638 183.385,242.675 183.189,242.583 182.951 C 242.484 182.692,242.668 182.438,243.039 182.320 C 243.381 182.211,243.746 181.853,243.851 181.523 C 243.956 181.193,244.205 180.921,244.405 180.918 C 244.640 180.915,244.618 180.818,244.344 180.644 C 244.010 180.433,244.059 180.330,244.575 180.167 C 245.178 179.975,245.374 179.635,245.260 178.977 C 245.235 178.838,245.342 178.801,245.496 178.897 C 245.650 178.992,245.919 178.899,246.093 178.689 C 246.422 178.292,246.462 178.152,246.462 177.385 C 246.462 177.131,246.608 176.923,246.787 176.923 C 246.967 176.923,247.014 177.083,246.894 177.278 C 246.758 177.498,246.809 177.550,247.029 177.414 C 247.225 177.293,247.385 176.995,247.385 176.751 C 247.385 176.507,247.527 176.308,247.702 176.308 C 247.877 176.308,248.107 176.065,248.215 175.769 C 248.322 175.473,248.877 174.706,249.446 174.064 C 250.016 173.423,250.400 172.765,250.300 172.603 C 250.200 172.441,250.333 172.308,250.597 172.308 C 250.861 172.308,251.077 172.100,251.077 171.846 C 251.077 171.592,251.220 171.385,251.394 171.385 C 251.569 171.385,251.803 171.142,251.916 170.846 C 252.028 170.550,252.302 170.123,252.524 169.898 C 252.747 169.673,252.848 169.358,252.749 169.198 C 252.650 169.039,252.750 168.946,252.970 168.992 C 253.190 169.039,253.417 168.767,253.475 168.387 C 253.533 168.008,253.883 167.486,254.252 167.228 C 254.621 166.969,254.914 166.656,254.902 166.533 C 254.891 166.409,255.208 166.051,255.606 165.738 C 256.121 165.333,256.276 164.978,256.145 164.508 C 255.998 163.983,256.027 163.942,256.283 164.308 C 256.592 164.749,256.644 164.712,256.731 163.989 C 256.752 163.813,256.977 163.539,257.231 163.378 C 257.537 163.184,257.563 163.085,257.308 163.082 C 257.096 163.079,256.923 162.915,256.923 162.718 C 256.923 162.521,257.007 162.443,257.110 162.546 C 257.321 162.757,258.595 161.658,258.654 161.213 C 258.675 161.054,258.710 160.785,258.731 160.615 C 258.752 160.446,259.012 160.306,259.308 160.303 C 259.768 160.299,259.779 160.255,259.385 160.000 C 258.998 159.750,259.019 159.701,259.513 159.697 C 259.837 159.694,260.011 159.601,259.900 159.490 C 259.789 159.378,259.817 159.136,259.963 158.951 C 260.108 158.767,260.395 158.096,260.599 157.462 C 260.804 156.827,261.099 156.308,261.255 156.308 C 261.411 156.308,261.538 156.128,261.538 155.908 C 261.538 155.688,261.701 155.345,261.900 155.146 C 262.361 154.685,263.344 150.945,263.367 149.563 C 263.386 148.409,262.666 147.385,261.836 147.385 C 261.545 147.385,261.134 147.177,260.923 146.923 C 260.712 146.669,260.398 146.462,260.224 146.462 C 260.051 146.462,259.152 145.838,258.227 145.077 C 257.302 144.315,256.354 143.692,256.121 143.692 C 255.888 143.692,255.337 143.289,254.898 142.795 C 254.458 142.301,253.705 141.735,253.225 141.536 C 252.745 141.337,252.274 140.972,252.179 140.725 C 252.083 140.473,252.141 140.358,252.311 140.464 C 252.594 140.638,252.754 140.205,252.639 139.578 C 252.612 139.430,252.804 139.391,253.064 139.491 C 253.356 139.603,253.538 139.503,253.538 139.231 C 253.538 138.945,253.719 138.858,254.050 138.985 C 254.407 139.122,254.491 139.066,254.327 138.801 C 254.182 138.565,254.250 138.442,254.508 138.477 C 255.846 138.661,257.965 138.429,257.538 138.145 C 257.192 137.915,257.347 137.853,258.154 137.896 C 259.298 137.957,261.407 137.378,262.124 136.806 C 262.362 136.617,262.604 136.496,262.663 136.538 C 263.033 136.806,263.390 136.516,263.420 135.923 C 263.451 135.336,263.479 135.320,263.605 135.814 C 263.709 136.220,263.825 136.284,263.985 136.024 C 264.199 135.677,264.822 135.465,265.787 135.408 C 266.009 135.395,266.105 135.246,266.000 135.077 C 265.895 134.908,265.922 134.759,266.059 134.746 C 266.673 134.688,267.474 134.490,267.947 134.281 C 268.230 134.156,268.600 134.035,268.769 134.013 C 268.938 133.990,269.034 133.782,268.983 133.549 C 268.911 133.226,268.987 133.208,269.306 133.474 C 269.758 133.848,271.077 133.640,271.077 133.195 C 271.077 133.045,271.415 132.923,271.828 132.923 C 272.675 132.923,273.128 132.453,272.540 132.183 C 272.328 132.085,272.483 132.088,272.885 132.190 C 273.287 132.291,273.540 132.251,273.447 132.101 C 273.354 131.951,273.648 131.846,274.101 131.869 C 275.124 131.920,275.738 131.708,275.532 131.374 C 275.445 131.234,275.537 131.019,275.735 130.897 C 275.971 130.751,276.012 130.808,275.855 131.062 C 275.500 131.638,276.829 131.183,278.190 130.263 C 278.802 129.850,279.425 129.534,279.575 129.561 C 280.185 129.674,280.641 129.521,280.479 129.259 C 280.384 129.106,280.552 129.045,280.852 129.123 C 281.156 129.203,281.974 128.849,282.699 128.323 C 283.454 127.776,284.002 127.543,284.005 127.767 C 284.008 128.059,284.073 128.053,284.270 127.743 C 284.413 127.517,284.619 127.344,284.727 127.358 C 285.324 127.438,285.556 127.354,285.406 127.112 C 285.225 126.819,286.148 126.447,287.370 126.320 C 287.785 126.277,288.177 126.083,288.242 125.888 C 288.307 125.694,288.466 125.600,288.596 125.681 C 288.726 125.761,289.095 125.613,289.416 125.352 C 289.737 125.091,289.806 124.978,289.568 125.102 C 289.281 125.250,289.211 125.204,289.358 124.966 C 289.481 124.767,289.700 124.679,289.844 124.768 C 290.153 124.959,291.506 124.414,292.650 123.639 C 293.092 123.340,293.542 123.183,293.650 123.291 C 293.758 123.399,293.846 123.326,293.846 123.128 C 293.846 122.931,294.058 122.769,294.317 122.769 C 294.577 122.769,294.865 122.570,294.958 122.327 C 295.052 122.084,295.324 121.960,295.564 122.052 C 295.804 122.144,296.000 122.058,296.000 121.861 C 296.000 121.664,296.127 121.581,296.283 121.677 C 296.438 121.773,296.752 121.665,296.981 121.437 C 297.385 121.033,298.061 120.689,298.548 120.640 C 298.681 120.626,298.906 120.927,299.048 121.308 M249.959 173.073 C 249.827 173.417,249.705 173.431,249.391 173.140 C 249.111 172.881,249.092 172.706,249.327 172.559 C 249.801 172.262,250.158 172.553,249.959 173.073 M179.433 222.614 C 179.372 223.375,179.198 223.921,179.045 223.826 C 178.689 223.607,179.089 221.231,179.482 221.231 C 179.515 221.231,179.493 221.853,179.433 222.614 M130.124 228.118 C 130.397 228.447,130.367 228.586,129.992 228.730 C 129.712 228.837,129.586 228.787,129.694 228.612 C 129.798 228.445,129.736 228.308,129.557 228.308 C 129.377 228.308,129.231 228.169,129.231 228.000 C 129.231 227.558,129.712 227.621,130.124 228.118 M100.700 262.564 C 100.625 262.959,100.367 263.282,100.128 263.282 C 99.572 263.282,99.580 263.215,100.222 262.465 C 100.879 261.698,100.867 261.696,100.700 262.564 " stroke="none" fill="#446388" fill-rule="evenodd"></path><path id="path1" d="M304.708 174.154 C 304.708 175.085,304.765 175.465,304.836 175.000 C 304.906 174.535,304.906 173.773,304.836 173.308 C 304.765 172.842,304.708 173.223,304.708 174.154 M172.134 217.923 L 171.231 218.923 172.231 218.019 C 173.163 217.177,173.372 216.923,173.134 216.923 C 173.082 216.923,172.632 217.373,172.134 217.923 M177.515 224.538 L 176.769 225.385 177.692 224.615 C 178.200 224.192,178.673 223.812,178.744 223.769 C 178.814 223.727,178.734 223.692,178.566 223.692 C 178.399 223.692,177.925 224.073,177.515 224.538 M148.599 245.154 L 147.538 246.308 148.692 245.247 C 149.766 244.260,149.988 244.000,149.753 244.000 C 149.701 244.000,149.182 244.519,148.599 245.154 " stroke="none" fill="#8a9bb2" fill-rule="evenodd"></path><path id="path2" d="M257.059 130.298 C 256.552 130.681,256.538 130.751,256.967 130.759 C 257.245 130.765,257.552 130.562,257.650 130.308 C 257.870 129.734,257.805 129.733,257.059 130.298 M254.769 131.251 L 253.692 131.687 254.769 131.485 C 255.362 131.374,256.121 131.300,256.458 131.320 C 256.955 131.350,256.983 131.303,256.612 131.068 C 256.057 130.717,256.101 130.713,254.769 131.251 M252.284 132.203 L 251.538 133.021 252.538 132.299 C 253.579 131.548,253.712 131.385,253.284 131.385 C 253.145 131.385,252.695 131.753,252.284 132.203 M255.293 138.801 C 255.537 139.044,255.794 139.047,256.201 138.810 C 256.699 138.521,256.657 138.479,255.862 138.471 C 255.200 138.464,255.046 138.553,255.293 138.801 M254.077 138.981 C 253.781 139.059,253.538 139.237,253.538 139.378 C 253.538 139.519,253.815 139.562,254.154 139.474 C 254.492 139.385,254.769 139.191,254.769 139.041 C 254.769 138.892,254.735 138.785,254.692 138.805 C 254.650 138.825,254.373 138.904,254.077 138.981 M252.648 140.246 C 252.374 140.758,254.862 142.779,255.267 142.374 C 255.331 142.310,255.038 142.072,254.615 141.846 C 254.192 141.620,253.846 141.319,253.846 141.179 C 253.846 141.038,253.622 140.923,253.349 140.923 C 253.003 140.923,252.900 140.736,253.012 140.308 C 253.212 139.543,253.040 139.514,252.648 140.246 M256.168 143.361 C 256.056 143.543,256.110 143.692,256.289 143.692 C 256.467 143.692,257.460 144.315,258.495 145.077 C 259.529 145.838,260.531 146.462,260.722 146.462 C 260.913 146.462,260.309 145.958,259.381 145.343 C 258.452 144.727,257.395 143.955,257.032 143.627 C 256.602 143.238,256.301 143.146,256.168 143.361 M263.516 149.231 C 263.516 149.569,263.695 149.846,263.912 149.846 C 264.130 149.846,264.308 149.993,264.308 150.172 C 264.308 150.351,264.146 150.398,263.948 150.275 C 263.700 150.122,263.654 150.226,263.801 150.608 C 263.945 150.984,263.813 151.304,263.392 151.599 C 263.049 151.839,262.771 152.200,262.774 152.402 C 262.777 152.629,262.903 152.593,263.105 152.308 C 263.389 151.907,263.455 151.905,263.609 152.294 C 263.716 152.566,263.945 152.206,264.189 151.377 C 264.534 150.211,264.526 149.909,264.135 149.313 C 263.576 148.459,263.516 148.452,263.516 149.231 M262.841 153.615 C 262.653 153.996,262.412 154.621,262.305 155.004 C 262.197 155.388,261.981 155.622,261.824 155.525 C 261.667 155.428,261.538 155.487,261.538 155.656 C 261.538 156.354,262.087 156.230,262.444 155.451 C 262.654 154.991,263.015 154.235,263.245 153.769 C 263.475 153.304,263.555 152.923,263.422 152.923 C 263.290 152.923,263.028 153.235,262.841 153.615 M252.923 159.373 C 252.923 159.535,252.652 159.921,252.320 160.230 C 251.738 160.772,251.737 160.791,252.298 160.791 C 252.618 160.791,252.873 160.717,252.865 160.626 C 252.805 159.951,252.986 159.735,253.462 159.913 C 253.933 160.090,253.948 160.051,253.578 159.596 C 253.098 159.006,252.923 158.946,252.923 159.373 M275.280 167.026 C 274.684 167.648,274.579 167.897,274.915 167.897 C 275.173 167.897,275.314 167.827,275.228 167.741 C 275.142 167.655,275.374 167.262,275.743 166.869 C 276.113 166.476,276.348 166.154,276.265 166.154 C 276.183 166.154,275.739 166.546,275.280 167.026 M149.611 244.275 C 148.984 245.123,148.981 245.158,149.550 245.009 C 149.878 244.923,150.071 244.730,149.978 244.580 C 149.886 244.430,149.933 244.308,150.084 244.308 C 150.235 244.308,150.359 244.100,150.359 243.846 C 150.359 243.249,150.378 243.237,149.611 244.275 M152.900 250.590 C 152.444 251.086,152.767 251.651,153.254 251.210 C 153.580 250.915,153.846 250.649,153.846 250.619 C 153.846 250.566,152.947 250.538,152.900 250.590 M141.905 253.251 C 141.468 253.950,141.702 254.034,142.332 253.404 C 142.575 253.161,142.662 252.893,142.525 252.809 C 142.389 252.724,142.110 252.923,141.905 253.251 M146.027 258.692 L 145.233 260.154 146.016 259.231 C 147.059 258.002,147.482 257.231,147.114 257.231 C 146.953 257.231,146.464 257.888,146.027 258.692 M132.189 264.451 C 131.616 265.326,131.552 265.846,132.018 265.846 C 132.197 265.846,132.264 265.716,132.166 265.557 C 132.067 265.399,132.163 265.156,132.378 265.019 C 132.593 264.882,132.788 264.527,132.812 264.231 C 132.869 263.518,132.780 263.549,132.189 264.451 M136.725 269.143 C 136.752 269.483,136.572 269.677,136.252 269.653 C 135.825 269.621,135.796 269.713,136.086 270.178 C 136.280 270.488,136.445 270.713,136.453 270.678 C 136.461 270.644,136.712 270.324,137.011 269.967 C 137.476 269.412,137.491 269.267,137.117 268.956 C 136.766 268.665,136.689 268.702,136.725 269.143 " stroke="none" fill="#6a7e98" fill-rule="evenodd"></path><path id="path3" d="M257.538 130.495 C 257.538 130.708,257.240 130.761,256.743 130.636 C 256.228 130.507,256.018 130.549,256.146 130.757 C 256.437 131.227,257.405 131.147,257.846 130.615 C 258.111 130.297,258.122 130.154,257.884 130.154 C 257.694 130.154,257.538 130.307,257.538 130.495 M252.918 132.014 C 252.498 132.337,252.300 132.605,252.480 132.609 C 252.924 132.618,254.037 131.781,253.841 131.585 C 253.754 131.498,253.339 131.691,252.918 132.014 M254.716 142.653 C 255.346 143.517,255.904 143.776,256.085 143.288 C 256.160 143.087,255.767 142.704,255.211 142.435 L 254.202 141.947 254.716 142.653 M243.455 142.519 C 243.645 143.089,244.212 143.154,244.414 142.628 C 244.542 142.296,244.407 142.154,243.965 142.154 C 243.614 142.154,243.387 142.316,243.455 142.519 M259.252 145.504 C 258.974 145.954,259.971 146.613,260.354 146.231 C 260.585 146.000,260.514 145.918,260.110 145.952 C 259.796 145.978,259.573 145.827,259.615 145.615 C 259.704 145.170,259.498 145.106,259.252 145.504 M260.811 146.394 C 260.707 146.562,260.828 146.871,261.080 147.080 C 261.581 147.495,261.685 147.169,261.265 146.506 C 261.104 146.252,260.926 146.208,260.811 146.394 M263.923 149.751 C 263.627 149.828,263.385 150.077,263.385 150.305 C 263.385 150.533,263.300 150.939,263.197 151.209 C 263.058 151.571,263.141 151.648,263.513 151.506 C 263.855 151.374,263.955 151.112,263.822 150.694 C 263.703 150.317,263.746 150.151,263.935 150.267 C 264.104 150.372,264.323 150.251,264.420 149.998 C 264.517 149.745,264.566 149.555,264.529 149.574 C 264.492 149.594,264.219 149.673,263.923 149.751 M262.819 152.784 C 262.374 153.760,262.372 153.744,262.894 153.744 C 263.131 153.744,263.255 153.559,263.169 153.333 C 263.082 153.108,263.164 152.923,263.352 152.923 C 263.539 152.923,263.692 152.715,263.692 152.462 C 263.692 151.742,263.213 151.919,262.819 152.784 M260.661 157.231 C 260.444 157.855,260.475 158.051,260.790 158.051 C 261.017 158.051,261.127 157.927,261.033 157.775 C 260.939 157.624,261.085 157.255,261.356 156.955 C 261.771 156.496,261.778 156.410,261.398 156.410 C 261.150 156.410,260.819 156.779,260.661 157.231 M143.615 251.618 C 143.319 251.684,143.077 251.923,143.077 252.151 C 143.077 252.378,142.904 252.634,142.692 252.719 C 142.444 252.820,142.432 252.883,142.658 252.899 C 143.074 252.928,144.530 251.800,144.308 251.622 C 144.223 251.554,143.912 251.552,143.615 251.618 M148.111 255.757 C 147.585 256.314,147.160 257.005,147.167 257.294 C 147.182 257.924,147.692 257.695,147.692 257.059 C 147.692 256.815,147.859 256.650,148.063 256.692 C 148.267 256.735,148.440 256.591,148.448 256.373 C 148.455 256.156,148.651 255.860,148.884 255.717 C 149.116 255.573,149.252 255.296,149.187 255.100 C 149.120 254.900,148.649 255.187,148.111 255.757 M136.141 269.251 C 136.030 269.432,136.012 269.653,136.103 269.744 C 136.323 269.964,136.923 269.576,136.923 269.213 C 136.923 268.819,136.392 268.846,136.141 269.251 " stroke="none" fill="#7489ac" fill-rule="evenodd"></path><path id="path4" d="M305.378 109.550 C 305.272 109.721,305.299 109.829,305.439 109.788 C 305.578 109.748,306.004 109.888,306.385 110.099 C 307.312 110.614,307.269 110.350,306.324 109.731 C 305.847 109.419,305.500 109.352,305.378 109.550 M268.103 126.353 C 268.103 126.629,268.260 126.652,268.667 126.434 C 268.977 126.268,269.231 126.076,269.231 126.008 C 269.231 125.940,268.977 125.904,268.667 125.927 C 268.356 125.950,268.103 126.142,268.103 126.353 M251.231 132.143 C 250.723 132.375,250.489 132.577,250.710 132.590 C 250.934 132.604,251.016 132.773,250.894 132.971 C 250.753 133.198,250.810 133.242,251.050 133.094 C 251.256 132.966,251.344 132.780,251.244 132.680 C 251.144 132.580,251.446 132.328,251.916 132.120 C 252.385 131.912,252.631 131.737,252.462 131.731 C 252.292 131.725,251.738 131.910,251.231 132.143 M246.000 134.011 C 245.227 134.383,245.202 134.425,245.846 134.270 C 246.269 134.168,246.747 133.962,246.908 133.812 C 247.307 133.439,247.087 133.487,246.000 134.011 M242.492 136.521 C 241.977 137.147,241.631 137.734,241.724 137.826 C 241.817 137.919,242.029 137.751,242.196 137.453 C 242.363 137.154,242.628 136.989,242.785 137.086 C 242.942 137.183,242.987 137.048,242.887 136.785 C 242.786 136.523,242.842 136.308,243.011 136.308 C 243.180 136.308,243.398 136.100,243.496 135.846 C 243.777 135.113,243.499 135.300,242.492 136.521 M242.046 140.836 C 242.142 141.211,242.413 141.678,242.649 141.874 C 243.270 142.390,243.161 141.818,242.467 140.923 C 241.900 140.192,241.879 140.188,242.046 140.836 M244.512 142.975 C 244.404 143.083,244.756 143.496,245.295 143.893 C 246.443 144.740,246.857 144.850,245.989 144.077 C 245.657 143.781,245.232 143.368,245.046 143.159 C 244.861 142.950,244.620 142.867,244.512 142.975 M252.803 149.175 C 252.704 149.337,252.817 149.631,253.056 149.828 C 253.398 150.112,253.474 150.089,253.420 149.718 C 253.327 149.083,253.025 148.817,252.803 149.175 M257.230 154.617 C 256.833 155.039,256.580 155.385,256.669 155.385 C 256.974 155.385,258.252 154.149,258.102 153.999 C 258.019 153.916,257.626 154.194,257.230 154.617 M279.961 159.615 C 279.593 160.084,279.599 160.108,280.000 159.802 C 280.254 159.609,280.738 159.383,281.077 159.300 C 281.661 159.156,281.659 159.147,281.038 159.113 C 280.678 159.093,280.193 159.319,279.961 159.615 M276.034 166.581 C 275.307 167.330,275.131 167.689,275.405 167.859 C 275.641 168.004,275.709 167.969,275.584 167.766 C 275.472 167.585,275.485 167.390,275.613 167.333 C 275.924 167.194,277.379 165.538,277.191 165.538 C 277.110 165.538,276.589 166.007,276.034 166.581 M270.926 171.997 C 270.441 172.503,270.104 172.966,270.176 173.026 C 270.249 173.086,270.702 172.672,271.184 172.106 C 272.273 170.828,272.111 170.760,270.926 171.997 M277.281 171.859 C 276.765 172.991,276.864 173.232,277.421 172.204 C 277.681 171.723,277.837 171.273,277.766 171.202 C 277.696 171.132,277.477 171.428,277.281 171.859 M249.382 172.620 C 249.062 173.138,249.752 173.357,250.210 172.884 C 250.696 172.381,250.690 172.352,250.110 172.396 C 249.770 172.421,249.442 172.522,249.382 172.620 M261.973 182.624 C 261.517 183.221,261.209 183.774,261.288 183.852 C 261.367 183.931,261.794 183.443,262.236 182.767 C 263.231 181.247,263.084 181.167,261.973 182.624 M269.370 182.404 C 269.501 182.636,269.361 183.095,269.042 183.481 C 268.497 184.139,268.501 184.139,269.230 183.465 C 269.852 182.890,269.907 182.712,269.558 182.388 C 269.221 182.075,269.185 182.078,269.370 182.404 M234.113 183.306 C 233.065 184.570,232.886 184.998,233.805 184.041 C 234.352 183.471,234.746 182.951,234.680 182.885 C 234.614 182.819,234.359 183.009,234.113 183.306 M162.324 189.077 C 161.700 189.838,161.304 190.462,161.444 190.462 C 161.584 190.462,161.874 190.179,162.090 189.834 C 162.305 189.489,162.614 189.289,162.776 189.389 C 162.939 189.489,162.988 189.358,162.887 189.093 C 162.786 188.830,162.842 188.615,163.011 188.615 C 163.180 188.615,163.398 188.408,163.496 188.154 C 163.782 187.408,163.528 187.608,162.324 189.077 M264.523 189.000 C 263.688 190.129,263.125 191.101,263.587 190.615 C 264.158 190.016,265.567 188.000,265.416 188.000 C 265.331 188.000,264.929 188.450,264.523 189.000 M160.154 191.750 L 159.538 192.387 160.237 192.026 C 160.621 191.827,161.106 191.766,161.314 191.891 C 161.559 192.038,161.544 191.935,161.270 191.598 C 161.038 191.311,160.830 191.085,160.808 191.095 C 160.787 191.105,160.492 191.400,160.154 191.750 M169.130 192.393 C 169.218 192.537,169.037 192.957,168.727 193.327 C 168.417 193.697,168.611 193.593,169.159 193.096 C 170.335 192.028,170.292 192.132,169.561 192.132 C 169.235 192.132,169.041 192.249,169.130 192.393 M158.673 193.122 C 158.557 193.238,158.464 193.483,158.466 193.667 C 158.469 193.850,158.607 193.792,158.774 193.538 C 159.043 193.128,159.114 193.128,159.408 193.538 C 159.678 193.914,159.717 193.918,159.620 193.558 C 159.481 193.046,158.980 192.815,158.673 193.122 M174.154 194.283 C 174.154 194.443,176.882 196.308,177.116 196.308 C 177.348 196.308,175.666 194.996,174.845 194.536 C 174.465 194.323,174.154 194.209,174.154 194.283 M259.843 194.774 C 259.737 194.946,259.530 195.013,259.385 194.923 C 259.239 194.833,259.040 194.888,258.943 195.045 C 258.714 195.416,259.370 195.307,260.154 194.844 C 260.492 194.644,260.604 194.476,260.403 194.471 C 260.201 194.466,259.949 194.602,259.843 194.774 M257.409 198.087 L 256.819 198.923 257.640 198.177 C 258.503 197.393,258.610 197.225,258.231 197.240 C 258.104 197.246,257.734 197.627,257.409 198.087 M227.936 199.600 C 228.240 199.716,228.250 199.853,227.978 200.180 C 227.783 200.416,227.509 200.539,227.371 200.453 C 227.233 200.368,227.047 200.415,226.958 200.559 C 226.618 201.109,227.711 200.789,228.295 200.167 L 228.908 199.514 228.223 199.481 C 227.847 199.462,227.717 199.516,227.936 199.600 M198.943 203.724 C 199.040 203.881,199.239 203.936,199.385 203.846 C 199.530 203.756,199.737 203.823,199.843 203.995 C 199.949 204.167,200.201 204.303,200.403 204.298 C 200.604 204.293,200.492 204.125,200.154 203.926 C 199.370 203.463,198.714 203.354,198.943 203.724 M158.813 204.967 C 158.596 205.314,158.487 205.666,158.569 205.749 C 158.652 205.831,158.880 205.598,159.077 205.231 C 159.542 204.362,159.326 204.146,158.813 204.967 M145.981 208.327 C 145.484 208.846,145.285 209.186,145.539 209.084 C 145.953 208.916,147.265 207.385,146.995 207.385 C 146.934 207.385,146.478 207.809,145.981 208.327 M220.322 210.138 C 220.077 210.294,219.767 210.354,219.634 210.271 C 219.501 210.189,219.470 210.326,219.566 210.576 C 219.716 210.968,219.821 210.961,220.332 210.524 C 221.151 209.822,221.146 209.617,220.322 210.138 M239.236 210.993 C 238.616 211.737,238.516 211.970,238.928 211.710 C 239.623 211.273,240.771 209.835,240.399 209.868 C 240.264 209.881,239.741 210.387,239.236 210.993 M153.565 211.194 L 152.822 212.154 153.702 211.317 C 154.187 210.857,154.521 210.425,154.445 210.358 C 154.370 210.290,153.973 210.667,153.565 211.194 M152.396 212.508 C 152.191 212.591,151.722 213.146,151.354 213.741 C 150.856 214.548,150.619 214.719,150.424 214.412 C 150.247 214.132,150.162 214.117,150.159 214.366 C 150.148 215.169,150.759 215.031,151.427 214.081 C 151.814 213.529,152.344 212.908,152.604 212.702 C 153.097 212.312,153.031 212.250,152.396 212.508 M176.094 214.606 C 175.619 215.023,175.313 215.370,175.414 215.375 C 175.514 215.380,175.999 215.039,176.491 214.616 C 176.982 214.193,177.288 213.847,177.171 213.847 C 177.054 213.846,176.569 214.188,176.094 214.606 M174.154 216.209 C 173.472 216.931,173.459 216.983,174.041 216.674 C 174.402 216.482,174.778 216.113,174.877 215.855 C 175.118 215.226,175.052 215.259,174.154 216.209 M170.940 219.673 L 169.727 221.077 171.079 219.780 C 171.823 219.066,172.369 218.435,172.293 218.376 C 172.216 218.317,171.608 218.901,170.940 219.673 M133.419 223.042 C 132.542 223.940,132.354 224.296,132.664 224.475 C 132.891 224.607,132.970 224.597,132.840 224.453 C 132.710 224.310,133.118 223.665,133.748 223.019 C 134.379 222.374,134.825 221.846,134.740 221.846 C 134.656 221.846,134.061 222.384,133.419 223.042 M143.707 222.754 C 143.461 222.909,143.179 222.986,143.081 222.925 C 142.982 222.864,142.901 223.090,142.901 223.428 C 142.901 223.912,142.971 223.956,143.234 223.636 C 143.417 223.413,143.761 223.058,143.999 222.846 C 144.503 222.397,144.348 222.348,143.707 222.754 M194.920 227.649 C 195.786 228.662,196.527 229.013,196.800 228.539 C 196.922 228.327,196.912 228.253,196.778 228.374 C 196.404 228.711,195.337 228.022,195.579 227.600 C 195.696 227.397,195.678 227.333,195.539 227.459 C 195.401 227.584,195.067 227.517,194.798 227.310 C 194.528 227.103,194.583 227.256,194.920 227.649 M138.305 228.928 C 138.198 229.100,137.961 229.148,137.777 229.034 C 137.567 228.905,137.533 228.973,137.684 229.218 C 137.824 229.445,137.748 229.719,137.501 229.876 C 137.252 230.034,137.221 230.146,137.426 230.149 C 137.618 230.152,138.002 229.808,138.279 229.385 C 138.557 228.962,138.719 228.615,138.641 228.615 C 138.562 228.615,138.411 228.756,138.305 228.928 M232.846 229.527 C 232.417 229.945,232.399 230.051,232.756 230.051 C 233.003 230.051,233.283 229.847,233.379 229.597 C 233.628 228.947,233.464 228.925,232.846 229.527 M168.788 232.794 C 168.102 233.481,168.537 234.013,169.254 233.364 C 169.572 233.076,169.758 232.721,169.667 232.574 C 169.442 232.210,169.349 232.233,168.788 232.794 M190.264 233.161 C 190.508 233.555,192.308 234.887,192.308 234.673 C 192.308 234.597,191.799 234.147,191.178 233.673 C 190.557 233.199,190.146 232.969,190.264 233.161 M131.605 236.486 C 131.192 237.038,131.168 237.177,131.505 237.047 C 131.751 236.953,132.036 236.659,132.137 236.394 C 132.425 235.644,132.207 235.682,131.605 236.486 M219.851 237.144 L 219.310 238.000 220.023 237.316 C 220.415 236.940,220.658 236.555,220.563 236.460 C 220.468 236.366,220.148 236.674,219.851 237.144 M151.054 242.683 C 150.643 243.143,150.528 243.352,150.798 243.147 C 151.067 242.942,151.390 242.877,151.515 243.003 C 151.641 243.128,151.697 243.023,151.641 242.769 C 151.584 242.514,151.720 242.345,151.946 242.392 C 152.170 242.439,152.266 242.335,152.159 242.161 C 151.895 241.735,151.901 241.732,151.054 242.683 M115.717 243.557 C 114.898 244.490,114.699 245.231,115.267 245.231 C 115.352 245.231,115.349 245.115,115.262 244.973 C 115.022 244.585,116.010 243.323,116.428 243.483 C 116.628 243.560,116.791 243.362,116.791 243.042 C 116.791 242.300,116.843 242.275,115.717 243.557 M143.935 250.816 C 143.659 250.991,143.744 251.069,144.213 251.072 C 144.583 251.075,144.958 250.962,145.045 250.821 C 145.249 250.491,144.453 250.487,143.935 250.816 M137.565 258.276 C 137.275 258.625,137.282 258.707,137.598 258.661 C 138.023 258.598,138.297 258.195,138.069 257.967 C 137.995 257.892,137.768 258.031,137.565 258.276 M110.137 261.769 L 109.077 262.923 110.231 261.863 C 111.305 260.876,111.526 260.615,111.291 260.615 C 111.240 260.615,110.720 261.135,110.137 261.769 M100.216 262.564 C 99.821 263.166,99.816 263.282,100.180 263.282 C 100.420 263.282,100.551 263.218,100.472 263.139 C 100.394 263.060,100.468 262.737,100.637 262.421 C 101.073 261.606,100.777 261.707,100.216 262.564 M139.231 266.768 C 139.100 267.183,138.854 267.365,138.572 267.257 C 138.320 267.160,138.205 267.218,138.310 267.388 C 138.413 267.555,138.623 267.692,138.777 267.692 C 139.112 267.692,139.805 266.472,139.591 266.258 C 139.509 266.175,139.346 266.405,139.231 266.768 M102.195 270.977 C 102.308 271.482,101.774 272.299,101.459 272.105 C 101.270 271.988,101.227 272.053,101.355 272.260 C 101.655 272.745,101.705 272.723,102.269 271.862 C 102.581 271.386,102.648 271.038,102.450 270.916 C 102.279 270.810,102.164 270.838,102.195 270.977 " stroke="none" fill="#3b506a" fill-rule="evenodd"></path></g></svg>