<svg id="svg" version="1.1" xmlns="http://www.w3.org/2000/svg" xmlns:xlink="http://www.w3.org/1999/xlink" width="400" height="252.5" viewBox="0, 0, 400,252.5"><g id="svgg"><path id="path0" d="M288.131 57.702 C 288.131 59.160,288.193 60.354,288.269 60.354 C 288.593 60.354,295.161 55.346,295.020 55.206 C 294.935 55.120,293.350 55.051,291.498 55.051 L 288.131 55.051 288.131 57.702 M295.320 58.401 C 292.816 60.239,290.174 62.168,289.449 62.689 L 288.131 63.636 288.131 141.793 L 288.131 219.949 293.430 219.949 C 298.724 219.949,298.728 219.950,298.835 220.518 C 298.894 220.830,299.082 221.881,299.254 222.854 C 299.961 226.847,302.765 233.579,303.725 233.584 C 304.191 233.587,304.142 233.432,302.927 231.074 C 293.088 211.992,305.330 189.139,326.454 187.151 C 343.543 185.543,358.586 199.561,358.586 217.096 C 358.586 225.587,354.687 234.147,348.279 239.727 C 336.433 250.041,319.382 249.395,308.118 238.206 C 305.983 236.085,304.908 235.407,305.533 236.575 C 306.823 238.984,313.616 243.983,317.987 245.740 C 319.340 246.284,319.668 246.383,322.348 247.059 C 326.495 248.105,331.961 248.096,335.859 247.038 C 336.622 246.830,337.561 246.603,337.945 246.533 C 338.329 246.464,338.705 246.306,338.781 246.183 C 338.857 246.060,339.101 245.960,339.324 245.960 C 340.055 245.960,344.783 243.439,346.717 242.017 C 353.415 237.097,357.635 230.003,359.016 221.338 L 359.217 220.076 367.235 220.009 L 375.253 219.942 375.253 137.496 L 375.253 55.051 337.563 55.055 L 299.874 55.059 295.320 58.401 M197.727 161.869 L 197.727 202.525 206.124 202.519 L 214.520 202.512 215.404 201.198 C 228.637 181.519,259.151 185.676,267.258 208.263 C 269.993 215.880,269.033 228.393,265.361 232.995 C 265.094 233.329,265.514 233.704,265.893 233.470 C 266.095 233.345,266.927 231.707,267.695 229.924 C 268.466 228.132,269.343 224.471,269.630 221.843 L 269.823 220.076 277.336 220.009 L 284.848 219.942 284.848 170.577 L 284.848 121.212 241.288 121.212 L 197.727 121.212 197.727 161.869 M107.994 138.088 C 107.608 138.514,107.576 141.732,107.576 179.246 L 107.576 219.942 114.830 220.009 L 122.084 220.076 122.273 221.338 C 123.003 226.218,123.587 228.369,125.048 231.566 C 127.990 237.998,133.190 243.275,139.685 246.418 C 140.887 246.999,142.045 247.475,142.258 247.475 C 142.472 247.475,142.709 247.575,142.785 247.698 C 142.861 247.821,143.237 247.979,143.621 248.049 C 144.004 248.118,144.943 248.346,145.707 248.554 C 149.437 249.571,155.206 249.539,159.596 248.476 C 160.221 248.325,161.046 248.138,161.430 248.061 C 161.814 247.984,162.190 247.821,162.265 247.698 C 162.341 247.575,162.586 247.475,162.809 247.475 C 163.539 247.475,168.268 244.954,170.202 243.533 C 177.073 238.485,181.394 231.072,182.584 222.290 L 182.900 219.958 188.862 219.891 L 194.823 219.823 194.890 212.437 L 194.957 205.051 186.999 205.051 C 182.622 205.051,179.040 205.143,179.040 205.256 C 179.040 205.368,179.258 205.911,179.523 206.461 C 179.990 207.427,180.852 210.047,181.302 211.869 C 183.855 222.207,180.003 234.068,171.763 241.242 C 157.217 253.907,134.851 249.459,126.275 232.197 C 124.604 228.834,124.190 227.548,123.246 222.771 C 122.276 217.866,123.523 210.236,126.154 204.983 C 136.121 185.088,163.079 182.782,176.251 200.698 L 177.600 202.532 186.211 202.465 L 194.823 202.399 194.887 170.013 L 194.951 137.626 151.682 137.626 C 110.083 137.626,108.395 137.644,107.994 138.088 M66.948 181.613 L 28.214 220.328 66.926 220.392 C 88.218 220.427,105.677 220.418,105.724 220.370 C 105.771 220.323,105.781 202.872,105.746 181.591 L 105.682 142.897 66.948 181.613 M197.727 212.500 L 197.727 219.949 203.382 219.949 L 209.036 219.949 209.181 220.528 C 209.261 220.847,209.393 221.784,209.474 222.612 C 209.555 223.439,209.720 224.514,209.840 225.000 C 210.387 227.207,210.672 228.189,210.883 228.595 C 211.009 228.836,211.111 229.160,211.111 229.315 C 211.111 231.485,216.942 239.776,220.346 242.447 C 223.327 244.786,224.520 245.497,228.157 247.106 C 235.147 250.198,244.571 250.036,251.716 246.702 C 252.590 246.293,253.363 245.960,253.433 245.960 C 255.131 245.960,265.073 236.715,264.080 236.060 C 263.868 235.920,263.511 236.160,263.005 236.785 C 253.737 248.218,239.422 251.709,226.881 245.594 C 212.707 238.684,206.217 221.772,212.152 207.209 C 212.551 206.230,212.877 205.344,212.878 205.240 C 212.878 205.136,209.470 205.051,205.303 205.051 L 197.727 205.051 197.727 212.500 " stroke="none" fill="#1b1b1b" fill-rule="evenodd"></path><path id="path1" d="M0.000 126.263 L 0.000 252.525 200.000 252.525 L 400.000 252.525 400.000 126.263 L 400.000 0.000 200.000 0.000 L 0.000 0.000 0.000 126.263 M331.439 30.734 C 331.439 30.975,327.870 35.867,326.894 36.964 C 326.755 37.120,326.130 37.929,325.506 38.763 C 323.859 40.959,323.825 40.975,323.106 39.899 C 322.425 38.879,322.295 38.911,319.894 40.693 C 316.228 43.413,315.738 43.774,312.895 45.833 C 311.362 46.944,308.868 48.763,307.354 49.874 C 305.840 50.985,303.739 52.519,302.685 53.283 L 300.770 54.672 338.201 54.798 L 375.631 54.924 375.631 137.500 L 375.631 220.076 367.670 220.142 L 359.709 220.209 359.400 221.539 C 359.230 222.270,359.091 223.171,359.091 223.540 C 359.091 223.910,358.977 224.283,358.838 224.369 C 358.699 224.455,358.586 224.893,358.586 225.343 C 358.586 225.793,358.492 226.270,358.377 226.402 C 358.263 226.533,358.009 227.153,357.815 227.778 C 357.620 228.403,357.203 229.453,356.887 230.112 C 356.571 230.771,356.313 231.538,356.313 231.817 C 356.313 232.095,356.213 232.323,356.090 232.323 C 355.968 232.323,355.391 233.054,354.810 233.947 C 354.228 234.840,353.561 235.801,353.328 236.082 C 353.095 236.363,352.455 237.138,351.906 237.804 C 351.358 238.470,350.246 239.583,349.435 240.278 C 348.625 240.972,347.824 241.661,347.655 241.808 C 346.094 243.170,340.695 246.212,339.839 246.212 C 339.650 246.212,339.387 246.306,339.255 246.421 C 338.874 246.752,336.188 247.462,333.444 247.957 C 331.511 248.305,326.105 248.315,324.544 247.973 C 323.892 247.830,322.790 247.592,322.096 247.444 C 317.994 246.572,312.527 243.855,309.710 241.288 C 309.558 241.149,308.912 240.600,308.275 240.068 C 307.638 239.536,306.577 238.428,305.918 237.606 L 304.719 236.111 284.737 236.111 L 264.755 236.111 264.343 236.806 C 262.223 240.380,257.495 244.351,252.399 246.836 C 247.407 249.270,239.620 250.467,235.150 249.488 C 234.498 249.345,233.396 249.110,232.702 248.965 C 227.934 247.972,222.530 245.083,218.594 241.421 C 217.144 240.073,214.394 236.774,214.394 236.383 C 214.394 236.234,214.301 236.111,214.188 236.111 C 214.075 236.111,213.734 235.657,213.431 235.101 C 213.127 234.545,212.630 233.636,212.327 233.081 C 212.023 232.525,211.682 232.071,211.569 232.071 C 211.456 232.071,211.364 231.785,211.364 231.436 C 211.364 231.087,211.263 230.604,211.141 230.363 C 210.888 229.867,210.487 228.907,210.219 228.157 C 209.781 226.934,209.135 223.684,208.927 221.654 L 208.778 220.202 203.153 220.202 C 198.257 220.202,197.509 220.150,197.376 219.803 C 197.291 219.583,197.222 216.174,197.222 212.227 L 197.222 205.051 196.216 205.051 L 195.210 205.051 195.143 212.563 L 195.076 220.076 189.107 220.143 L 183.139 220.211 182.993 221.785 C 182.913 222.650,182.733 223.927,182.595 224.621 C 182.456 225.316,182.267 226.282,182.175 226.768 C 182.083 227.254,181.928 227.765,181.832 227.904 C 181.736 228.043,181.503 228.668,181.315 229.293 C 181.127 229.918,180.879 230.537,180.764 230.669 C 180.649 230.801,180.556 231.106,180.556 231.346 C 180.556 231.823,180.255 232.341,177.742 236.193 C 174.635 240.957,166.171 247.727,163.324 247.727 C 163.135 247.727,162.872 247.828,162.740 247.950 C 162.608 248.073,161.761 248.369,160.859 248.608 C 153.487 250.563,146.085 249.963,139.646 246.889 C 138.097 246.149,135.630 244.738,135.354 244.433 C 135.284 244.356,134.830 244.018,134.343 243.682 C 130.857 241.268,125.459 234.635,124.483 231.566 C 124.372 231.218,124.032 230.253,123.726 229.419 C 122.845 227.016,122.212 224.277,122.049 222.163 L 121.898 220.210 114.674 220.143 L 107.449 220.076 107.323 179.482 L 107.197 138.888 104.887 140.593 C 103.616 141.531,101.343 143.201,99.836 144.304 C 98.329 145.407,95.619 147.401,93.813 148.734 C 92.008 150.067,89.792 151.691,88.889 152.343 C 87.986 152.994,85.543 154.780,83.460 156.311 C 81.376 157.842,77.967 160.341,75.884 161.865 C 73.801 163.389,69.766 166.340,66.919 168.424 C 64.072 170.507,61.569 172.214,61.357 172.217 C 60.703 172.226,59.848 171.465,59.857 170.882 C 59.869 170.003,59.928 169.950,64.646 166.509 C 66.057 165.480,69.297 163.096,72.727 160.562 C 73.769 159.792,76.553 157.753,78.914 156.029 C 81.275 154.305,84.672 151.818,86.463 150.501 C 88.254 149.184,90.641 147.433,91.766 146.610 C 93.902 145.049,95.622 143.786,99.901 140.640 C 101.305 139.607,104.007 137.626,105.906 136.237 C 107.804 134.848,110.594 132.803,112.106 131.692 C 113.618 130.581,116.872 128.194,119.337 126.389 C 121.803 124.583,124.966 122.263,126.367 121.232 C 127.768 120.202,129.482 118.943,130.177 118.434 C 130.871 117.926,132.586 116.667,133.988 115.636 C 135.390 114.606,138.328 112.456,140.517 110.859 C 142.706 109.261,145.707 107.063,147.186 105.973 C 150.767 103.333,150.672 103.372,154.425 103.036 C 159.350 102.594,161.571 102.386,170.707 101.515 C 172.027 101.389,174.356 101.171,175.884 101.029 C 177.412 100.888,179.912 100.652,181.439 100.505 C 182.967 100.358,185.467 100.122,186.995 99.981 C 188.523 99.839,190.852 99.621,192.172 99.495 C 193.491 99.369,195.878 99.142,197.475 98.990 C 202.502 98.512,205.087 98.265,208.081 97.977 C 209.678 97.823,212.178 97.590,213.636 97.459 C 215.095 97.327,217.424 97.109,218.813 96.974 C 220.202 96.839,222.588 96.610,224.116 96.466 C 225.644 96.321,228.087 96.089,229.545 95.949 C 231.004 95.809,233.390 95.589,234.848 95.458 C 240.430 94.960,240.739 94.903,241.667 94.196 C 242.486 93.572,243.281 92.989,246.970 90.307 C 247.734 89.751,248.927 88.883,249.621 88.377 C 250.316 87.871,251.807 86.784,252.936 85.963 C 255.776 83.896,260.344 80.561,263.629 78.157 C 266.131 76.325,268.133 74.866,274.337 70.350 C 275.466 69.529,276.957 68.439,277.652 67.928 C 278.346 67.418,279.653 66.469,280.556 65.820 C 281.458 65.171,283.447 63.723,284.975 62.602 L 287.753 60.565 287.879 57.744 L 288.005 54.924 291.919 54.798 L 295.833 54.672 300.835 51.010 C 303.587 48.996,306.427 46.922,307.149 46.400 C 308.446 45.461,310.009 44.328,312.545 42.489 C 313.265 41.967,315.196 40.578,316.838 39.402 C 320.621 36.693,320.622 36.691,320.246 36.085 C 320.083 35.822,319.812 35.384,319.643 35.112 C 319.225 34.438,318.971 34.566,325.154 32.342 C 330.647 30.366,331.439 30.163,331.439 30.734 M285.438 65.863 C 284.166 66.791,280.323 69.596,276.899 72.096 C 270.818 76.536,269.507 77.490,266.667 79.542 C 265.287 80.539,263.459 81.873,256.026 87.305 C 253.892 88.865,250.669 91.215,248.864 92.529 C 247.058 93.842,244.899 95.417,244.066 96.029 C 241.875 97.639,241.809 97.662,238.499 97.973 C 236.838 98.129,234.315 98.365,232.891 98.497 C 231.468 98.629,229.081 98.854,227.588 98.995 C 226.095 99.137,223.681 99.365,222.222 99.500 C 213.959 100.270,212.613 100.397,206.124 101.017 C 204.631 101.160,202.159 101.393,200.631 101.534 C 199.104 101.676,196.774 101.894,195.455 102.020 C 194.135 102.146,191.749 102.373,190.152 102.525 C 188.554 102.677,186.111 102.910,184.722 103.042 C 183.333 103.174,180.947 103.396,179.419 103.535 C 177.891 103.675,175.448 103.905,173.990 104.047 C 166.823 104.746,157.744 105.603,153.788 105.954 C 152.115 106.102,151.739 106.236,150.568 107.101 C 149.839 107.640,148.646 108.516,147.917 109.048 C 147.188 109.580,145.443 110.858,144.039 111.889 C 142.636 112.919,140.249 114.665,138.736 115.768 C 136.220 117.602,130.016 122.148,125.631 125.373 C 124.659 126.088,122.955 127.340,121.843 128.155 C 120.732 128.971,118.744 130.433,117.424 131.405 C 116.105 132.377,114.457 133.587,113.763 134.093 C 113.068 134.599,111.779 135.544,110.898 136.193 L 109.295 137.372 152.186 137.436 L 195.076 137.500 195.140 170.013 L 195.204 202.525 196.212 202.525 L 197.221 202.525 197.285 161.806 L 197.348 121.086 241.225 121.022 L 285.101 120.958 285.101 170.580 L 285.101 220.202 277.652 220.202 L 270.202 220.202 270.202 220.940 C 270.202 221.633,270.042 222.578,269.408 225.631 C 269.110 227.063,268.278 229.705,267.917 230.363 C 267.785 230.604,267.677 231.035,267.677 231.320 C 267.677 231.606,267.449 232.083,267.172 232.381 C 266.894 232.680,266.667 233.016,266.667 233.128 C 266.667 233.241,274.793 233.333,284.724 233.333 C 302.719 233.333,302.781 233.332,302.467 232.828 C 302.293 232.551,302.065 232.323,301.959 232.323 C 301.854 232.323,301.768 232.156,301.768 231.951 C 301.768 231.746,301.423 230.826,301.002 229.907 C 300.057 227.844,299.060 224.462,298.680 222.033 L 298.394 220.202 293.137 220.202 L 287.880 220.202 287.816 142.189 L 287.753 64.175 285.438 65.863 M106.061 181.566 L 106.061 220.707 67.060 220.707 C 42.281 220.707,28.005 220.618,27.910 220.463 C 27.737 220.184,105.265 142.471,105.745 142.443 C 105.996 142.428,106.061 150.411,106.061 181.566 " stroke="none" fill="#fbfbfb" fill-rule="evenodd"></path><path id="path2" d="M325.154 32.342 C 318.971 34.566,319.225 34.438,319.643 35.112 C 320.729 36.862,321.032 36.398,316.838 39.402 C 315.196 40.578,313.265 41.967,312.545 42.489 C 310.618 43.887,308.631 45.327,307.150 46.400 C 306.430 46.922,303.545 49.025,300.738 51.073 L 295.636 54.798 291.899 54.798 C 289.843 54.798,288.108 54.883,288.043 54.987 C 287.979 55.092,289.728 55.120,291.931 55.051 L 295.936 54.924 308.225 45.966 C 321.490 36.296,321.041 36.687,320.206 35.558 C 319.761 34.955,319.709 34.744,319.968 34.584 C 320.524 34.241,331.110 30.521,331.220 30.631 C 331.277 30.687,330.252 32.142,328.943 33.864 C 327.634 35.586,326.617 37.051,326.684 37.119 C 326.751 37.187,326.902 37.074,327.021 36.867 C 327.139 36.659,328.207 35.240,329.394 33.712 C 332.537 29.668,332.562 29.677,325.154 32.342 M325.975 37.816 C 325.174 38.783,324.885 39.231,325.178 39.056 C 325.500 38.862,326.622 37.374,326.445 37.374 C 326.388 37.374,326.176 37.573,325.975 37.816 M320.971 39.586 C 320.491 39.967,318.994 41.073,317.644 42.045 C 307.750 49.170,300.318 54.699,300.417 54.860 C 300.482 54.965,317.403 55.051,338.020 55.051 L 375.505 55.051 375.505 137.496 L 375.505 219.942 367.503 220.009 L 359.502 220.076 359.283 220.920 C 359.163 221.384,359.115 221.895,359.177 222.056 C 359.239 222.217,359.373 221.867,359.474 221.279 L 359.659 220.209 367.645 220.142 L 375.631 220.076 375.631 137.500 L 375.631 54.924 338.201 54.798 L 300.770 54.672 302.685 53.283 C 303.739 52.519,305.840 50.985,307.354 49.874 C 308.868 48.763,311.362 46.944,312.895 45.833 C 315.738 43.774,316.228 43.413,319.894 40.693 C 321.808 39.272,322.714 38.838,322.736 39.331 C 322.785 40.442,324.142 40.784,324.723 39.831 C 325.065 39.269,325.065 39.269,324.431 39.853 L 323.796 40.437 323.244 39.663 C 322.566 38.711,322.095 38.695,320.971 39.586 M284.945 62.623 C 283.434 63.733,281.458 65.171,280.556 65.820 C 279.653 66.469,278.346 67.418,277.652 67.928 C 276.957 68.439,275.466 69.529,274.337 70.350 C 268.133 74.866,266.131 76.325,263.629 78.157 C 260.344 80.561,255.776 83.896,252.936 85.963 C 250.920 87.430,249.542 88.436,246.907 90.364 C 246.177 90.897,244.799 91.891,243.844 92.573 C 242.039 93.861,240.503 95.134,241.162 94.795 C 241.370 94.688,245.745 91.536,250.884 87.790 C 256.023 84.045,261.177 80.288,262.338 79.442 C 263.499 78.596,265.317 77.269,266.379 76.492 C 267.440 75.715,272.569 71.977,277.778 68.186 C 282.986 64.394,287.414 61.137,287.617 60.949 C 288.523 60.109,287.481 60.762,284.945 62.623 M284.470 66.186 C 282.803 67.424,276.103 72.329,269.581 77.085 C 263.058 81.841,256.127 86.899,254.177 88.324 C 252.227 89.750,248.648 92.361,246.223 94.126 L 241.815 97.335 239.531 97.644 L 237.247 97.953 239.364 97.831 C 241.705 97.697,241.894 97.625,244.066 96.029 C 244.899 95.417,247.058 93.842,248.864 92.529 C 250.669 91.215,253.892 88.865,256.026 87.305 C 263.459 81.873,265.287 80.539,266.667 79.542 C 269.509 77.489,270.819 76.536,276.899 72.096 C 280.323 69.596,284.109 66.833,285.312 65.957 C 287.716 64.205,288.107 63.877,287.740 63.912 C 287.608 63.925,286.136 64.948,284.470 66.186 M237.626 95.202 L 236.742 95.388 237.626 95.403 C 238.112 95.411,239.021 95.326,239.646 95.215 L 240.783 95.013 239.646 95.014 C 239.021 95.015,238.112 95.100,237.626 95.202 M232.071 95.707 L 231.187 95.893 232.197 95.901 C 232.753 95.906,233.832 95.823,234.596 95.718 L 235.985 95.526 234.470 95.523 C 233.636 95.522,232.557 95.605,232.071 95.707 M226.768 96.212 L 225.884 96.398 226.894 96.406 C 227.449 96.411,228.529 96.328,229.293 96.223 L 230.682 96.031 229.167 96.028 C 228.333 96.027,227.254 96.110,226.768 96.212 M221.465 96.717 L 220.581 96.903 221.591 96.911 C 222.146 96.916,223.226 96.833,223.990 96.728 L 225.379 96.536 223.864 96.533 C 223.030 96.532,221.951 96.615,221.465 96.717 M216.288 97.222 L 215.530 97.415 216.414 97.423 C 216.900 97.427,217.866 97.342,218.561 97.234 L 219.823 97.037 218.434 97.033 C 217.670 97.031,216.705 97.116,216.288 97.222 M210.732 97.727 L 209.722 97.908 210.859 97.922 C 211.484 97.929,212.563 97.847,213.258 97.739 L 214.520 97.542 213.131 97.544 C 212.367 97.545,211.288 97.628,210.732 97.727 M205.429 98.232 L 204.419 98.413 205.556 98.427 C 206.181 98.434,207.260 98.352,207.955 98.244 L 209.217 98.047 207.828 98.049 C 207.064 98.051,205.985 98.133,205.429 98.232 M233.081 98.232 L 231.944 98.409 233.081 98.422 C 233.706 98.429,234.842 98.349,235.606 98.243 L 236.995 98.051 235.606 98.053 C 234.842 98.055,233.706 98.135,233.081 98.232 M200.126 98.737 L 199.116 98.918 200.253 98.932 C 200.878 98.939,201.957 98.857,202.652 98.749 L 203.914 98.552 202.525 98.554 C 201.761 98.556,200.682 98.638,200.126 98.737 M227.652 98.737 L 226.641 98.918 227.778 98.932 C 228.403 98.939,229.482 98.857,230.177 98.749 L 231.439 98.552 230.051 98.554 C 229.287 98.556,228.207 98.638,227.652 98.737 M194.823 99.242 L 193.813 99.423 194.823 99.434 C 195.379 99.440,196.458 99.359,197.222 99.253 L 198.611 99.061 197.222 99.061 C 196.458 99.061,195.379 99.143,194.823 99.242 M222.348 99.242 L 221.338 99.423 222.475 99.437 C 223.100 99.445,224.179 99.362,224.874 99.254 L 226.136 99.057 224.747 99.059 C 223.984 99.061,222.904 99.143,222.348 99.242 M189.520 99.747 L 188.510 99.928 189.520 99.942 C 190.076 99.950,191.098 99.867,191.793 99.759 L 193.056 99.562 191.793 99.565 C 191.098 99.566,190.076 99.648,189.520 99.747 M217.045 99.747 L 216.035 99.928 217.045 99.939 C 217.601 99.945,218.681 99.864,219.444 99.758 L 220.833 99.566 219.444 99.566 C 218.681 99.566,217.601 99.648,217.045 99.747 M184.091 100.253 L 182.955 100.429 184.091 100.445 C 184.716 100.454,185.795 100.372,186.490 100.264 L 187.753 100.067 186.490 100.072 C 185.795 100.074,184.716 100.155,184.091 100.253 M211.616 100.253 L 210.480 100.429 211.616 100.445 C 212.241 100.454,213.321 100.372,214.015 100.264 L 215.278 100.067 214.015 100.072 C 213.321 100.074,212.241 100.155,211.616 100.253 M178.788 100.758 L 177.652 100.934 178.788 100.950 C 179.413 100.959,180.492 100.877,181.187 100.769 L 182.449 100.573 181.187 100.577 C 180.492 100.579,179.413 100.660,178.788 100.758 M206.313 100.758 L 205.177 100.934 206.313 100.950 C 206.938 100.959,208.018 100.877,208.712 100.769 L 209.975 100.573 208.712 100.577 C 208.018 100.579,206.938 100.660,206.313 100.758 M173.359 101.263 L 172.348 101.443 173.485 101.457 C 174.110 101.465,175.189 101.382,175.884 101.274 L 177.146 101.078 175.758 101.080 C 174.994 101.081,173.914 101.163,173.359 101.263 M201.010 101.263 L 199.874 101.439 201.010 101.455 C 201.635 101.464,202.715 101.382,203.409 101.274 L 204.672 101.078 203.409 101.082 C 202.715 101.084,201.635 101.165,201.010 101.263 M168.056 101.768 L 167.045 101.949 168.182 101.966 C 168.807 101.975,169.830 101.892,170.455 101.781 L 171.591 101.578 170.328 101.583 C 169.634 101.585,168.611 101.668,168.056 101.768 M195.707 101.768 L 194.571 101.944 195.707 101.964 C 196.332 101.974,197.355 101.892,197.980 101.781 L 199.116 101.578 197.980 101.585 C 197.355 101.588,196.332 101.671,195.707 101.768 M162.753 102.273 L 161.742 102.454 162.879 102.471 C 163.504 102.480,164.527 102.397,165.152 102.286 L 166.288 102.083 165.025 102.088 C 164.331 102.090,163.308 102.173,162.753 102.273 M190.278 102.273 L 189.268 102.454 190.404 102.471 C 191.029 102.480,192.052 102.397,192.677 102.286 L 193.813 102.083 192.551 102.088 C 191.856 102.090,190.833 102.173,190.278 102.273 M157.323 102.778 L 156.187 102.954 157.323 102.970 C 157.948 102.979,159.028 102.898,159.722 102.789 L 160.985 102.593 159.722 102.597 C 159.028 102.599,157.948 102.681,157.323 102.778 M184.848 102.778 L 183.712 102.954 184.975 102.974 C 185.669 102.984,186.749 102.902,187.374 102.791 L 188.510 102.588 187.247 102.595 C 186.553 102.598,185.473 102.681,184.848 102.778 M151.990 103.261 C 150.741 103.437,150.086 103.816,146.684 106.339 C 145.485 107.227,142.712 109.261,140.521 110.859 C 138.330 112.456,135.390 114.606,133.988 115.636 C 132.586 116.667,130.871 117.926,130.177 118.434 C 129.482 118.943,127.768 120.202,126.367 121.232 C 124.966 122.263,121.803 124.583,119.337 126.389 C 116.872 128.194,113.618 130.581,112.106 131.692 C 110.594 132.803,107.804 134.848,105.906 136.237 C 104.007 137.626,101.305 139.607,99.901 140.640 C 95.622 143.786,93.902 145.049,91.766 146.610 C 90.641 147.433,88.254 149.184,86.463 150.501 C 84.672 151.818,81.275 154.305,78.914 156.029 C 76.553 157.753,73.769 159.792,72.727 160.562 C 69.297 163.096,66.057 165.480,64.646 166.509 C 59.928 169.950,59.869 170.003,59.857 170.882 C 59.848 171.465,60.703 172.226,61.357 172.217 C 61.569 172.214,64.072 170.507,66.919 168.424 C 69.766 166.340,73.801 163.389,75.884 161.865 C 77.967 160.341,81.376 157.842,83.460 156.311 C 85.543 154.780,87.986 152.994,88.889 152.343 C 89.792 151.691,92.008 150.067,93.813 148.734 C 95.619 147.401,98.329 145.407,99.836 144.304 C 101.343 143.201,103.616 141.531,104.887 140.593 L 107.197 138.888 107.323 179.482 L 107.449 220.076 114.583 220.082 L 121.717 220.088 114.647 220.015 L 107.576 219.942 107.576 179.430 C 107.576 155.214,107.483 138.861,107.345 138.776 C 107.157 138.660,66.960 167.884,63.510 170.645 C 61.741 172.061,61.164 172.221,60.496 171.483 C 59.670 170.570,60.257 170.055,71.669 161.688 C 77.876 157.137,83.880 152.731,85.011 151.896 C 86.142 151.062,88.244 149.517,89.683 148.464 C 94.362 145.038,108.647 134.567,111.237 132.665 C 116.077 129.110,121.357 125.237,123.990 123.310 C 125.448 122.242,128.516 119.991,130.808 118.307 C 133.100 116.624,137.057 113.719,139.602 111.853 C 142.147 109.987,145.669 107.404,147.429 106.113 C 149.189 104.822,150.857 103.720,151.135 103.664 C 151.414 103.608,152.551 103.458,153.662 103.332 C 155.212 103.155,155.388 103.101,154.419 103.100 C 153.725 103.099,152.631 103.171,151.990 103.261 M179.545 103.283 L 178.409 103.459 179.672 103.479 C 180.366 103.489,181.446 103.407,182.071 103.296 L 183.207 103.094 181.944 103.100 C 181.250 103.103,180.170 103.186,179.545 103.283 M174.369 103.788 L 173.359 103.969 174.369 103.986 C 174.924 103.995,175.890 103.912,176.515 103.801 L 177.652 103.599 176.515 103.603 C 175.890 103.605,174.924 103.688,174.369 103.788 M168.939 104.293 L 167.803 104.470 169.066 104.493 C 169.760 104.506,170.783 104.422,171.338 104.307 L 172.348 104.098 171.212 104.107 C 170.587 104.112,169.564 104.196,168.939 104.293 M163.510 104.798 L 162.247 104.971 163.636 104.996 C 164.400 105.010,165.480 104.927,166.035 104.812 L 167.045 104.604 165.909 104.614 C 165.284 104.620,164.205 104.703,163.510 104.798 M158.207 105.303 L 156.944 105.476 158.333 105.501 C 159.097 105.515,160.177 105.432,160.732 105.318 L 161.742 105.109 160.606 105.119 C 159.981 105.125,158.902 105.208,158.207 105.303 M153.030 105.808 L 151.894 105.985 153.283 105.993 C 154.047 105.997,155.013 105.914,155.429 105.808 C 156.459 105.546,154.715 105.546,153.030 105.808 M147.592 108.915 C 145.503 110.470,141.545 113.390,138.797 115.404 C 136.048 117.418,132.132 120.288,130.094 121.782 C 128.056 123.276,124.684 125.746,122.601 127.270 C 111.656 135.280,109.465 136.901,109.226 137.162 C 108.806 137.621,109.557 137.168,111.111 136.025 C 111.875 135.463,113.068 134.592,113.763 134.088 C 114.457 133.585,116.105 132.377,117.424 131.405 C 118.744 130.433,120.704 128.992,121.780 128.203 C 122.857 127.413,124.561 126.161,125.568 125.420 C 129.442 122.569,136.103 117.687,138.736 115.768 C 140.249 114.665,142.636 112.919,144.039 111.889 C 145.443 110.858,147.159 109.601,147.854 109.095 C 150.490 107.173,151.768 106.207,151.768 106.135 C 151.768 105.869,150.967 106.403,147.592 108.915 M197.391 121.128 C 197.298 121.221,197.222 139.573,197.222 161.911 L 197.222 202.525 196.213 202.525 L 195.204 202.525 195.140 170.013 L 195.076 137.500 152.399 137.499 L 109.722 137.498 152.335 137.563 L 194.948 137.628 195.012 170.140 L 195.076 202.652 196.212 202.652 L 197.348 202.652 197.475 161.806 C 197.544 139.340,197.592 120.960,197.580 120.960 C 197.568 120.960,197.483 121.035,197.391 121.128 M105.088 142.829 C 104.576 143.409,104.843 143.457,105.520 142.908 C 105.861 142.632,105.969 142.428,105.773 142.434 C 105.584 142.439,105.276 142.617,105.088 142.829 M98.100 149.753 C 97.419 150.445,96.946 151.010,97.049 151.010 C 97.304 151.010,99.569 148.727,99.441 148.599 C 99.384 148.543,98.781 149.062,98.100 149.753 M85.395 162.541 C 82.293 165.666,79.798 168.266,79.851 168.319 C 79.904 168.372,82.555 165.806,85.742 162.617 C 88.929 159.428,91.424 156.827,91.286 156.839 C 91.148 156.850,88.497 159.416,85.395 162.541 M73.104 174.750 C 72.706 175.165,72.464 175.505,72.565 175.505 C 72.826 175.505,74.067 174.235,73.935 174.103 C 73.876 174.044,73.501 174.335,73.104 174.750 M60.395 187.541 C 56.737 191.222,53.788 194.276,53.841 194.329 C 53.894 194.382,56.999 191.361,60.742 187.617 C 64.485 183.872,67.434 180.817,67.296 180.829 C 67.158 180.840,64.053 183.861,60.395 187.541 M326.136 187.413 C 325.025 187.547,323.718 187.753,323.232 187.873 C 321.442 188.312,320.061 188.700,319.508 188.918 C 319.195 189.041,318.684 189.241,318.371 189.363 C 316.976 189.907,314.224 191.324,313.778 191.728 C 313.509 191.972,313.198 192.172,313.087 192.172 C 312.660 192.172,309.897 194.473,308.192 196.249 C 299.491 205.311,297.362 218.652,302.800 230.043 C 304.694 234.010,303.193 233.586,315.331 233.586 L 325.785 233.586 325.708 234.785 L 325.631 235.985 316.073 236.111 L 306.514 236.237 308.749 238.396 C 309.979 239.583,311.354 240.772,311.806 241.039 C 312.257 241.305,312.626 241.612,312.626 241.721 C 312.626 241.830,312.748 241.919,312.896 241.919 C 313.045 241.919,313.642 242.236,314.222 242.623 C 315.207 243.280,317.053 244.217,318.371 244.729 C 318.684 244.850,319.195 245.050,319.508 245.173 C 320.032 245.380,321.164 245.701,322.727 246.088 C 325.998 246.897,332.584 246.832,335.732 245.959 C 336.288 245.805,337.083 245.586,337.500 245.473 C 339.451 244.943,342.287 243.672,343.859 242.623 C 344.439 242.236,344.978 241.919,345.055 241.919 C 345.196 241.919,345.971 241.318,346.601 240.720 C 346.784 240.546,347.003 240.404,347.088 240.404 C 347.430 240.404,351.023 236.627,352.322 234.903 C 356.518 229.333,358.845 221.086,358.100 214.422 C 357.935 212.948,357.702 211.345,357.582 210.859 C 357.052 208.704,356.753 207.672,356.541 207.264 C 356.416 207.022,356.313 206.691,356.313 206.528 C 356.313 204.133,349.411 194.905,346.202 193.009 C 345.791 192.767,345.455 192.479,345.455 192.370 C 345.455 192.261,345.333 192.172,345.184 192.172 C 345.036 192.172,344.439 191.855,343.859 191.467 C 342.867 190.806,341.080 189.900,339.646 189.332 C 339.299 189.195,338.818 188.982,338.577 188.859 C 338.335 188.737,337.859 188.636,337.518 188.636 C 337.177 188.636,336.836 188.535,336.760 188.412 C 336.614 188.175,335.782 188.002,333.081 187.646 C 329.943 187.233,328.145 187.173,326.136 187.413 M150.379 188.889 C 149.823 189.012,148.779 189.119,148.058 189.127 C 147.337 189.135,146.677 189.255,146.591 189.394 C 146.505 189.533,146.051 189.646,145.581 189.646 C 145.111 189.646,144.657 189.760,144.571 189.899 C 144.485 190.038,144.193 190.152,143.921 190.152 C 143.650 190.152,143.230 190.252,142.989 190.375 C 142.748 190.497,142.266 190.711,141.919 190.849 C 140.834 191.280,137.759 192.785,137.626 192.950 C 137.557 193.036,137.231 193.248,136.902 193.421 C 128.520 197.839,122.222 210.957,123.461 221.418 C 124.485 230.063,129.594 239.188,135.296 242.557 C 135.744 242.821,136.111 243.127,136.111 243.236 C 136.111 243.345,136.233 243.434,136.381 243.434 C 136.530 243.434,137.126 243.751,137.707 244.139 C 139.293 245.197,142.180 246.487,144.066 246.980 C 144.482 247.089,145.505 247.377,146.338 247.619 C 147.537 247.967,148.829 248.059,152.525 248.059 C 156.221 248.059,157.513 247.967,158.712 247.619 C 159.545 247.377,160.568 247.089,160.985 246.980 C 162.870 246.487,165.758 245.197,167.343 244.139 C 167.924 243.751,168.511 243.434,168.648 243.434 C 168.785 243.434,168.935 243.345,168.981 243.236 C 169.028 243.126,169.577 242.643,170.202 242.163 C 179.063 235.345,183.604 222.835,181.039 212.311 C 180.496 210.081,180.240 209.191,180.026 208.779 C 179.901 208.538,179.798 208.228,179.798 208.092 C 179.798 207.955,179.511 207.216,179.160 206.449 L 178.523 205.055 165.461 204.990 L 152.399 204.924 152.322 203.725 L 152.245 202.525 164.506 202.525 C 173.053 202.525,176.768 202.443,176.768 202.255 C 176.768 201.274,171.691 195.709,169.751 194.562 C 169.304 194.299,168.939 193.994,168.939 193.885 C 168.939 193.776,168.818 193.687,168.669 193.687 C 168.521 193.687,167.924 193.370,167.343 192.983 C 165.190 191.546,160.526 189.646,159.151 189.646 C 158.857 189.646,158.555 189.548,158.480 189.428 C 158.355 189.225,157.306 189.101,153.030 188.786 C 152.128 188.719,150.934 188.766,150.379 188.889 M238.120 188.725 C 238.044 188.805,237.021 188.985,235.847 189.125 C 232.769 189.493,231.832 189.673,231.675 189.927 C 231.598 190.050,231.257 190.152,230.916 190.152 C 230.319 190.152,230.088 190.232,228.854 190.870 C 228.544 191.030,228.118 191.162,227.907 191.162 C 227.697 191.162,227.525 191.275,227.525 191.414 C 227.525 191.553,227.377 191.667,227.197 191.667 C 226.732 191.667,225.509 192.261,225.507 192.487 C 225.506 192.592,225.383 192.677,225.235 192.677 C 224.376 192.677,219.279 196.864,217.536 199.003 C 216.850 199.845,216.032 200.840,215.720 201.214 C 214.604 202.550,214.343 202.515,225.694 202.586 L 236.237 202.652 236.237 203.788 L 236.237 204.924 224.821 204.990 L 213.405 205.056 212.994 206.000 C 212.769 206.519,212.480 207.142,212.353 207.383 C 212.225 207.624,212.121 208.044,212.121 208.315 C 212.121 208.586,212.008 208.879,211.869 208.965 C 211.730 209.050,211.616 209.391,211.616 209.722 C 211.616 210.053,211.515 210.387,211.390 210.463 C 210.593 210.956,210.067 218.757,210.580 222.475 C 211.089 226.155,211.158 226.514,211.390 226.658 C 211.515 226.735,211.616 227.068,211.616 227.399 C 211.616 227.730,211.730 228.071,211.869 228.157 C 212.008 228.242,212.121 228.522,212.121 228.779 C 212.121 229.035,212.365 229.739,212.662 230.342 C 212.960 230.946,213.325 231.723,213.475 232.071 C 213.625 232.418,214.063 233.177,214.449 233.758 C 214.836 234.338,215.152 234.877,215.152 234.955 C 215.152 235.715,219.958 240.808,222.439 242.677 C 224.033 243.878,228.884 246.465,229.542 246.465 C 229.686 246.465,230.002 246.567,230.243 246.693 C 230.484 246.818,231.136 247.038,231.692 247.182 C 232.247 247.325,233.270 247.589,233.965 247.768 C 235.709 248.218,243.099 248.212,245.076 247.759 C 248.627 246.945,252.021 245.600,254.212 244.139 C 254.793 243.751,255.331 243.434,255.409 243.434 C 256.107 243.434,262.879 237.014,262.879 236.353 C 262.879 236.203,258.976 236.110,252.588 236.107 C 241.372 236.103,241.595 236.132,241.712 234.697 L 241.793 233.712 253.346 233.646 C 263.383 233.589,264.899 233.531,264.899 233.205 C 264.899 232.998,265.013 232.828,265.152 232.828 C 265.290 232.828,265.404 232.683,265.404 232.506 C 265.404 232.329,265.741 231.505,266.154 230.675 C 266.566 229.846,266.907 228.975,266.911 228.740 C 266.916 228.505,267.020 228.251,267.143 228.175 C 267.265 228.099,267.429 227.723,267.506 227.339 C 267.583 226.955,267.771 226.130,267.924 225.505 C 269.125 220.598,268.722 212.062,267.147 209.031 C 267.022 208.790,266.919 208.447,266.919 208.270 C 266.919 207.924,265.628 205.082,264.998 204.040 C 264.787 203.693,264.552 203.210,264.475 202.967 C 264.398 202.724,264.235 202.525,264.112 202.525 C 263.989 202.525,263.889 202.376,263.889 202.194 C 263.889 202.012,263.690 201.643,263.447 201.373 C 263.204 201.104,262.689 200.461,262.303 199.944 C 260.704 197.803,255.967 193.650,254.230 192.867 C 253.848 192.694,253.535 192.468,253.535 192.363 C 253.535 192.258,253.308 192.172,253.030 192.172 C 252.753 192.172,252.525 192.058,252.525 191.919 C 252.525 191.780,252.298 191.667,252.020 191.667 C 251.742 191.667,251.515 191.553,251.515 191.414 C 251.515 191.275,251.295 191.162,251.025 191.162 C 250.755 191.162,250.465 191.048,250.379 190.909 C 250.293 190.770,249.952 190.657,249.621 190.657 C 249.290 190.657,248.949 190.543,248.864 190.404 C 248.778 190.265,248.437 190.152,248.106 190.152 C 247.775 190.152,247.442 190.050,247.366 189.927 C 247.219 189.690,246.454 189.531,243.561 189.137 C 240.767 188.756,238.270 188.567,238.120 188.725 M48.104 199.750 C 47.706 200.165,47.464 200.505,47.565 200.505 C 47.826 200.505,49.067 199.235,48.935 199.103 C 48.876 199.044,48.501 199.335,48.104 199.750 M195.130 204.954 C 195.031 205.054,194.949 208.466,194.949 212.538 L 194.949 219.940 189.078 220.015 L 183.207 220.089 189.141 220.083 L 195.076 220.076 195.143 212.563 L 195.210 205.051 196.212 205.051 L 197.215 205.051 197.287 212.374 L 197.360 219.697 197.354 212.311 L 197.348 204.924 196.329 204.849 C 195.769 204.808,195.229 204.855,195.130 204.954 M34.886 213.050 C 30.612 217.349,27.818 220.344,27.955 220.480 C 28.090 220.615,44.144 220.682,67.185 220.644 L 106.187 220.579 67.047 220.517 L 27.907 220.455 35.227 213.131 C 39.253 209.104,42.434 205.817,42.296 205.829 C 42.158 205.840,38.824 209.090,34.886 213.050 M287.878 220.013 C 287.879 220.117,290.237 220.179,293.119 220.152 C 298.392 220.101,297.777 220.010,291.351 219.889 C 289.441 219.853,287.878 219.908,287.878 220.013 M203.093 220.139 L 208.838 220.212 208.856 221.406 C 208.866 222.063,208.974 222.828,209.096 223.106 C 209.309 223.591,209.177 220.997,208.951 220.265 C 208.877 220.022,207.525 219.963,203.101 220.008 L 197.348 220.066 203.093 220.139 M270.088 220.265 C 269.876 220.950,269.732 223.354,269.941 222.727 C 270.057 222.380,270.163 221.672,270.177 221.153 L 270.202 220.210 277.715 220.139 L 285.227 220.068 277.707 220.009 C 271.869 219.963,270.164 220.020,270.088 220.265 M298.529 220.833 C 298.521 221.111,298.608 221.793,298.723 222.348 C 298.899 223.198,298.932 223.238,298.931 222.601 C 298.930 221.716,298.553 220.057,298.529 220.833 M182.869 221.622 C 182.846 221.918,182.768 222.543,182.695 223.011 C 182.573 223.792,182.585 223.811,182.833 223.241 C 182.983 222.899,183.061 222.274,183.007 221.852 C 182.949 221.399,182.893 221.305,182.869 221.622 M122.025 222.475 C 122.027 222.822,122.116 223.447,122.222 223.864 L 122.415 224.621 122.420 223.864 C 122.422 223.447,122.333 222.822,122.222 222.475 L 122.020 221.843 122.025 222.475 M358.868 223.401 C 358.852 223.563,358.765 223.904,358.675 224.159 C 358.548 224.518,358.582 224.556,358.825 224.332 C 358.997 224.174,359.084 223.833,359.018 223.575 C 358.951 223.317,358.884 223.239,358.868 223.401 M269.482 224.142 C 269.461 224.572,269.340 225.254,269.213 225.657 C 268.854 226.792,268.630 227.919,268.796 227.752 C 269.096 227.453,269.717 224.620,269.620 223.997 C 269.533 223.442,269.515 223.461,269.482 224.142 M299.033 223.737 C 299.046 224.394,299.443 225.471,299.452 224.874 C 299.456 224.596,299.362 224.141,299.242 223.864 C 299.109 223.554,299.028 223.505,299.033 223.737 M209.347 224.642 C 209.349 225.047,209.467 225.549,209.609 225.758 C 209.794 226.029,209.819 225.850,209.698 225.126 C 209.488 223.874,209.342 223.672,209.347 224.642 M182.215 225.397 C 182.122 225.767,182.103 226.127,182.172 226.196 C 182.242 226.265,182.375 226.019,182.468 225.649 C 182.560 225.279,182.580 224.920,182.510 224.850 C 182.441 224.781,182.308 225.027,182.215 225.397 M122.510 225.253 C 122.510 225.461,122.608 225.859,122.727 226.136 C 122.864 226.455,122.944 226.501,122.944 226.263 C 122.944 226.054,122.847 225.657,122.727 225.379 C 122.590 225.060,122.510 225.014,122.510 225.253 M358.363 225.421 C 358.347 225.584,358.260 225.924,358.170 226.179 C 358.043 226.538,358.077 226.577,358.320 226.353 C 358.492 226.194,358.579 225.853,358.513 225.595 C 358.446 225.337,358.379 225.259,358.363 225.421 M299.530 225.758 C 299.530 225.966,299.628 226.364,299.747 226.641 C 299.884 226.960,299.965 227.006,299.965 226.768 C 299.965 226.559,299.867 226.162,299.747 225.884 C 299.611 225.565,299.530 225.519,299.530 225.758 M209.878 226.768 C 209.866 227.115,209.966 227.569,210.101 227.778 C 210.413 228.260,210.413 227.741,210.101 226.768 L 209.899 226.136 209.878 226.768 M181.847 226.936 C 181.831 227.099,181.745 227.440,181.655 227.694 C 181.528 228.053,181.562 228.092,181.805 227.868 C 181.977 227.709,182.064 227.368,181.997 227.110 C 181.931 226.852,181.864 226.774,181.847 226.936 M300.159 227.778 C 300.249 228.125,300.647 229.122,301.045 229.994 C 301.442 230.865,301.768 231.746,301.768 231.951 C 301.768 232.156,301.854 232.323,301.959 232.323 C 302.065 232.323,302.293 232.551,302.467 232.828 C 302.781 233.332,302.719 233.333,284.724 233.333 C 274.793 233.333,266.667 233.241,266.667 233.128 C 266.667 233.016,266.894 232.680,267.172 232.381 C 267.449 232.083,267.673 231.579,267.669 231.261 C 267.662 230.727,266.423 232.839,266.416 233.396 C 266.415 233.501,274.653 233.586,284.722 233.586 C 294.792 233.586,303.028 233.501,303.025 233.396 C 303.022 233.292,302.797 232.923,302.525 232.576 C 302.254 232.229,302.029 231.862,302.026 231.761 C 302.021 231.591,300.997 229.227,300.301 227.778 L 299.997 227.146 300.159 227.778 M123.493 228.788 C 123.493 228.996,123.603 229.337,123.737 229.545 C 123.955 229.882,123.982 229.882,123.982 229.545 C 123.982 229.337,123.872 228.996,123.737 228.788 C 123.520 228.451,123.493 228.451,123.493 228.788 M356.347 230.737 C 356.051 231.401,355.516 232.456,355.160 233.081 C 354.803 233.706,354.718 233.936,354.971 233.591 C 355.223 233.247,355.628 232.764,355.871 232.518 C 356.114 232.272,356.313 231.895,356.313 231.679 C 356.313 231.464,356.492 230.942,356.711 230.520 C 356.929 230.097,357.058 229.701,356.997 229.641 C 356.937 229.580,356.644 230.073,356.347 230.737 M211.384 231.261 C 211.373 231.579,211.604 232.090,211.898 232.397 L 212.432 232.955 212.059 232.197 C 211.853 231.780,211.622 231.269,211.544 231.061 C 211.453 230.814,211.397 230.883,211.384 231.261 M180.057 231.818 C 179.863 232.304,179.653 232.816,179.591 232.955 C 179.528 233.093,179.728 232.894,180.035 232.512 C 180.342 232.130,180.551 231.619,180.501 231.376 C 180.437 231.066,180.305 231.197,180.057 231.818 M124.496 231.515 C 124.493 232.871,129.242 239.273,132.212 241.919 C 132.758 242.405,132.234 241.780,131.048 240.530 C 128.506 237.853,127.407 236.377,125.732 233.390 C 125.052 232.178,124.496 231.334,124.496 231.515 M178.982 233.902 C 178.780 234.214,178.476 234.754,178.308 235.101 C 177.879 235.987,178.658 235.042,179.192 234.028 C 179.633 233.191,179.497 233.109,178.982 233.902 M213.397 234.975 C 213.401 235.309,214.105 236.232,214.248 236.089 C 214.309 236.028,214.142 235.695,213.877 235.350 C 213.612 235.005,213.396 234.836,213.397 234.975 M284.621 236.048 L 304.721 236.114 305.906 237.591 C 306.557 238.403,307.398 239.327,307.775 239.644 C 308.151 239.962,308.744 240.459,309.091 240.750 C 309.438 241.041,308.826 240.359,307.731 239.234 C 306.636 238.109,305.559 236.889,305.337 236.523 L 304.934 235.859 284.727 235.920 L 264.520 235.982 284.621 236.048 M214.394 236.459 C 214.394 236.567,215.065 237.471,215.884 238.467 C 217.459 240.380,219.444 242.401,219.444 242.089 C 219.444 241.987,219.058 241.565,218.586 241.150 C 218.114 240.736,217.069 239.575,216.264 238.570 C 214.355 236.187,214.394 236.231,214.394 236.459 M176.593 237.563 C 176.204 238.084,175.829 238.571,175.759 238.645 C 175.689 238.719,174.779 239.685,173.737 240.792 L 171.844 242.803 173.921 240.795 C 175.768 239.009,177.776 236.616,177.428 236.616 C 177.357 236.616,176.981 237.042,176.593 237.563 M350.253 239.231 C 348.845 240.752,348.683 240.987,349.621 240.146 C 351.118 238.805,352.674 237.108,352.365 237.153 C 352.245 237.171,351.294 238.106,350.253 239.231 M261.237 240.238 C 260.265 241.252,258.522 242.784,257.364 243.642 C 256.207 244.500,255.354 245.202,255.471 245.201 C 256.082 245.198,260.707 241.335,262.120 239.648 C 263.595 237.886,263.308 238.078,261.237 240.238 M219.707 242.360 C 219.733 242.879,226.598 247.210,227.399 247.214 C 227.538 247.215,226.652 246.677,225.430 246.019 C 224.208 245.361,222.419 244.226,221.453 243.497 C 220.487 242.767,219.701 242.256,219.707 242.360 M311.111 242.300 C 311.111 242.496,312.895 243.754,313.010 243.640 C 313.075 243.575,312.674 243.225,312.120 242.862 C 311.565 242.498,311.111 242.246,311.111 242.300 M133.336 242.853 C 133.338 242.965,133.736 243.312,134.220 243.626 C 135.355 244.361,135.354 244.192,134.217 243.325 C 133.731 242.954,133.335 242.742,133.336 242.853 M170.707 243.465 C 169.827 244.237,169.827 244.238,170.636 243.699 C 171.083 243.402,171.516 243.050,171.598 242.918 C 171.842 242.523,171.640 242.648,170.707 243.465 M343.939 244.020 C 343.176 244.471,341.869 245.146,341.035 245.521 C 340.202 245.896,339.673 246.205,339.861 246.207 C 340.315 246.214,344.152 244.314,344.949 243.689 C 345.860 242.974,345.528 243.083,343.939 244.020 M313.889 244.169 C 314.236 244.453,314.634 244.687,314.773 244.687 C 315.043 244.689,314.586 244.340,313.763 243.914 C 313.427 243.741,313.470 243.826,313.889 244.169 M135.363 244.380 C 135.373 244.585,138.162 246.266,138.285 246.143 C 138.326 246.102,137.683 245.646,136.856 245.129 C 136.030 244.613,135.358 244.276,135.363 244.380 M167.803 245.288 C 166.831 245.879,165.354 246.668,164.520 247.040 C 163.687 247.413,163.154 247.720,163.337 247.722 C 164.060 247.733,169.697 244.684,169.697 244.282 C 169.697 244.139,169.665 244.156,167.803 245.288 M316.288 245.394 C 316.619 245.693,319.179 246.722,319.541 246.701 C 319.839 246.684,319.646 246.594,317.424 245.715 C 316.660 245.413,316.149 245.269,316.288 245.394 M252.778 246.465 C 252.014 246.868,251.478 247.204,251.587 247.210 C 251.855 247.226,254.293 245.982,254.293 245.829 C 254.293 245.660,254.328 245.646,252.778 246.465 M138.636 246.316 C 138.636 246.620,142.677 248.256,144.697 248.770 C 148.144 249.647,154.635 250.060,156.555 249.524 C 156.896 249.429,155.603 249.397,153.681 249.453 C 148.176 249.614,143.123 248.535,138.826 246.282 C 138.722 246.227,138.636 246.243,138.636 246.316 M338.258 246.598 C 337.702 246.798,337.020 246.973,336.742 246.986 C 336.422 247.001,336.363 247.060,336.582 247.147 C 336.946 247.291,338.848 246.775,339.255 246.421 C 339.571 246.146,339.456 246.166,338.258 246.598 M319.975 246.827 C 320.258 247.110,323.085 247.749,323.601 247.646 C 324.004 247.566,323.973 247.536,323.459 247.509 C 323.098 247.490,322.473 247.371,322.071 247.243 C 320.935 246.884,319.808 246.660,319.975 246.827 M227.928 247.437 C 228.214 247.678,231.179 248.650,232.197 248.837 C 233.537 249.083,232.496 248.707,228.307 247.430 C 227.973 247.328,227.802 247.332,227.928 247.437 M249.747 247.727 C 249.122 247.990,248.725 248.209,248.864 248.214 C 249.211 248.229,250.961 247.608,251.174 247.395 C 251.464 247.105,250.941 247.227,249.747 247.727 M334.722 247.475 L 333.712 247.656 334.596 247.688 C 335.082 247.705,335.650 247.609,335.859 247.475 C 336.272 247.208,336.214 247.208,334.722 247.475 M161.237 248.232 C 160.404 248.487,159.879 248.706,160.072 248.717 C 160.556 248.745,162.448 248.193,162.740 247.937 C 163.037 247.677,163.073 247.670,161.237 248.232 M324.796 248.018 C 325.116 248.108,326.970 248.182,328.914 248.182 C 330.859 248.182,332.712 248.108,333.033 248.018 C 333.353 247.927,331.500 247.854,328.914 247.854 C 326.328 247.854,324.475 247.927,324.796 248.018 M246.717 248.607 C 245.953 248.793,244.817 249.060,244.192 249.202 L 243.056 249.459 244.318 249.322 C 245.661 249.175,248.222 248.580,248.439 248.362 C 248.625 248.176,248.290 248.224,246.717 248.607 M158.207 248.990 L 157.197 249.171 158.081 249.203 C 158.567 249.220,159.135 249.125,159.343 248.990 C 159.757 248.723,159.698 248.723,158.207 248.990 M233.396 249.164 C 233.640 249.227,234.037 249.227,234.280 249.164 C 234.523 249.100,234.324 249.048,233.838 249.048 C 233.352 249.048,233.153 249.100,233.396 249.164 M235.374 249.526 C 235.710 249.620,237.576 249.693,239.520 249.688 C 241.465 249.683,242.828 249.642,242.551 249.598 C 241.506 249.430,234.790 249.363,235.374 249.526 " stroke="none" fill="#afabab" fill-rule="evenodd"></path><path id="path3" d="M325.310 32.569 C 319.096 34.830,319.495 34.595,320.214 35.568 C 320.523 35.986,320.717 36.479,320.645 36.665 C 320.532 36.962,301.273 51.143,295.455 55.216 C 294.274 56.042,291.319 58.197,288.889 60.005 C 286.458 61.813,280.833 65.944,276.389 69.185 C 271.944 72.426,267.440 75.714,266.379 76.491 C 265.317 77.268,263.499 78.596,262.338 79.442 C 261.177 80.288,256.023 84.047,250.884 87.796 C 239.773 95.902,241.160 95.103,237.615 95.434 C 236.024 95.583,233.529 95.819,232.071 95.959 C 226.832 96.462,223.821 96.747,221.275 96.983 C 218.843 97.208,217.093 97.373,210.795 97.974 C 205.985 98.433,202.663 98.747,200.000 98.995 C 198.542 99.131,196.127 99.356,194.634 99.495 C 193.141 99.634,190.726 99.861,189.268 100.000 C 187.809 100.139,185.395 100.369,183.902 100.511 C 182.408 100.653,179.994 100.883,178.535 101.023 C 177.077 101.163,174.634 101.393,173.106 101.534 C 171.578 101.676,169.249 101.894,167.929 102.020 C 166.610 102.146,164.280 102.365,162.753 102.507 C 161.225 102.648,158.782 102.879,157.323 103.019 C 155.865 103.160,153.835 103.351,152.812 103.444 C 150.720 103.636,150.795 103.593,145.076 107.827 C 143.270 109.164,140.316 111.340,138.510 112.663 C 136.705 113.986,133.295 116.486,130.934 118.219 C 128.573 119.951,125.448 122.242,123.990 123.310 C 121.357 125.237,116.077 129.110,111.237 132.665 C 108.647 134.567,94.362 145.038,89.683 148.464 C 88.244 149.517,86.142 151.062,85.011 151.896 C 83.880 152.731,77.876 157.137,71.669 161.688 C 60.257 170.055,59.670 170.570,60.496 171.483 C 61.066 172.113,61.484 172.097,62.461 171.408 C 63.333 170.794,63.412 170.735,64.520 169.873 C 65.813 168.867,106.906 138.778,107.352 138.510 C 107.584 138.371,109.364 137.064,111.307 135.606 C 113.251 134.148,116.627 131.648,118.811 130.051 C 120.994 128.453,124.403 125.953,126.386 124.495 C 128.369 123.037,130.942 121.150,132.104 120.302 C 136.571 117.043,144.223 111.425,147.801 108.779 C 152.011 105.665,151.227 105.930,158.081 105.310 C 159.817 105.152,162.317 104.921,163.636 104.795 C 164.956 104.670,167.342 104.446,168.939 104.298 C 171.812 104.032,174.515 103.773,179.419 103.296 C 180.808 103.161,183.251 102.930,184.848 102.782 C 186.446 102.635,188.889 102.405,190.278 102.273 C 191.667 102.140,194.110 101.910,195.707 101.762 C 198.678 101.485,202.058 101.165,206.313 100.756 C 207.633 100.629,210.019 100.405,211.616 100.257 C 216.579 99.798,223.080 99.179,227.525 98.742 C 228.845 98.612,231.402 98.374,233.207 98.214 C 235.013 98.053,237.694 97.786,239.165 97.620 L 241.840 97.317 246.235 94.117 C 248.653 92.357,252.227 89.750,254.177 88.324 C 256.127 86.899,263.058 81.841,269.581 77.085 C 276.103 72.329,282.839 67.414,284.549 66.163 C 286.259 64.912,287.714 63.889,287.783 63.889 C 287.852 63.889,288.328 63.562,288.841 63.162 C 289.353 62.762,291.989 60.825,294.697 58.857 C 297.405 56.888,299.848 55.089,300.126 54.858 C 300.575 54.486,312.192 45.983,316.387 42.957 C 317.274 42.317,318.883 41.140,319.962 40.341 C 322.218 38.671,322.496 38.612,323.234 39.649 C 323.532 40.068,323.874 40.349,323.994 40.275 C 324.199 40.149,330.748 31.546,331.153 30.871 C 331.457 30.366,330.998 30.499,325.310 32.569 " stroke="none" fill="#fa1212" fill-rule="evenodd"></path><path id="path4" d="M375.377 137.500 C 375.377 182.917,375.406 201.459,375.442 178.704 C 375.477 155.950,375.477 118.791,375.442 96.129 C 375.406 73.466,375.377 92.083,375.377 137.500 M287.971 57.702 C 287.972 59.091,288.014 59.627,288.065 58.893 C 288.116 58.159,288.116 57.023,288.064 56.368 C 288.012 55.713,287.970 56.313,287.971 57.702 M288.003 141.793 C 288.003 184.710,288.033 202.229,288.068 180.725 C 288.104 159.220,288.104 124.107,288.068 102.694 C 288.033 81.282,288.003 98.876,288.003 141.793 M197.592 121.275 C 197.527 121.449,197.445 139.830,197.411 162.121 L 197.348 202.652 196.504 202.732 C 196.039 202.777,195.475 202.743,195.251 202.657 C 195.027 202.571,190.964 202.509,186.223 202.519 L 177.604 202.537 176.253 200.700 C 173.503 196.960,169.548 193.601,165.510 191.578 C 162.602 190.120,158.028 188.695,158.450 189.378 C 158.541 189.526,158.857 189.646,159.151 189.646 C 159.680 189.646,160.894 189.984,162.121 190.473 C 162.468 190.611,162.980 190.808,163.258 190.911 C 164.410 191.337,166.356 192.324,167.343 192.983 C 167.924 193.370,168.521 193.687,168.669 193.687 C 168.818 193.687,168.939 193.776,168.939 193.885 C 168.939 193.994,169.304 194.299,169.751 194.562 C 171.691 195.709,176.768 201.274,176.768 202.255 C 176.768 202.443,173.053 202.525,164.506 202.525 L 152.245 202.525 152.322 203.725 L 152.399 204.924 165.461 204.990 L 178.523 205.055 179.160 206.449 C 179.511 207.216,179.798 207.955,179.798 208.092 C 179.798 208.228,179.901 208.538,180.026 208.779 C 180.240 209.191,180.496 210.081,181.039 212.311 C 183.604 222.835,179.063 235.345,170.202 242.163 C 169.577 242.643,169.028 243.126,168.981 243.236 C 168.935 243.345,168.785 243.434,168.648 243.434 C 168.511 243.434,167.924 243.754,167.343 244.146 C 166.763 244.537,165.853 245.058,165.320 245.304 C 164.788 245.549,164.408 245.805,164.475 245.873 C 164.830 246.228,169.295 243.391,171.763 241.242 C 179.252 234.722,183.230 224.153,181.795 214.588 C 181.362 211.698,180.433 208.383,179.500 206.398 C 178.823 204.960,177.891 205.106,188.258 205.021 L 197.348 204.945 197.480 212.511 L 197.612 220.076 197.670 212.563 L 197.727 205.051 205.303 205.051 C 209.470 205.051,212.878 205.136,212.878 205.240 C 212.877 205.344,212.551 206.230,212.152 207.209 C 211.142 209.686,210.356 213.047,210.216 215.487 C 210.065 218.093,210.261 217.737,210.609 214.773 C 211.013 211.338,211.144 210.616,211.390 210.463 C 211.515 210.387,211.616 210.053,211.616 209.722 C 211.616 209.391,211.730 209.050,211.869 208.965 C 212.008 208.879,212.121 208.586,212.121 208.315 C 212.121 208.044,212.225 207.624,212.353 207.383 C 212.480 207.142,212.769 206.519,212.994 206.000 L 213.405 205.056 224.821 204.990 L 236.237 204.924 236.237 203.788 L 236.237 202.652 225.694 202.586 C 214.343 202.515,214.604 202.550,215.720 201.214 C 216.032 200.840,216.850 199.845,217.536 199.003 C 219.279 196.864,224.376 192.677,225.235 192.677 C 225.383 192.677,225.506 192.592,225.507 192.487 C 225.509 192.261,226.732 191.667,227.197 191.667 C 227.377 191.667,227.525 191.553,227.525 191.414 C 227.525 191.275,227.697 191.162,227.907 191.162 C 228.118 191.162,228.515 191.048,228.791 190.909 C 229.067 190.770,229.519 190.543,229.795 190.404 C 230.070 190.265,230.575 190.152,230.916 190.152 C 231.257 190.152,231.598 190.050,231.675 189.927 C 231.851 189.642,233.096 189.430,239.015 188.675 C 241.541 188.354,239.599 188.332,236.669 188.649 C 228.037 189.584,220.041 194.303,215.404 201.198 L 214.520 202.512 206.124 202.519 L 197.727 202.525 197.727 161.869 L 197.727 121.212 241.287 121.212 L 284.847 121.212 284.912 170.518 L 284.977 219.823 284.976 170.455 L 284.975 121.086 241.343 121.022 C 206.571 120.971,197.688 121.022,197.592 121.275 M98.497 149.740 C 94.601 153.625,91.414 156.891,91.414 156.999 C 91.414 157.106,94.652 153.957,98.610 150.001 L 105.806 142.808 105.871 181.694 L 105.936 220.581 105.998 181.629 C 106.038 157.056,105.972 142.677,105.820 142.677 C 105.687 142.677,102.392 145.855,98.497 149.740 M73.935 174.327 C 70.424 177.845,67.156 181.169,66.673 181.713 C 66.190 182.257,69.116 179.407,73.175 175.380 C 77.234 171.354,80.556 168.030,80.556 167.994 C 80.556 167.736,79.602 168.648,73.935 174.327 M328.598 187.043 C 328.842 187.106,329.239 187.106,329.482 187.043 C 329.725 186.979,329.527 186.927,329.040 186.927 C 328.554 186.927,328.355 186.979,328.598 187.043 M324.116 187.393 C 304.382 190.712,293.589 212.962,302.927 231.074 C 304.142 233.432,304.192 233.587,303.725 233.584 C 303.551 233.583,303.144 233.118,302.821 232.552 C 302.497 231.985,302.172 231.582,302.099 231.655 C 302.025 231.729,302.205 232.126,302.498 232.537 C 302.791 232.948,303.030 233.353,303.030 233.435 C 303.030 233.518,294.792 233.586,284.722 233.586 C 271.354 233.586,266.414 233.509,266.414 233.302 C 266.414 233.103,266.305 233.109,266.046 233.324 C 265.260 233.977,265.255 233.270,266.034 231.635 C 267.155 229.283,268.008 226.872,267.861 226.470 C 267.794 226.287,267.661 226.477,267.566 226.894 C 267.471 227.311,267.287 227.849,267.156 228.090 C 267.026 228.331,266.916 228.672,266.911 228.848 C 266.907 229.023,266.566 229.846,266.154 230.675 C 265.741 231.505,265.404 232.329,265.404 232.506 C 265.404 232.683,265.290 232.828,265.152 232.828 C 265.013 232.828,264.899 232.998,264.899 233.205 C 264.899 233.531,263.383 233.589,253.346 233.646 L 241.793 233.712 241.712 234.697 C 241.595 236.132,241.372 236.103,252.588 236.107 C 258.976 236.110,262.879 236.203,262.879 236.353 C 262.879 237.014,256.107 243.434,255.409 243.434 C 255.331 243.434,254.793 243.751,254.212 244.139 C 253.278 244.762,251.634 245.605,250.126 246.234 C 249.848 246.350,249.001 246.641,248.244 246.880 C 247.486 247.119,247.000 247.359,247.164 247.413 C 249.529 248.202,258.784 241.992,263.005 236.785 C 263.511 236.160,263.868 235.920,264.080 236.060 C 264.441 236.298,262.038 239.336,259.761 241.520 C 259.026 242.226,258.773 242.521,259.199 242.175 C 260.426 241.182,262.799 238.631,263.829 237.196 L 264.773 235.883 284.821 235.871 C 303.616 235.859,304.891 235.886,305.231 236.301 C 305.430 236.544,305.526 236.608,305.444 236.444 C 304.935 235.427,306.080 236.181,308.118 238.206 C 311.472 241.538,320.858 247.285,319.587 245.229 C 319.492 245.075,319.249 244.949,319.047 244.949 C 318.845 244.949,318.483 244.848,318.242 244.725 C 318.000 244.601,317.235 244.236,316.540 243.914 C 315.846 243.591,314.803 243.011,314.222 242.623 C 313.642 242.236,313.045 241.919,312.896 241.919 C 312.748 241.919,312.626 241.830,312.626 241.721 C 312.626 241.612,312.257 241.305,311.806 241.039 C 311.354 240.772,309.979 239.583,308.749 238.396 L 306.514 236.237 316.073 236.111 L 325.631 235.985 325.708 234.785 L 325.785 233.586 315.331 233.586 C 303.193 233.586,304.694 234.010,302.800 230.043 C 297.362 218.652,299.491 205.311,308.192 196.249 C 309.897 194.473,312.660 192.172,313.087 192.172 C 313.198 192.172,313.509 191.972,313.778 191.728 C 314.224 191.324,317.084 189.852,318.308 189.397 C 318.586 189.294,319.097 189.093,319.444 188.951 C 319.792 188.810,320.587 188.560,321.212 188.396 C 321.837 188.231,322.697 187.991,323.124 187.862 C 323.551 187.732,324.346 187.618,324.892 187.608 C 325.437 187.597,326.395 187.498,327.020 187.387 L 328.157 187.184 326.768 187.182 C 326.004 187.181,324.811 187.276,324.116 187.393 M330.177 187.240 C 330.316 187.307,331.395 187.476,332.576 187.614 C 335.638 187.972,336.601 188.156,336.760 188.412 C 336.836 188.535,337.177 188.636,337.518 188.636 C 337.859 188.636,338.335 188.737,338.577 188.859 C 338.818 188.982,339.299 189.195,339.646 189.332 C 341.080 189.900,342.867 190.806,343.859 191.467 C 344.439 191.855,345.036 192.172,345.184 192.172 C 345.333 192.172,345.455 192.261,345.455 192.370 C 345.455 192.479,345.791 192.767,346.202 193.009 C 349.411 194.905,356.313 204.133,356.313 206.528 C 356.313 206.691,356.416 207.022,356.541 207.264 C 356.752 207.669,356.929 208.282,357.562 210.795 C 359.453 218.309,357.275 228.328,352.322 234.903 C 351.064 236.573,347.433 240.404,347.109 240.404 C 346.975 240.404,346.189 241.017,345.571 241.604 C 345.388 241.777,345.165 241.919,345.076 241.919 C 344.987 241.919,344.439 242.236,343.859 242.623 C 342.127 243.779,339.389 244.945,336.616 245.708 C 334.405 246.317,334.141 246.422,334.771 246.445 C 335.542 246.472,340.303 244.885,341.947 244.051 C 348.898 240.529,354.307 234.345,356.785 227.088 C 358.878 220.956,359.118 216.180,357.650 209.854 C 355.180 199.207,346.716 190.586,336.062 187.866 C 334.317 187.421,329.494 186.907,330.177 187.240 M148.864 188.753 C 133.924 190.749,123.012 203.337,122.985 218.604 C 122.980 221.227,123.068 221.978,123.774 225.379 C 125.467 233.528,131.416 241.245,139.118 245.282 C 141.272 246.410,145.845 247.998,146.833 247.960 C 147.410 247.938,147.090 247.812,144.949 247.223 C 142.176 246.460,139.439 245.294,137.707 244.139 C 137.126 243.751,136.530 243.434,136.381 243.434 C 136.233 243.434,136.111 243.345,136.111 243.236 C 136.111 243.127,135.744 242.821,135.296 242.557 C 129.594 239.188,124.485 230.063,123.461 221.418 C 122.222 210.957,128.520 197.839,136.902 193.421 C 137.231 193.248,137.557 193.036,137.626 192.950 C 137.759 192.785,140.834 191.280,141.919 190.849 C 142.266 190.711,142.748 190.497,142.989 190.375 C 143.230 190.252,143.650 190.152,143.921 190.152 C 144.193 190.152,144.485 190.038,144.571 189.899 C 144.657 189.760,145.111 189.646,145.581 189.646 C 146.051 189.646,146.494 189.550,146.567 189.432 C 146.865 188.951,152.320 188.680,156.061 188.960 C 157.532 189.070,157.850 189.053,157.071 188.907 C 154.812 188.482,151.375 188.417,148.864 188.753 M240.921 188.719 C 240.997 188.802,242.019 188.985,243.193 189.125 C 246.271 189.493,247.209 189.673,247.366 189.927 C 247.442 190.050,247.775 190.152,248.106 190.152 C 248.437 190.152,248.778 190.265,248.864 190.404 C 248.949 190.543,249.290 190.657,249.621 190.657 C 249.952 190.657,250.293 190.770,250.379 190.909 C 250.465 191.048,250.755 191.162,251.025 191.162 C 251.295 191.162,251.515 191.275,251.515 191.414 C 251.515 191.553,251.742 191.667,252.020 191.667 C 252.298 191.667,252.525 191.780,252.525 191.919 C 252.525 192.058,252.753 192.172,253.030 192.172 C 253.308 192.172,253.535 192.258,253.535 192.363 C 253.535 192.468,253.848 192.694,254.230 192.867 C 255.967 193.650,260.704 197.803,262.303 199.944 C 262.689 200.461,263.204 201.104,263.447 201.373 C 263.690 201.643,263.889 202.012,263.889 202.194 C 263.889 202.376,263.989 202.525,264.112 202.525 C 264.235 202.525,264.398 202.724,264.475 202.967 C 264.552 203.210,264.787 203.693,264.998 204.040 C 265.628 205.082,266.919 207.924,266.919 208.270 C 266.919 208.447,267.022 208.790,267.147 209.031 C 267.272 209.272,267.492 209.924,267.634 210.480 C 268.241 212.847,268.383 213.255,268.409 212.718 C 268.423 212.421,268.146 211.182,267.793 209.965 C 264.493 198.577,253.956 189.621,242.809 188.729 C 241.695 188.640,240.845 188.635,240.921 188.719 M49.208 199.075 C 45.546 202.734,42.041 206.285,41.419 206.967 C 40.796 207.649,43.836 204.685,48.174 200.380 C 52.512 196.076,56.061 192.524,56.061 192.489 C 56.061 192.262,55.199 193.089,49.208 199.075 M268.486 214.520 C 268.482 215.215,268.567 216.351,268.675 217.045 C 268.871 218.303,268.872 218.302,268.876 216.540 C 268.878 215.568,268.793 214.432,268.687 214.015 C 268.522 213.366,268.493 213.438,268.486 214.520 M29.411 219.003 L 27.904 220.581 29.482 219.074 C 30.948 217.673,31.176 217.424,30.990 217.424 C 30.950 217.424,30.240 218.134,29.411 219.003 M268.596 221.040 C 268.480 222.404,268.443 223.577,268.514 223.648 C 268.705 223.840,268.995 220.737,268.894 219.571 C 268.838 218.924,268.731 219.453,268.596 221.040 M210.228 221.717 C 210.301 222.898,210.527 224.432,210.731 225.126 C 211.080 226.315,211.094 226.329,210.973 225.379 C 210.902 224.823,210.732 223.403,210.594 222.222 C 210.256 219.337,210.066 219.075,210.228 221.717 M122.018 221.378 C 122.143 222.180,122.310 222.896,122.389 222.971 C 122.605 223.175,122.200 220.359,121.980 220.124 C 121.875 220.012,121.892 220.576,122.018 221.378 M269.867 220.139 C 269.805 220.243,269.686 221.067,269.603 221.970 C 269.417 223.977,269.612 223.691,269.905 221.528 C 270.111 220.001,270.104 219.739,269.867 220.139 M298.434 220.253 C 298.601 220.419,298.746 220.845,298.757 221.199 C 298.768 221.554,298.836 221.697,298.908 221.517 C 299.103 221.032,298.772 219.949,298.430 219.949 C 298.203 219.949,298.204 220.022,298.434 220.253 M359.213 220.209 C 359.125 220.351,359.010 221.118,358.956 221.913 L 358.860 223.359 359.074 222.035 C 359.191 221.307,359.354 220.540,359.434 220.330 C 359.600 219.898,359.455 219.818,359.213 220.209 M209.135 221.338 C 209.127 221.755,209.214 222.551,209.329 223.106 C 209.511 223.985,209.540 224.018,209.552 223.359 C 209.560 222.942,209.473 222.146,209.358 221.591 C 209.176 220.712,209.147 220.679,209.135 221.338 M299.033 222.854 C 299.029 223.131,299.123 223.586,299.242 223.864 C 299.519 224.507,299.519 223.843,299.242 222.980 C 299.080 222.472,299.039 222.448,299.033 222.854 M182.387 223.864 C 182.390 224.419,182.441 224.617,182.502 224.303 C 182.562 223.988,182.560 223.534,182.497 223.293 C 182.434 223.051,182.384 223.308,182.387 223.864 M122.492 224.263 C 122.502 224.599,122.613 225.101,122.739 225.379 C 122.899 225.731,122.921 225.578,122.814 224.874 C 122.636 223.701,122.467 223.381,122.492 224.263 M268.042 224.860 C 267.946 225.366,267.932 225.844,268.009 225.921 C 268.086 225.999,268.227 225.647,268.322 225.140 C 268.417 224.634,268.432 224.156,268.355 224.079 C 268.278 224.001,268.137 224.353,268.042 224.860 M358.353 224.516 C 358.342 224.736,358.099 225.629,357.813 226.501 C 357.527 227.372,357.340 228.132,357.398 228.189 C 357.575 228.367,358.632 224.756,358.499 224.427 C 358.419 224.230,358.366 224.264,358.353 224.516 M269.084 225.144 C 268.991 225.514,268.964 225.866,269.023 225.925 C 269.083 225.985,269.207 225.731,269.300 225.361 C 269.393 224.991,269.420 224.639,269.361 224.580 C 269.301 224.520,269.177 224.774,269.084 225.144 M209.750 225.379 C 209.958 226.307,210.102 226.509,210.097 225.863 C 210.095 225.597,209.978 225.208,209.837 225.000 C 209.650 224.723,209.626 224.826,209.750 225.379 M299.530 225.000 C 299.530 225.208,299.628 225.606,299.747 225.884 C 299.884 226.202,299.965 226.249,299.965 226.010 C 299.965 225.802,299.867 225.404,299.747 225.126 C 299.611 224.808,299.530 224.761,299.530 225.000 M181.723 226.547 C 181.635 226.990,181.609 227.400,181.666 227.457 C 181.723 227.515,181.849 227.204,181.944 226.768 C 182.040 226.331,182.066 225.921,182.002 225.857 C 181.937 225.793,181.812 226.103,181.723 226.547 M123.015 226.515 C 123.015 226.723,123.113 227.121,123.232 227.399 C 123.369 227.717,123.449 227.764,123.449 227.525 C 123.449 227.317,123.352 226.919,123.232 226.641 C 123.096 226.323,123.015 226.276,123.015 226.515 M211.111 226.738 C 211.111 229.027,215.009 235.886,218.270 239.334 C 221.835 243.105,230.141 248.037,231.863 247.407 C 232.047 247.340,231.856 247.207,231.439 247.112 C 231.023 247.017,230.484 246.832,230.243 246.702 C 230.002 246.571,229.686 246.465,229.542 246.465 C 228.884 246.465,224.033 243.878,222.439 242.677 C 219.958 240.808,215.152 235.715,215.152 234.955 C 215.152 234.877,214.836 234.338,214.449 233.758 C 214.063 233.177,213.625 232.418,213.475 232.071 C 213.325 231.723,212.960 230.946,212.662 230.342 C 212.365 229.739,212.121 229.035,212.121 228.779 C 212.121 228.522,212.008 228.242,211.869 228.157 C 211.730 228.071,211.616 227.730,211.616 227.399 C 211.616 227.068,211.503 226.727,211.364 226.641 C 211.225 226.556,211.111 226.599,211.111 226.738 M268.579 227.165 C 268.486 227.535,268.458 227.886,268.518 227.946 C 268.578 228.005,268.702 227.751,268.795 227.381 C 268.888 227.011,268.915 226.659,268.856 226.600 C 268.796 226.540,268.672 226.794,268.579 227.165 M300.008 226.768 C 300.008 226.976,300.118 227.317,300.253 227.525 C 300.470 227.862,300.497 227.862,300.497 227.525 C 300.497 227.317,300.387 226.976,300.253 226.768 C 300.035 226.431,300.008 226.431,300.008 226.768 M210.255 227.399 C 210.463 228.328,210.607 228.529,210.602 227.883 C 210.600 227.617,210.483 227.229,210.342 227.020 C 210.155 226.744,210.131 226.846,210.255 227.399 M356.485 229.936 C 355.891 231.180,355.975 231.392,356.595 230.216 C 356.877 229.682,357.063 229.201,357.008 229.146 C 356.953 229.091,356.718 229.447,356.485 229.936 M124.495 230.901 C 124.495 231.156,125.745 233.586,125.876 233.586 C 125.937 233.586,125.721 233.011,125.396 232.309 C 124.813 231.052,124.495 230.554,124.495 230.901 M211.623 231.132 C 211.603 231.732,215.165 237.626,215.547 237.626 C 215.618 237.626,215.190 236.916,214.597 236.048 C 214.004 235.180,213.093 233.674,212.574 232.702 C 212.054 231.730,211.626 231.023,211.623 231.132 M266.811 231.857 C 266.354 232.774,266.327 232.912,266.642 232.717 C 266.873 232.575,267.477 231.061,267.303 231.061 C 267.251 231.061,267.030 231.419,266.811 231.857 M354.849 233.105 C 354.613 233.535,353.876 234.614,353.211 235.504 C 352.547 236.393,352.092 237.116,352.201 237.109 C 352.577 237.086,355.763 232.323,355.403 232.323 C 355.335 232.323,355.086 232.675,354.849 233.105 M126.341 234.470 C 126.554 234.886,126.918 235.455,127.149 235.732 C 127.380 236.010,127.313 235.783,127.002 235.227 C 126.313 234.002,125.798 233.411,126.341 234.470 M178.000 235.164 C 177.835 235.477,177.200 236.386,176.588 237.184 C 175.976 237.983,175.567 238.630,175.680 238.622 C 176.053 238.596,178.783 234.596,178.427 234.596 C 178.357 234.596,178.166 234.852,178.000 235.164 M128.141 237.204 C 128.530 237.714,128.899 238.131,128.961 238.131 C 129.137 238.131,128.043 236.654,127.720 236.454 C 127.563 236.357,127.752 236.694,128.141 237.204 M306.439 237.856 C 308.490 240.090,311.021 242.251,312.942 243.409 C 314.546 244.377,313.990 243.828,312.078 242.557 C 311.082 241.895,309.179 240.319,307.849 239.054 C 306.518 237.790,305.884 237.251,306.439 237.856 M350.496 238.785 C 349.737 239.562,348.264 240.832,347.222 241.608 C 345.077 243.206,344.467 243.746,345.581 243.061 C 347.436 241.920,352.570 237.374,352.004 237.374 C 351.934 237.374,351.256 238.009,350.496 238.785 M216.850 239.268 C 218.202 240.874,219.155 241.815,219.257 241.644 C 219.290 241.587,218.476 240.688,217.447 239.646 C 215.682 237.860,215.648 237.839,216.850 239.268 M130.689 240.170 C 131.657 241.153,132.904 242.318,133.460 242.758 C 134.015 243.199,133.277 242.396,131.818 240.975 C 128.789 238.021,128.056 237.500,130.689 240.170 M173.856 240.417 C 173.027 241.257,171.638 242.468,170.770 243.108 C 169.346 244.157,168.692 244.769,169.508 244.289 C 170.891 243.474,175.971 238.889,175.489 238.889 C 175.420 238.889,174.685 239.577,173.856 240.417 M255.984 244.310 C 253.755 245.826,253.171 246.335,254.672 245.455 C 255.871 244.752,258.081 243.183,258.081 243.034 C 258.081 242.881,258.124 242.855,255.984 244.310 M134.766 243.707 C 135.079 244.086,136.616 245.053,136.616 244.871 C 136.616 244.812,136.133 244.446,135.543 244.056 C 134.953 243.667,134.603 243.510,134.766 243.707 M343.876 243.831 C 342.932 244.343,342.990 244.557,343.939 244.066 C 344.356 243.850,344.697 243.620,344.697 243.554 C 344.697 243.392,344.670 243.401,343.876 243.831 M314.141 244.064 C 314.141 244.234,316.698 245.508,316.811 245.394 C 316.863 245.343,316.283 244.995,315.523 244.623 C 314.763 244.250,314.141 243.999,314.141 244.064 M167.361 245.346 C 166.417 245.859,166.475 246.072,167.424 245.581 C 167.841 245.365,168.182 245.135,168.182 245.069 C 168.182 244.907,168.155 244.916,167.361 245.346 M223.990 245.214 C 224.866 245.809,225.365 245.982,224.747 245.477 C 224.400 245.193,224.003 244.960,223.864 244.959 C 223.725 244.958,223.782 245.073,223.990 245.214 M137.626 245.574 C 137.626 245.767,139.177 246.514,139.307 246.383 C 139.372 246.318,139.060 246.083,138.613 245.860 C 137.738 245.423,137.626 245.391,137.626 245.574 M320.202 245.707 C 320.410 245.842,320.808 245.952,321.086 245.952 C 321.504 245.952,321.526 245.910,321.212 245.707 C 321.004 245.572,320.606 245.462,320.328 245.462 C 319.910 245.462,319.888 245.504,320.202 245.707 M162.374 246.456 C 161.749 246.707,160.726 247.053,160.101 247.224 C 157.910 247.826,157.628 247.937,158.247 247.960 C 158.818 247.981,163.122 246.644,163.848 246.220 C 164.570 245.799,163.643 245.947,162.374 246.456 M251.946 246.580 C 251.280 246.899,250.655 247.243,250.557 247.344 C 250.339 247.569,251.906 246.930,252.922 246.380 C 254.044 245.773,253.321 245.920,251.946 246.580 M322.096 246.212 C 322.374 246.331,322.885 246.429,323.232 246.429 C 323.808 246.429,323.819 246.410,323.359 246.212 C 323.081 246.093,322.569 245.995,322.222 245.995 C 321.647 245.995,321.636 246.014,322.096 246.212 M227.360 246.999 C 227.894 247.281,228.389 247.453,228.460 247.382 C 228.583 247.258,226.881 246.452,226.547 246.476 C 226.460 246.482,226.826 246.717,227.360 246.999 M320.076 246.717 C 320.831 247.042,321.462 247.042,320.960 246.717 C 320.751 246.583,320.354 246.479,320.076 246.486 L 319.571 246.500 320.076 246.717 M324.621 246.717 C 325.038 246.823,326.174 246.907,327.146 246.904 L 328.914 246.899 327.525 246.707 C 325.592 246.439,323.558 246.447,324.621 246.717 M330.429 246.717 L 329.167 246.890 330.682 246.915 C 331.515 246.929,332.652 246.847,333.207 246.732 L 334.217 246.523 332.955 246.533 C 332.260 246.539,331.124 246.622,330.429 246.717 M337.121 246.717 C 336.785 246.935,336.785 246.962,337.121 246.962 C 337.330 246.962,337.670 246.852,337.879 246.717 C 338.215 246.500,338.215 246.472,337.879 246.472 C 337.670 246.472,337.330 246.583,337.121 246.717 M322.096 247.222 C 322.374 247.342,322.771 247.439,322.980 247.439 C 323.219 247.439,323.172 247.359,322.854 247.222 C 322.576 247.103,322.178 247.005,321.970 247.005 C 321.731 247.005,321.778 247.085,322.096 247.222 M335.227 247.222 C 334.909 247.359,334.862 247.439,335.101 247.439 C 335.309 247.439,335.707 247.342,335.985 247.222 C 336.303 247.085,336.350 247.005,336.111 247.005 C 335.903 247.005,335.505 247.103,335.227 247.222 M232.702 247.727 C 232.980 247.847,233.491 247.944,233.838 247.944 C 234.414 247.944,234.425 247.925,233.965 247.727 C 233.687 247.608,233.176 247.510,232.828 247.510 C 232.253 247.510,232.242 247.529,232.702 247.727 M245.076 247.727 C 244.615 247.925,244.627 247.944,245.202 247.944 C 245.549 247.944,246.061 247.847,246.338 247.727 C 246.799 247.529,246.788 247.510,246.212 247.510 C 245.865 247.510,245.354 247.608,245.076 247.727 M324.621 247.714 C 325.389 247.923,327.698 248.060,327.504 247.885 C 327.446 247.832,326.604 247.726,325.631 247.649 C 324.516 247.560,324.143 247.584,324.621 247.714 M331.439 247.727 L 330.177 247.900 331.313 247.910 C 331.938 247.916,332.790 247.833,333.207 247.727 C 334.202 247.474,333.286 247.474,331.439 247.727 M143.687 248.232 C 143.895 248.367,144.236 248.477,144.444 248.477 C 144.781 248.477,144.781 248.450,144.444 248.232 C 144.236 248.098,143.895 247.988,143.687 247.988 C 143.350 247.988,143.350 248.015,143.687 248.232 M148.373 248.266 C 148.782 248.353,150.650 248.425,152.525 248.425 C 154.400 248.425,156.269 248.353,156.678 248.266 C 157.086 248.178,155.218 248.106,152.525 248.106 C 149.833 248.106,147.964 248.178,148.373 248.266 M230.682 248.232 C 230.960 248.352,231.357 248.449,231.566 248.449 C 231.804 248.449,231.758 248.369,231.439 248.232 C 231.162 248.113,230.764 248.015,230.556 248.015 C 230.317 248.015,230.363 248.096,230.682 248.232 M235.227 248.263 C 235.644 248.352,237.576 248.425,239.520 248.425 C 241.465 248.425,243.396 248.352,243.813 248.263 C 244.230 248.174,242.298 248.101,239.520 248.101 C 236.742 248.101,234.811 248.174,235.227 248.263 M247.601 248.232 C 247.283 248.369,247.236 248.449,247.475 248.449 C 247.683 248.449,248.081 248.352,248.359 248.232 C 248.677 248.096,248.724 248.015,248.485 248.015 C 248.277 248.015,247.879 248.113,247.601 248.232 M145.581 248.737 C 145.859 248.857,146.256 248.954,146.465 248.954 C 146.703 248.954,146.657 248.874,146.338 248.737 C 146.061 248.618,145.663 248.520,145.455 248.520 C 145.216 248.520,145.262 248.601,145.581 248.737 M158.460 248.737 L 157.955 248.954 158.460 248.954 C 158.737 248.954,159.192 248.857,159.470 248.737 L 159.975 248.520 159.470 248.520 C 159.192 248.520,158.737 248.618,158.460 248.737 M232.576 248.737 C 232.784 248.872,233.182 248.976,233.460 248.968 L 233.965 248.954 233.460 248.737 C 232.705 248.413,232.074 248.413,232.576 248.737 M245.581 248.737 C 245.262 248.874,245.216 248.954,245.455 248.954 C 245.663 248.954,246.061 248.857,246.338 248.737 C 246.657 248.601,246.703 248.520,246.465 248.520 C 246.256 248.520,245.859 248.618,245.581 248.737 M148.359 249.239 C 149.124 249.437,151.689 249.572,151.494 249.404 C 151.436 249.354,150.537 249.252,149.495 249.177 C 148.385 249.098,147.915 249.124,148.359 249.239 M154.672 249.242 L 153.409 249.416 154.672 249.425 C 155.366 249.431,156.275 249.348,156.692 249.242 L 157.449 249.050 156.692 249.059 C 156.275 249.065,155.366 249.147,154.672 249.242 M235.227 249.232 C 235.990 249.436,238.559 249.576,238.363 249.402 C 238.305 249.350,237.405 249.245,236.364 249.168 C 235.208 249.083,234.765 249.108,235.227 249.232 M241.793 249.242 L 240.530 249.416 241.793 249.430 C 242.487 249.438,243.340 249.354,243.687 249.242 L 244.318 249.040 243.687 249.055 C 243.340 249.063,242.487 249.147,241.793 249.242 " stroke="none" fill="#747474" fill-rule="evenodd"></path></g></svg>